<?xml version="1.0" encoding="utf-8"?>
<!-- Generator: Adobe Illustrator 27.0.0, SVG Export Plug-In . SVG Version: 6.00 Build 0)  -->
<svg version="1.1" id="Layer_1" xmlns="http://www.w3.org/2000/svg" xmlns:xlink="http://www.w3.org/1999/xlink" x="0px" y="0px"
	 viewBox="0 0 500 500" style="enable-background:new 0 0 500 500;" xml:space="preserve">
<style type="text/css">
	.st0{fill:#0026B9;}
	.st1{fill:#0000FD;}
	.st2{fill:#7A7A7A;}
	.st3{fill:url(#SVGID_1_);}
	.st4{fill:url(#SVGID_00000173147487714966047640000009854267277644323997_);}
	.st5{fill:url(#SVGID_00000006674635302211886650000004747695640904535175_);}
	.st6{fill:url(#SVGID_00000019674986935091686860000000909570266588053168_);}
	.st7{fill:url(#SVGID_00000157268171465791104630000010577135039331328392_);}
	.st8{fill:url(#SVGID_00000046330828519054879180000002220231063123884184_);}
	.st9{fill:url(#SVGID_00000110445266763699153570000012166776858440252579_);}
	.st10{fill:url(#SVGID_00000000212918372055130050000016938728282520028089_);}
	.st11{fill:url(#SVGID_00000054981090621228834670000011894016558675751575_);}
	.st12{fill:url(#SVGID_00000008847031786532363220000014557641468800349315_);}
	.st13{fill:url(#SVGID_00000074406550797907454700000001132336387470668216_);}
	.st14{fill:url(#SVGID_00000034057555801779402890000006458718136156552842_);}
	.st15{clip-path:url(#SVGID_00000035517882770501635940000014287401844084990107_);fill:#8FDF00;}
	.st16{clip-path:url(#SVGID_00000035517882770501635940000014287401844084990107_);fill:#BDE100;}
	.st17{clip-path:url(#SVGID_00000035517882770501635940000014287401844084990107_);fill:#CFE200;}
	.st18{clip-path:url(#SVGID_00000035517882770501635940000014287401844084990107_);fill:#D4E200;}
	.st19{clip-path:url(#SVGID_00000178168081193362819280000017628751423655168386_);fill:#D4E200;}
	.st20{clip-path:url(#SVGID_00000178168081193362819280000017628751423655168386_);fill:#D2E200;}
	.st21{clip-path:url(#SVGID_00000178168081193362819280000017628751423655168386_);fill:#C4E100;}
	.st22{clip-path:url(#SVGID_00000178168081193362819280000017628751423655168386_);fill:#8FDF00;}
	.st23{clip-path:url(#SVGID_00000051368295266644119390000005949474154905107890_);fill:#A0E000;}
	.st24{clip-path:url(#SVGID_00000051368295266644119390000005949474154905107890_);fill:#B2E100;}
	.st25{clip-path:url(#SVGID_00000051368295266644119390000005949474154905107890_);fill:#C3E100;}
	.st26{clip-path:url(#SVGID_00000051368295266644119390000005949474154905107890_);fill:#8FDF00;}
	.st27{clip-path:url(#SVGID_00000051368295266644119390000005949474154905107890_);fill:#D4E200;}
	.st28{clip-path:url(#SVGID_00000141419885543304665370000007807322716247711388_);fill:#D4E200;}
	.st29{clip-path:url(#SVGID_00000141419885543304665370000007807322716247711388_);fill:#D2E200;}
	.st30{clip-path:url(#SVGID_00000141419885543304665370000007807322716247711388_);fill:#C4E100;}
	.st31{clip-path:url(#SVGID_00000141419885543304665370000007807322716247711388_);fill:#8FDF00;}
	.st32{clip-path:url(#SVGID_00000045595683417649232140000000960937792401848465_);fill:#A0E000;}
	.st33{clip-path:url(#SVGID_00000045595683417649232140000000960937792401848465_);fill:#B2E100;}
	.st34{clip-path:url(#SVGID_00000045595683417649232140000000960937792401848465_);fill:#C3E100;}
	.st35{clip-path:url(#SVGID_00000045595683417649232140000000960937792401848465_);fill:#8FDF00;}
	.st36{clip-path:url(#SVGID_00000045595683417649232140000000960937792401848465_);fill:#D4E200;}
	.st37{clip-path:url(#SVGID_00000016769315166748582180000012346020763366406016_);fill:#D4E200;}
	.st38{clip-path:url(#SVGID_00000016769315166748582180000012346020763366406016_);fill:#D2E200;}
	.st39{clip-path:url(#SVGID_00000016769315166748582180000012346020763366406016_);fill:#C4E100;}
	.st40{clip-path:url(#SVGID_00000016769315166748582180000012346020763366406016_);fill:#8FDF00;}
	.st41{clip-path:url(#SVGID_00000178163085980062070010000011240584329971858832_);fill:#92DF00;}
	.st42{clip-path:url(#SVGID_00000178163085980062070010000011240584329971858832_);fill:#8FDF00;}
	.st43{clip-path:url(#SVGID_00000178163085980062070010000011240584329971858832_);fill:#A2E000;}
	.st44{clip-path:url(#SVGID_00000178163085980062070010000011240584329971858832_);fill:#D4E200;}
	.st45{clip-path:url(#SVGID_00000176731998286199307410000009299514335260653977_);fill:#8FDF00;}
	.st46{clip-path:url(#SVGID_00000176731998286199307410000009299514335260653977_);fill:#A0E000;}
	.st47{clip-path:url(#SVGID_00000176731998286199307410000009299514335260653977_);fill:#B2E100;}
	.st48{clip-path:url(#SVGID_00000176731998286199307410000009299514335260653977_);fill:#C3E100;}
	.st49{clip-path:url(#SVGID_00000176731998286199307410000009299514335260653977_);fill:#D4E200;}
	.st50{clip-path:url(#SVGID_00000153691417102254395230000006396177860594713267_);fill:#D2E200;}
	.st51{clip-path:url(#SVGID_00000153691417102254395230000006396177860594713267_);fill:#D4E200;}
	.st52{clip-path:url(#SVGID_00000153691417102254395230000006396177860594713267_);fill:#C4E100;}
	.st53{clip-path:url(#SVGID_00000153691417102254395230000006396177860594713267_);fill:#8FDF00;}
	.st54{clip-path:url(#SVGID_00000016053085412407474110000011559662704696546467_);fill:#A0E000;}
	.st55{clip-path:url(#SVGID_00000016053085412407474110000011559662704696546467_);fill:#B2E100;}
	.st56{clip-path:url(#SVGID_00000016053085412407474110000011559662704696546467_);fill:#C3E100;}
	.st57{clip-path:url(#SVGID_00000016053085412407474110000011559662704696546467_);fill:#8FDF00;}
	.st58{clip-path:url(#SVGID_00000016053085412407474110000011559662704696546467_);fill:#D4E200;}
	.st59{clip-path:url(#SVGID_00000088843058945966288060000004425726597554957191_);fill:#D4E200;}
	.st60{clip-path:url(#SVGID_00000088843058945966288060000004425726597554957191_);fill:#D2E200;}
	.st61{clip-path:url(#SVGID_00000088843058945966288060000004425726597554957191_);fill:#C4E100;}
	.st62{clip-path:url(#SVGID_00000088843058945966288060000004425726597554957191_);fill:#8FDF00;}
	.st63{clip-path:url(#SVGID_00000008115330457545848850000006648306293968435612_);fill:#8FDF00;}
	.st64{clip-path:url(#SVGID_00000008115330457545848850000006648306293968435612_);fill:#92DF00;}
	.st65{clip-path:url(#SVGID_00000008115330457545848850000006648306293968435612_);fill:#A2E000;}
	.st66{clip-path:url(#SVGID_00000008115330457545848850000006648306293968435612_);fill:#D4E200;}
	.st67{fill:#999999;}
	.st68{font-family:'MonumentExtended-Ultrabold';}
	.st69{font-size:20.4904px;}
	.st70{letter-spacing:0.9;}
</style>
<g>
	<g>
		<defs>
			<path id="SVGID_00000068659575738000337730000016910561645460157628_" d="M115.7,118.6c-30,0-42.8-10.7-42.8-33.1v-32h25.3v32
				c0,6.9,2.6,12.9,17.5,12.9c14.9,0,17.5-6.1,17.5-12.9v-32h25.3v32C158.5,107.8,145.6,118.6,115.7,118.6z"/>
		</defs>
		<clipPath id="SVGID_00000108298398349070111300000003862206220693672072_">
			<use xlink:href="#SVGID_00000068659575738000337730000016910561645460157628_"  style="overflow:visible;"/>
		</clipPath>
		
			<rect x="72.8" y="53.5" style="clip-path:url(#SVGID_00000108298398349070111300000003862206220693672072_);fill:#8FDF00;" width="17.1" height="65"/>
		
			<rect x="90" y="53.5" style="clip-path:url(#SVGID_00000108298398349070111300000003862206220693672072_);fill:#BDE100;" width="17.1" height="65"/>
		
			<rect x="107.1" y="53.5" style="clip-path:url(#SVGID_00000108298398349070111300000003862206220693672072_);fill:#CFE200;" width="17.1" height="65"/>
		
			<rect x="124.2" y="53.5" style="clip-path:url(#SVGID_00000108298398349070111300000003862206220693672072_);fill:#D4E200;" width="17.1" height="65"/>
		
			<rect x="141.4" y="53.5" style="clip-path:url(#SVGID_00000108298398349070111300000003862206220693672072_);fill:#D4E200;" width="17.1" height="65"/>
	</g>
</g>
<g>
	<g>
		<defs>
			<path id="SVGID_00000178185857647637164760000010205406873692073901_" d="M255.1,53.5v64.1H222l-29.4-37.8v37.8h-25.3V53.5h33.1
				l29.4,37.8V53.5H255.1z"/>
		</defs>
		<clipPath id="SVGID_00000093871910838308058590000011500336502930750859_">
			<use xlink:href="#SVGID_00000178185857647637164760000010205406873692073901_"  style="overflow:visible;"/>
		</clipPath>
		
			<rect x="167.3" y="53.5" style="clip-path:url(#SVGID_00000093871910838308058590000011500336502930750859_);fill:#D4E200;" width="17.6" height="64.1"/>
		
			<rect x="184.8" y="53.5" style="clip-path:url(#SVGID_00000093871910838308058590000011500336502930750859_);fill:#D4E200;" width="17.6" height="64.1"/>
		
			<rect x="202.4" y="53.5" style="clip-path:url(#SVGID_00000093871910838308058590000011500336502930750859_);fill:#D2E200;" width="17.6" height="64.1"/>
		
			<rect x="220" y="53.5" style="clip-path:url(#SVGID_00000093871910838308058590000011500336502930750859_);fill:#C4E100;" width="17.6" height="64.1"/>
		
			<rect x="237.5" y="53.5" style="clip-path:url(#SVGID_00000093871910838308058590000011500336502930750859_);fill:#8FDF00;" width="17.6" height="64.1"/>
	</g>
</g>
<g>
	<g>
		<defs>
			<path id="SVGID_00000127027079043363853700000001070365774961555378_" d="M140.4,178.3l12.1,18.4h-30l-9.4-15H98.2v15H72.8v-64.1
				h53.5c15.5,0,26.1,10.3,26.1,24.5C152.5,166.5,147.9,174.2,140.4,178.3z M98.2,161.5h23.4c2.5,0,5.6,0,5.6-4.4
				c0-4.4-3.1-4.4-5.6-4.4H98.2V161.5z"/>
		</defs>
		<clipPath id="SVGID_00000139258176917143665630000016771292078527879605_">
			<use xlink:href="#SVGID_00000127027079043363853700000001070365774961555378_"  style="overflow:visible;"/>
		</clipPath>
		
			<rect x="98.2" y="152.7" style="clip-path:url(#SVGID_00000139258176917143665630000016771292078527879605_);fill:#A0E000;" width="6.5" height="8.8"/>
		
			<rect x="104.7" y="152.7" style="clip-path:url(#SVGID_00000139258176917143665630000016771292078527879605_);fill:#B2E100;" width="15.9" height="8.8"/>
		
			<rect x="120.6" y="152.7" style="clip-path:url(#SVGID_00000139258176917143665630000016771292078527879605_);fill:#C3E100;" width="6.5" height="8.8"/>
		
			<rect x="72.8" y="132.6" style="clip-path:url(#SVGID_00000139258176917143665630000016771292078527879605_);fill:#8FDF00;" width="15.9" height="64.1"/>
		
			<rect x="88.8" y="132.6" style="clip-path:url(#SVGID_00000139258176917143665630000016771292078527879605_);fill:#A0E000;" width="15.9" height="64.1"/>
		
			<rect x="104.7" y="132.6" style="clip-path:url(#SVGID_00000139258176917143665630000016771292078527879605_);fill:#B2E100;" width="15.9" height="64.1"/>
		
			<rect x="120.6" y="132.6" style="clip-path:url(#SVGID_00000139258176917143665630000016771292078527879605_);fill:#C3E100;" width="15.9" height="64.1"/>
		
			<rect x="136.5" y="132.6" style="clip-path:url(#SVGID_00000139258176917143665630000016771292078527879605_);fill:#D4E200;" width="15.9" height="64.1"/>
	</g>
</g>
<g>
	<g>
		<defs>
			<path id="SVGID_00000063612469583090863380000017886266257780499080_" d="M185.6,150.9v6h46.7v15.6h-46.7v6h46.7v18.3h-72v-64.1
				h72v18.3H185.6z"/>
		</defs>
		<clipPath id="SVGID_00000000917928267366522760000005191161366439340953_">
			<use xlink:href="#SVGID_00000063612469583090863380000017886266257780499080_"  style="overflow:visible;"/>
		</clipPath>
		
			<rect x="160.3" y="132.6" style="clip-path:url(#SVGID_00000000917928267366522760000005191161366439340953_);fill:#D4E200;" width="14.4" height="64.1"/>
		
			<rect x="174.7" y="132.6" style="clip-path:url(#SVGID_00000000917928267366522760000005191161366439340953_);fill:#D4E200;" width="14.4" height="64.1"/>
		
			<rect x="189.1" y="132.6" style="clip-path:url(#SVGID_00000000917928267366522760000005191161366439340953_);fill:#D2E200;" width="14.4" height="64.1"/>
		
			<rect x="203.5" y="132.6" style="clip-path:url(#SVGID_00000000917928267366522760000005191161366439340953_);fill:#C4E100;" width="14.4" height="64.1"/>
		
			<rect x="217.9" y="132.6" style="clip-path:url(#SVGID_00000000917928267366522760000005191161366439340953_);fill:#8FDF00;" width="14.4" height="64.1"/>
	</g>
</g>
<g>
	<g>
		<defs>
			<path id="SVGID_00000178194434170654215360000000283013573261361323_" d="M152.5,244.2c0,14.3-10.6,24.5-26.1,24.5H98.2v15H72.8
				v-64.1h53.5C141.9,219.7,152.5,230,152.5,244.2z M127.2,244.2c0-4.4-3.1-4.4-5.6-4.4H98.2v8.8h23.4
				C124,248.6,127.2,248.6,127.2,244.2z"/>
		</defs>
		<clipPath id="SVGID_00000005968944622554459760000003849627546389831849_">
			<use xlink:href="#SVGID_00000178194434170654215360000000283013573261361323_"  style="overflow:visible;"/>
		</clipPath>
		
			<rect x="98.2" y="239.8" style="clip-path:url(#SVGID_00000005968944622554459760000003849627546389831849_);fill:#A0E000;" width="6.5" height="8.8"/>
		
			<rect x="104.7" y="239.8" style="clip-path:url(#SVGID_00000005968944622554459760000003849627546389831849_);fill:#B2E100;" width="15.9" height="8.8"/>
		
			<rect x="120.6" y="239.8" style="clip-path:url(#SVGID_00000005968944622554459760000003849627546389831849_);fill:#C3E100;" width="6.5" height="8.8"/>
		
			<rect x="72.8" y="219.7" style="clip-path:url(#SVGID_00000005968944622554459760000003849627546389831849_);fill:#8FDF00;" width="15.9" height="64.1"/>
		
			<rect x="88.8" y="219.7" style="clip-path:url(#SVGID_00000005968944622554459760000003849627546389831849_);fill:#A0E000;" width="15.9" height="64.1"/>
		
			<rect x="104.7" y="219.7" style="clip-path:url(#SVGID_00000005968944622554459760000003849627546389831849_);fill:#B2E100;" width="15.9" height="64.1"/>
		
			<rect x="120.6" y="219.7" style="clip-path:url(#SVGID_00000005968944622554459760000003849627546389831849_);fill:#C3E100;" width="15.9" height="64.1"/>
		
			<rect x="136.5" y="219.7" style="clip-path:url(#SVGID_00000005968944622554459760000003849627546389831849_);fill:#D4E200;" width="15.9" height="64.1"/>
	</g>
</g>
<g>
	<g>
		<defs>
			<path id="SVGID_00000169549546818988638340000009803866562881425569_" d="M185.6,238v6h46.7v15.6h-46.7v6h46.7v18.3h-72v-64.1h72
				V238H185.6z"/>
		</defs>
		<clipPath id="SVGID_00000085942917385435869220000010754950760551892352_">
			<use xlink:href="#SVGID_00000169549546818988638340000009803866562881425569_"  style="overflow:visible;"/>
		</clipPath>
		
			<rect x="160.3" y="219.7" style="clip-path:url(#SVGID_00000085942917385435869220000010754950760551892352_);fill:#D4E200;" width="14.4" height="64.1"/>
		
			<rect x="174.7" y="219.7" style="clip-path:url(#SVGID_00000085942917385435869220000010754950760551892352_);fill:#D4E200;" width="14.4" height="64.1"/>
		
			<rect x="189.1" y="219.7" style="clip-path:url(#SVGID_00000085942917385435869220000010754950760551892352_);fill:#D2E200;" width="14.4" height="64.1"/>
		
			<rect x="203.5" y="219.7" style="clip-path:url(#SVGID_00000085942917385435869220000010754950760551892352_);fill:#C4E100;" width="14.4" height="64.1"/>
		
			<rect x="217.9" y="219.7" style="clip-path:url(#SVGID_00000085942917385435869220000010754950760551892352_);fill:#8FDF00;" width="14.4" height="64.1"/>
	</g>
</g>
<g>
	<g>
		<defs>
			<path id="SVGID_00000067204944254421367870000003409215166229533059_" d="M300.6,272.3h-29l-4.7,11.5h-27.8l28.2-64.1h37.6
				l28.2,64.1h-27.8L300.6,272.3z M294,255.8l-7.9-19.6l-7.9,19.6H294z"/>
		</defs>
		<clipPath id="SVGID_00000016772640665061575090000008788274734936751790_">
			<use xlink:href="#SVGID_00000067204944254421367870000003409215166229533059_"  style="overflow:visible;"/>
		</clipPath>
		
			<rect x="278.2" y="236.2" style="clip-path:url(#SVGID_00000016772640665061575090000008788274734936751790_);fill:#92DF00;" width="15.8" height="19.6"/>
		
			<rect x="239.1" y="219.7" style="clip-path:url(#SVGID_00000016772640665061575090000008788274734936751790_);fill:#8FDF00;" width="18.8" height="64.1"/>
		
			<rect x="257.9" y="219.7" style="clip-path:url(#SVGID_00000016772640665061575090000008788274734936751790_);fill:#8FDF00;" width="18.8" height="64.1"/>
		
			<rect x="276.7" y="219.7" style="clip-path:url(#SVGID_00000016772640665061575090000008788274734936751790_);fill:#92DF00;" width="18.8" height="64.1"/>
		
			<rect x="295.5" y="219.7" style="clip-path:url(#SVGID_00000016772640665061575090000008788274734936751790_);fill:#A2E000;" width="18.8" height="64.1"/>
		
			<rect x="314.3" y="219.7" style="clip-path:url(#SVGID_00000016772640665061575090000008788274734936751790_);fill:#D4E200;" width="18.8" height="64.1"/>
	</g>
</g>
<g>
	<g>
		<defs>
			<path id="SVGID_00000149342798497255567730000008583026366249971858_" d="M156.6,327h-29.2v44H102v-44H72.8v-20.2h83.7V327z"/>
		</defs>
		<clipPath id="SVGID_00000031900314816956756070000000651101335832365449_">
			<use xlink:href="#SVGID_00000149342798497255567730000008583026366249971858_"  style="overflow:visible;"/>
		</clipPath>
		
			<rect x="72.8" y="306.8" style="clip-path:url(#SVGID_00000031900314816956756070000000651101335832365449_);fill:#8FDF00;" width="16.7" height="64.1"/>
		
			<rect x="89.6" y="306.8" style="clip-path:url(#SVGID_00000031900314816956756070000000651101335832365449_);fill:#A0E000;" width="16.7" height="64.1"/>
		
			<rect x="106.3" y="306.8" style="clip-path:url(#SVGID_00000031900314816956756070000000651101335832365449_);fill:#B2E100;" width="16.7" height="64.1"/>
		
			<rect x="123.1" y="306.8" style="clip-path:url(#SVGID_00000031900314816956756070000000651101335832365449_);fill:#C3E100;" width="16.7" height="64.1"/>
		
			<rect x="139.8" y="306.8" style="clip-path:url(#SVGID_00000031900314816956756070000000651101335832365449_);fill:#D4E200;" width="16.7" height="64.1"/>
	</g>
</g>
<g>
	<g>
		<defs>
			<path id="SVGID_00000118398088592210506570000017328654120638038158_" d="M209.3,359.4h-29l-4.7,11.5h-27.8l28.2-64.1h37.6
				l28.2,64.1H214L209.3,359.4z M202.7,342.9l-7.9-19.6l-7.9,19.6H202.7z"/>
		</defs>
		<clipPath id="SVGID_00000045602609547416749910000014078794949648244644_">
			<use xlink:href="#SVGID_00000118398088592210506570000017328654120638038158_"  style="overflow:visible;"/>
		</clipPath>
		
			<rect x="186.9" y="323.3" style="clip-path:url(#SVGID_00000045602609547416749910000014078794949648244644_);fill:#D2E200;" width="15.8" height="19.6"/>
		
			<rect x="147.8" y="306.8" style="clip-path:url(#SVGID_00000045602609547416749910000014078794949648244644_);fill:#D4E200;" width="18.8" height="64.1"/>
		
			<rect x="166.6" y="306.8" style="clip-path:url(#SVGID_00000045602609547416749910000014078794949648244644_);fill:#D4E200;" width="18.8" height="64.1"/>
		
			<rect x="185.4" y="306.8" style="clip-path:url(#SVGID_00000045602609547416749910000014078794949648244644_);fill:#D2E200;" width="18.8" height="64.1"/>
		
			<rect x="204.2" y="306.8" style="clip-path:url(#SVGID_00000045602609547416749910000014078794949648244644_);fill:#C4E100;" width="18.8" height="64.1"/>
		
			<rect x="223" y="306.8" style="clip-path:url(#SVGID_00000045602609547416749910000014078794949648244644_);fill:#8FDF00;" width="18.8" height="64.1"/>
	</g>
</g>
<g>
	<g>
		<defs>
			<path id="SVGID_00000054950868698884803520000006046781280144352143_" d="M157.3,434c0,10.5-6.7,19-22.2,19H72.8v-64.1h59.4
				c15.5,0,20.2,6.6,20.2,16.3c0,4.1-2,8.3-5.4,12C153.1,421.2,157.3,427.1,157.3,434z M98.2,411.4h23.4c2.5,0,5.6,0,5.6-3.5
				c0-3.5-3.1-3.5-5.6-3.5H98.2V411.4z M132,432.2c0-3.4-3.1-3.4-5.6-3.4H98.2v6.8h28.2C128.9,435.6,132,435.6,132,432.2z"/>
		</defs>
		<clipPath id="SVGID_00000056413243916152974400000007689429538277192880_">
			<use xlink:href="#SVGID_00000054950868698884803520000006046781280144352143_"  style="overflow:visible;"/>
		</clipPath>
		
			<rect x="98.2" y="428.8" style="clip-path:url(#SVGID_00000056413243916152974400000007689429538277192880_);fill:#A0E000;" width="8.5" height="6.8"/>
		
			<rect x="106.6" y="428.8" style="clip-path:url(#SVGID_00000056413243916152974400000007689429538277192880_);fill:#B2E100;" width="16.9" height="6.8"/>
		
			<rect x="123.5" y="428.8" style="clip-path:url(#SVGID_00000056413243916152974400000007689429538277192880_);fill:#C3E100;" width="8.5" height="6.8"/>
		
			<rect x="98.2" y="404.5" style="clip-path:url(#SVGID_00000056413243916152974400000007689429538277192880_);fill:#A0E000;" width="8.5" height="7"/>
		
			<rect x="106.6" y="404.5" style="clip-path:url(#SVGID_00000056413243916152974400000007689429538277192880_);fill:#B2E100;" width="16.9" height="7"/>
		
			<rect x="123.5" y="404.5" style="clip-path:url(#SVGID_00000056413243916152974400000007689429538277192880_);fill:#C3E100;" width="3.6" height="7"/>
		
			<rect x="72.8" y="388.9" style="clip-path:url(#SVGID_00000056413243916152974400000007689429538277192880_);fill:#8FDF00;" width="16.9" height="64.1"/>
		
			<rect x="89.7" y="388.9" style="clip-path:url(#SVGID_00000056413243916152974400000007689429538277192880_);fill:#A0E000;" width="16.9" height="64.1"/>
		
			<rect x="106.6" y="388.9" style="clip-path:url(#SVGID_00000056413243916152974400000007689429538277192880_);fill:#B2E100;" width="16.9" height="64.1"/>
		
			<rect x="123.5" y="388.9" style="clip-path:url(#SVGID_00000056413243916152974400000007689429538277192880_);fill:#C3E100;" width="16.9" height="64.1"/>
		
			<rect x="140.4" y="388.9" style="clip-path:url(#SVGID_00000056413243916152974400000007689429538277192880_);fill:#D4E200;" width="16.9" height="64.1"/>
	</g>
</g>
<g>
	<g>
		<defs>
			<path id="SVGID_00000157289929414640513280000003681734584816951733_" d="M235.2,432.8V453h-70.1v-64.1h25.3v44H235.2z"/>
		</defs>
		<clipPath id="SVGID_00000170986508902206651710000008504993081133239225_">
			<use xlink:href="#SVGID_00000157289929414640513280000003681734584816951733_"  style="overflow:visible;"/>
		</clipPath>
		
			<rect x="165.1" y="388.9" style="clip-path:url(#SVGID_00000170986508902206651710000008504993081133239225_);fill:#D4E200;" width="14" height="64.1"/>
		
			<rect x="179.1" y="388.9" style="clip-path:url(#SVGID_00000170986508902206651710000008504993081133239225_);fill:#D4E200;" width="14" height="64.1"/>
		
			<rect x="193.2" y="388.9" style="clip-path:url(#SVGID_00000170986508902206651710000008504993081133239225_);fill:#D2E200;" width="14" height="64.1"/>
		
			<rect x="207.2" y="388.9" style="clip-path:url(#SVGID_00000170986508902206651710000008504993081133239225_);fill:#C4E100;" width="14" height="64.1"/>
		
			<rect x="221.2" y="388.9" style="clip-path:url(#SVGID_00000170986508902206651710000008504993081133239225_);fill:#8FDF00;" width="14" height="64.1"/>
	</g>
</g>
<g>
	<g>
		<defs>
			<path id="SVGID_00000117653368754749662490000016867869079439408278_" d="M268.3,407.2v6H315v15.6h-46.7v6H315V453h-72v-64.1h72
				v18.3H268.3z"/>
		</defs>
		<clipPath id="SVGID_00000109709296535861598030000000396152688509818011_">
			<use xlink:href="#SVGID_00000117653368754749662490000016867869079439408278_"  style="overflow:visible;"/>
		</clipPath>
		
			<rect x="243" y="388.9" style="clip-path:url(#SVGID_00000109709296535861598030000000396152688509818011_);fill:#8FDF00;" width="14.4" height="64.1"/>
		
			<rect x="257.4" y="388.9" style="clip-path:url(#SVGID_00000109709296535861598030000000396152688509818011_);fill:#8FDF00;" width="14.4" height="64.1"/>
		
			<rect x="271.8" y="388.9" style="clip-path:url(#SVGID_00000109709296535861598030000000396152688509818011_);fill:#92DF00;" width="14.4" height="64.1"/>
		
			<rect x="286.2" y="388.9" style="clip-path:url(#SVGID_00000109709296535861598030000000396152688509818011_);fill:#A2E000;" width="14.4" height="64.1"/>
		
			<rect x="300.6" y="388.9" style="clip-path:url(#SVGID_00000109709296535861598030000000396152688509818011_);fill:#D4E200;" width="14.4" height="64.1"/>
	</g>
</g>
<text transform="matrix(1.0627 0 0 1 73.147 34.2383)" class="st67 st68 st69 st70">each pebble</text>
</svg>
