<?xml version="1.0" encoding="UTF-8"?>
<svg id="Layer_1" data-name="Layer 1" xmlns="http://www.w3.org/2000/svg" viewBox="0 0 500 500">
  <defs>
    <style>
      .cls-1 {
        fill: #0000fd;
      }
    </style>
  </defs>
  <polygon class="cls-1" points="82.08 267.11 82.08 302.9 82.08 303.63 102.81 303.63 102.81 302.9 102.81 267.11 102.81 266.39 82.08 266.39 82.08 267.11"/>
  <polygon class="cls-1" points="181.34 276.51 181.34 275.79 181.34 267.17 181.34 266.44 119.11 266.44 119.11 267.17 119.11 302.95 119.11 303.68 181.34 303.68 181.34 302.95 181.34 294.31 181.34 293.58 139.84 293.58 139.84 289.64 181.34 289.64 181.34 288.91 181.34 281.19 181.34 280.46 139.84 280.46 139.84 276.51 181.34 276.51"/>
  <path class="cls-1" d="M247.75,266.44h-47.31v37.24h47.31c14.6,.14,25.44-8.34,25.32-18.26,0-.12,0-.24,0-.36,0-.12,0-.24,0-.36,.12-9.97-10.72-18.39-25.32-18.26Zm-3.88,24.94h-22.71v-12.64h22.71c5.2,0,8.21,2.79,8.41,6.32-.2,3.5-3.21,6.32-8.41,6.32Z"/>
  <path class="cls-1" d="M338.53,266.41h-51.23v37.24h20.73v-8.91h18.51l10.01,8.91h22.07l-.82-.73h.82l-11-9.72c3.21-1.11,5.82-2.72,7.8-4.79,2.14-2.23,3.2-4.73,3.2-7.47,0-.11-.02-.22-.02-.34,0-.13,.02-.26,.02-.39,.16-7.55-9.14-13.88-20.1-13.8Zm-2.02,16c-.87,.6-1.94,.9-3.2,.9h-25.28v-5.49h25.28c2.36,0,4.25,1.21,4.5,2.77-.11,.68-.52,1.3-1.29,1.82Z"/>
  <path class="cls-1" d="M421.48,266.44h-24.65l-28.52,36.51h.57l-.57,.73h23.34l4.19-6.25h26.62l4.19,6.25h23.34l-.57-.73h.57l-28.52-36.51Zm-19.13,21.35l6.83-10.06,6.79,10.06h-13.61Z"/>
  <path class="cls-1" d="M444.31,210.9c-3.8-3.93-8.93-7.3-15.4-10.12-6.47-2.81-13.95-5.02-22.43-6.61-8.48-1.59-17.52-2.39-27.12-2.39H33.19v18.09H379.7c4.46,0,8.76,.37,12.89,1.11,4.13,.74,7.7,1.78,10.71,3.11,3.01,1.33,5.41,2.9,7.2,4.7,1.68,1.7,2.56,3.49,2.66,5.37-.1,1.88-.98,3.68-2.66,5.37-1.79,1.81-4.18,3.37-7.2,4.7-3.01,1.33-6.58,2.39-10.71,3.19-4.13,.8-8.42,1.19-12.89,1.19H33.19v65.07h38.17v-46.99H379.36c9.6,0,18.69-.82,27.29-2.47,8.59-1.65,16.12-3.9,22.6-6.77,6.47-2.87,11.55-6.27,15.23-10.19,3.68-3.93,5.53-8.23,5.53-12.9,0-.12-.02-.24-.02-.35,0-.12,.02-.25,.02-.37,0-4.57-1.9-8.81-5.69-12.74Z"/>
</svg>