<?xml version="1.0" encoding="UTF-8"?>
<svg id="Layer_1" data-name="Layer 1" xmlns="http://www.w3.org/2000/svg" viewBox="0 0 500 500">
  <defs>
    <style>
      .cls-1 {
        fill: #0000fd;
      }
    </style>
  </defs>
  <polygon class="cls-1" points="62.22 177.23 62.22 294.53 62.22 295.53 90.38 295.53 90.38 294.53 90.38 177.23 90.38 176.23 62.22 176.23 62.22 177.23"/>
  <path class="cls-1" d="M139.7,245.51h-38.44v47.03h12.58v-12.29h25.86c11.11,0,18.73-6.58,18.73-16.83,0-.17-.02-.33-.02-.5,0-.17,.02-.33,.02-.5,0-10.26-7.62-16.9-18.73-16.9Zm-3.49,23.8h-22.36v-12.87h22.36c3.68,0,9.33,.02,9.62,6.47-.29,6.39-5.94,6.41-9.62,6.41Z"/>
  <polygon class="cls-1" points="179.04 291.53 179.04 246.51 179.04 245.51 166.46 245.51 166.46 246.51 166.46 291.53 166.46 292.53 179.04 292.53 179.04 291.53"/>
  <polygon class="cls-1" points="239.84 255.91 239.84 254.91 239.84 246.51 239.84 245.51 188.13 245.51 188.13 246.51 188.13 291.53 188.13 292.53 239.84 292.53 239.84 291.53 239.84 283.13 239.84 282.13 200.71 282.13 200.71 273.79 239.84 273.79 239.84 272.79 239.84 265.25 239.84 264.25 200.71 264.25 200.71 255.91 239.84 255.91"/>
  <path class="cls-1" d="M283.37,245.51h-35.5v47.03h35.5c12.65,0,23.76-7.36,23.76-23.01,0-.17,0-.33-.01-.5,0-.17,.01-.33,.01-.5,0-15.65-11.11-23.01-23.76-23.01Zm-4.75,36.1h-18.17v-25.17h18.17c9.36,0,15.72,1.87,15.92,12.58-.2,10.72-6.56,12.58-15.92,12.58Z"/>
  <path class="cls-1" d="M353.6,245.51h-38.44v47.03h12.58v-12.29h20.27l7.9,12.29h14.82l-.66-1h.66l-8.5-12.89c6.26-2.53,10.1-7.95,10.1-15.24,0-.14-.02-.28-.02-.42,0-.19,.02-.38,.02-.58,0-10.26-7.62-16.9-18.73-16.9Zm-3.49,23.8h-22.36v-12.87h22.36c3.68,0,9.33,.02,9.62,6.47-.29,6.39-5.94,6.41-9.62,6.41Z"/>
  <path class="cls-1" d="M419.08,245.51h-16.98l-25.23,46.03h.55l-.55,1h13.84l5.24-9.8h29.28l5.24,9.8h13.91l-.55-1h.55l-25.3-46.03Zm-17.91,27.42l9.46-17.67,9.39,17.67h-18.85Z"/>
  <path class="cls-1" d="M100.2,186.36v46.03h12.58v-12.29h25.86c11.11,0,18.73-6.58,18.73-16.83,0-.17-.02-.33-.02-.5,0-.17,.02-.33,.02-.5,0-10.26-7.62-16.9-18.73-16.9h-38.44v1Zm12.58,9.93h22.36c3.68,0,9.33,.02,9.62,6.47-.29,6.39-5.94,6.41-9.62,6.41h-22.36v-12.87Z"/>
  <polygon class="cls-1" points="177.98 231.38 177.98 186.36 177.98 185.36 165.4 185.36 165.4 186.36 165.4 231.38 165.4 232.38 177.98 232.38 177.98 231.38"/>
  <polygon class="cls-1" points="187.06 186.36 187.06 231.38 187.06 232.38 238.78 232.38 238.78 231.38 238.78 222.98 238.78 221.98 199.64 221.98 199.64 213.64 238.78 213.64 238.78 212.64 238.78 205.1 238.78 204.1 199.64 204.1 199.64 195.76 238.78 195.76 238.78 194.76 238.78 186.36 238.78 185.36 187.06 185.36 187.06 186.36"/>
  <path class="cls-1" d="M246.81,185.36v47.03h35.5c12.65,0,23.76-7.36,23.76-23.01,0-.17,0-.33-.01-.5,0-.17,.01-.33,.01-.5,0-15.65-11.11-23.01-23.76-23.01h-35.5Zm46.66,23.51c-.2,10.72-6.56,12.58-15.92,12.58h-18.17v-25.17h18.17c9.36,0,15.72,1.87,15.92,12.58Z"/>
  <path class="cls-1" d="M352.54,185.36h-38.44v47.03h12.58v-12.29h20.27l7.9,12.29h14.82l-.66-1h.66l-8.5-12.89c6.26-2.53,10.1-7.95,10.1-15.24,0-.14-.02-.28-.02-.42,0-.19,.02-.38,.02-.58,0-10.26-7.62-16.9-18.73-16.9Zm-3.49,23.8h-22.36v-12.87h22.36c3.68,0,9.33,.02,9.62,6.47-.29,6.39-5.94,6.41-9.62,6.41Z"/>
  <path class="cls-1" d="M389.64,232.38l5.24-9.8h29.28l5.24,9.8h13.91l-.55-1h.55l-25.3-46.03h-16.98l-25.23,46.03h.55l-.55,1h13.84Zm19.92-37.28l9.39,17.67h-18.85l9.46-17.67Z"/>
</svg>