<?xml version="1.0" encoding="UTF-8"?>
<svg id="Layer_1" data-name="Layer 1" xmlns="http://www.w3.org/2000/svg" viewBox="0 0 500 500">
  <defs>
    <style>
      .cls-1 {
        fill: #0000fd;
      }
    </style>
  </defs>
  <path class="cls-1" d="M338.44,116.73l-20.55,12.67,1.15,.81-1.15,.71,6,4.23,3.7-2.46,6.95,4.9-.9,2.91,.39,.27-.39,1.25,6.43,4.53,6.17-22.8-.35-.24,.35-1.28-7.8-5.49Zm-1.76,14.56l-3.53-2.48c2.24-1.49,4.24-2.89,5.61-3.9-.55,1.59-1.22,3.62-2.08,6.38Z"/>
  <polygon class="cls-1" points="396.44 183.52 375.33 191.98 375.9 193.27 375.33 193.5 378.22 200.05 399.33 191.6 398.76 190.3 399.33 190.08 396.44 183.52"/>
  <polygon class="cls-1" points="402.72 198.46 380.63 204.1 381.02 205.52 380.63 205.62 385.82 224.19 391.15 223.68 390.73 222.19 391.15 222.15 388.02 210.98 391.31 210.14 394.46 221.41 399.58 220.1 399.18 218.68 399.58 218.58 396.82 208.73 399.5 208.05 402.82 219.91 407.94 218.61 407.54 217.19 407.94 217.09 402.72 198.46"/>
  <path class="cls-1" d="M410.45,236.9l-.87-11.04-22.82,1.64,.12,1.51h-.12s.86,10.98,.86,10.98c.55,6.99,5.67,11.58,12.72,11.07,5.85-.42,10.48-4.57,10.14-12.06,.03-.67,.04-1.37-.02-2.1Zm-10.88,5.18c-4.26,.31-6.61-1.29-6.89-4.8l-.12-1.54,12.47-.89,.22,2.81c-.31,2.95-2.59,4.21-5.68,4.43Z"/>
  <path class="cls-1" d="M388.27,254.87l-.83,6.92,.18,.02-.18,1.5,8.18,.89-.21,1.79c-.33,2.73-1.18,3.29-3.3,3.06l-.77-.08c-2.35-.26-3.76-.33-4.75-.07l-.84,7.02c.06,0,.13,0,.18-.01l-.18,1.54c1.15-.18,2.8,0,4.09,.14l1.23,.14c3.85,.42,5.18-1.45,5.85-2.57,.51,2.21,2.07,4.02,4.99,4.34,3.76,.41,6.86-2.1,7.51-7.49l1.57-13.12-.18-.02,.18-1.5-22.73-2.49Zm16.48,13.19c-.24,2.01-1.21,2.9-2.73,2.74-1.19-.13-1.83-.78-2.01-1.84l.51-4.2,4.56,.5-.34,2.81Z"/>
  <path class="cls-1" d="M401.48,303.67l2.96-8.81-.41-.31,.41-1.21-19.13-14.53-2.28,6.78,.41,.29-.41,1.23,3.21,2.27-2.37,7.05-4.54,.17-2.44,7.26,.52-.04-.52,1.56,24.59-1.71Zm-10.29-10.99c1.87,1.34,3.66,2.58,5.15,3.56-1.63,0-3.69,.05-6.39,.14l1.24-3.7Z"/>
  <polygon class="cls-1" points="374.13 325.11 377.69 319.09 377.01 318.72 377.69 317.57 371.09 314 367.52 320.02 368.21 320.39 367.52 321.54 374.13 325.11"/>
  <path class="cls-1" d="M354.55,337.48l.79,.65-.79,.87,5.09,4.19-2.8,3.1c-2.16,2.39-3.14,4.86-2.86,7.11-.26,2.2,.57,4.25,2.59,5.92,3.58,2.94,8.15,1.88,11.75-2.1l8.41-9.31-.79-.65,.79-.87-17.33-14.27-4.84,5.36Zm6.88,12.61l2.81-3.11,3.06,2.52-2.02,2.24c-1.5,1.65-2.87,1.64-3.98,.73-.37-.31-.62-.63-.76-.98,.17-.45,.46-.92,.89-1.39Z"/>
  <polygon class="cls-1" points="341.45 350.7 335.86 355.4 336.65 356.26 335.86 356.92 350.97 373.31 356.56 368.62 355.77 367.76 356.56 367.1 341.45 350.7"/>
  <polygon class="cls-1" points="316.56 376.2 327.94 368.96 329.32 370.94 319.88 376.95 320.61 378 319.88 378.47 322.82 382.68 332.99 376.2 334.03 377.68 324.04 384.03 324.78 385.09 324.04 385.56 326.98 389.76 343.8 379.06 343.07 378.01 343.8 377.54 331.1 359.36 314.34 370.03 314.89 371.2 314.34 371.55 316.56 376.2"/>
  <path class="cls-1" d="M308.17,398.35l10.68-4.33-.57-1.29,.57-.23-8.95-20.12-10.61,4.3c-5.32,2.16-8.24,6.4-7.9,11.13-.14,1.75,.17,3.59,1,5.45,2.35,5.29,8.19,8.18,15.79,5.09Zm-8.63-9.7c-.41-.92-.67-1.78-.78-2.56,.24-1.64,1.34-2.88,3.33-3.68l2.96-1.2,4.36,9.8-2.39,.97c-3.76,1.48-6.11-.24-7.48-3.33Z"/>
  <path class="cls-1" d="M262.65,392.17l.26,1.16c.55,2.5,1.81,3.56,2.97,4.06-1.04,1.06-1.6,2.47-1.37,4.22-.1,.64-.09,1.33,.08,2.09,.78,3.54,4.26,5.55,9.82,4.43l13.53-2.73-.32-1.46,.32-.07-4.73-21.36-7.14,1.44,.32,1.46-.32,.07,1.42,6.4-3.07,.62c-2.82,.57-3.65-.03-4.08-2.02l-.16-.72c-.49-2.21-.87-3.5-1.44-4.33l-7.24,1.46c.22,.39,.39,.89,.56,1.41l-.56,.11c.54,.98,.88,2.54,1.15,3.75Zm11.69,6.5l4.45-.9,.67,3-4.13,.83c-1.95,.39-3.11-.12-3.51-1.37,.31-.78,1.17-1.3,2.52-1.57Z"/>
  <path class="cls-1" d="M240.48,411.04l9.7-.15,8.28-21.99h-.58s.58-1.52,.58-1.52l-7.46,.12-1.38,4.1-9.12,.14-1.62-4.05-7.99,.13,.67,1.51h-.67s9.6,21.71,9.6,21.71Zm7.08-12.84c-.92,2.76-1.67,5.22-2.07,6.76h-.11c-.52-1.57-1.27-3.63-2.48-6.68l4.65-.07Z"/>
  <polygon class="cls-1" points="217.53 394.43 218.94 387.33 218.65 387.27 218.94 385.8 211.84 384.51 210.41 391.62 210.71 391.67 210.41 393.14 217.53 394.43"/>
  <path class="cls-1" d="M190.42,378.4l-2.93,6.87-5.09-1.98c-5.27-2.05-9.68-.88-11.51,3.42-.5,1.17-.65,2.32-.51,3.4-.43,3.41,2.02,6.4,6.34,8.08l11.93,4.64,8.64-20.24-.56-.22,.56-1.31-6.87-2.67Zm-6.75,15.81l-3.99-1.55c-1.15-.45-1.78-1.02-2.05-1.65,.02-.06,.04-.13,.06-.19,.66-1.55,2.05-1.85,3.91-1.13l3.43,1.33-1.36,3.19Z"/>
  <polygon class="cls-1" points="91.64 273.65 99.15 272.68 98.93 271.18 99.15 271.15 98.17 264.31 90.66 265.28 90.87 266.78 90.66 266.81 91.64 273.65"/>
  <path class="cls-1" d="M143.03,244.43c-1.77,3.09-4.38,4.86-7.45,5.92-3.35,1.16-4.79,4.44-5.52,7.87-.16,.76-.17,1.44-.07,2.06-.33,2.7,1.28,4.32,2.94,5.96,2.86,2.82,3.28,7.59,5.6,10.9-.17,4.21-.33,8.41-.51,12.62-.02,.44-.01,.87,0,1.3,0,.08,0,.15,0,.23-.11,2.44,.38,4.57,1.64,6.41,2.65,3.87,5.97,6.87,9.51,9.63,4.14,3.22,8.64,6.06,11.16,11.28,1.05,2.16,2.57,3.53,4.45,4.6,4.61,2.64,9.05,5.54,13.1,9.17,3.12,2.8,6.44,5.46,10.05,7.41,9.17,4.93,19.34,7.42,29.16,10.56,9.3,2.97,19.29-.96,28.7-5.43,4.11-1.96,8.21-4.5,10.09-9.85,.41-1.16,1.36-1.84,2.33-2.2,3.41-1.26,5.67-4.01,7.77-7.26,3.8-5.9,8.98-9.51,14.99-10.54,2.64-.45,5.11-1.09,7.47-2.5,10.41-6.2,20.84-12.35,31.08-18.97,5.25-3.39,9.04-8.24,11.65-14.24,1.97-4.54,3.96-8.99,7.05-12.82,.84-1.03,1.62-2.23,2.12-3.47,3.4-8.49,6.72-17.01,9.41-23.85,4.06-13.55,5.52-25.81,5.41-37.92,0-2.17-.03-4.34-.13-6.51-.16-3.86-.02-8.36-2.21-10.99-5.07-6.08-8.44-13.94-14.99-18.48-3.43-2.38-5.73-6.27-8.61-9.39-6.3-6.84-15.14-7.04-23.56-8.17-1.15-.15-2.64,.39-3.75,1.13-7.99,5.34-16.45,8.04-25.21,9.58-8.22,1.44-16.18,4.87-24.04,8.41-3.42,1.54-6.75,3.32-10.32,3.95-7.39,1.31-13.97,5.48-20.43,9.94-1.84,1.27-3.46,3.13-5.49,3.92-6.02,2.31-11.17,6.25-15.63,11.6-3.02,3.62-7.22,5.04-10.51,8.13-11.96,11.23-24.56,21.35-37.34,31.18-3.45,2.66-7.46,4.54-9.94,8.86Zm46.36-27.01c.47-.53,1.36-.91,1.91-1.27,1.17-.75,2.34-1.51,3.5-2.28,0,0,0,.02,.01,.02,.26,.3,.43,.55,.57,.79-.39,.13-.77,.5-.57,.73,.25,.29,.43,.54,.56,.78-.59,.67-1.99,.89-2.4,1.39-1.08,1.32-2.82,.91-3.59-.17Zm45.04,91.53c-2.9,2.27-5.96,4.22-8.93,6.34-10.41,7.42-20.96,14.54-31.46,21.75-.41,.28-.81,.77-1.28,.75,.4-.32,.79-.64,1.2-.91,9.19-6.29,18.41-12.52,27.57-18.89,4.14-2.87,7.98-6.36,12.26-8.94,.49-.3,1.05-1.31,1.59-.78-.28,.26-.66,.46-.93,.68Zm-24.65-97.46c.09-.28,.11-.65,.06-1.12,.13-.13,.28-.26,.4-.31,4.22-1.76,7.72-5.36,11.89-7.23,.03,.08,.04,.15,.06,.23-.41,.85-1.61,.99-2.46,1.62-2.73,2.03-5.35,4.32-7.89,6.68-.67,.63-1.37,1.19-2.09,1.72,.14-.37,.17-.87,.03-1.6Zm30.13-9.6c5.95-4.31,12.47-7.11,18.33-11.54,1.33-1.01,2.99-.68,4.19-1.2,1.46-.63,3.8-.76,4.46-3.22,.46-1.7,1.75-.92,2.52-1.36,2.29-1.31,4.54-2.13,6.26-4.79,1.04-1.61,2.44-1.6,3.8-.73-5.92,3.98-11.77,7.91-17.62,11.83-4.89,3.27-9.79,6.51-14.67,9.78-1.9,1.28-3.91,2.02-5.99,2.5-1.59,.37-3.3,.69-4.42,2.21-3.79,5.16-9.39,7.24-13.66,11.57-1.32,1.34-2.72,2.57-4.15,3.75-1.11,.92-2.2,1.42-3.21,1.15,.91-.5,1.49-1.72,2.25-2.44,.22-.21,.52-.74,.46-.82-.19-.26-.33-.5-.44-.73,.21-.22,.5-.72,.44-.8-.29-.4-.48-.75-.61-1.07,.55-1.02,2.27-1.34,2.95-1.81,6.3-4.25,12.93-7.81,19.11-12.28Zm-14.3,5.45c1.14-2.26,3.18-3.11,4.65-4.16,7.88-5.63,15.75-11.3,23.9-16.36,1.3-.8,2.35-1.17,3.44-.46-10.14,7.86-21.03,14.03-31.99,20.98Zm-1.28,22.42c.17-2.29,1.21-4.44,3.17-6.73,.74,15.38,2.16,30.14,2.32,45.63,0,1.8,.01,3.6-.02,5.42-2.11-2.52-3.18-4.81-3.35-7.57-.76-12.23-1.48-24.48-2.12-36.74Zm.41,37.42c-.07,.31-.24,.57-.61,.7-.69,.23-1.18-.36-1.22-1.01-.37-5.71-1.2-11.33-1.32-17.09,0-1.48,.04-2.97,.17-4.48,.09-1.04,.71-2.09,1.09-3.13,.2,.04,.39,.07,.59,.11,.44,8.3,.88,16.6,1.3,24.91Zm-3.62-1.84c-.04,.2-.1,.37-.2,.47-.49,.5-.88-.06-1.27-.29-.98-.58-1.44-1.53-1.54-2.84-.24-3.02-.54-6.03-.86-9.03,.34-1.77,1.99-2.87,2.76-4.56,.38,5.42,.76,10.83,1.12,16.25Zm1.15-62.49s-.07-.02-.11-.03c.05-.03,.09-.07,.14-.1,0,.05-.02,.09-.03,.13Zm-4.57,8.09c.77-.52,1.81-.51,2.35,.08-.39,.36-1.01,.6-1.37,.98-2.6,2.75-5.98,3.92-8.78,6.34-1.03,.88-2.44,1.08-4.15,.86,4.26-2.97,8.08-5.66,11.95-8.25Zm-14.24,6.46c-1.07,.83-1.77,.59-2.39,.08,1.03-.39,1.84-1.35,2.74-2.2,.55-.51,1.55-.53,2.35-.89,.65-.29,1.55-.26,2.29-.4-1.67,1.13-3.38,2.16-4.99,3.41Zm2.7,41.82c.58-.47,1.31-1.65,1.96-1.02-.32,.29-.77,.53-1.07,.78-2.46,2.08-4.96,4.06-7.49,5.99,2.19-1.93,4.34-3.94,6.6-5.75Zm25.89,16.89c-.34-.71-.47-1.65-.48-2.52-.16-14.36-.82-28.62-2.04-42.78-.22-2.58-.33-5.19-.48-7.78,.1-.59,.41-1.07,1.27-1.24,1.21-.24,2.5-.57,2.73,1.3,.26,2.15,.48,4.32,.53,6.52,0,.52,0,1.05-.04,1.57-.03,.52-.2,1.23-.52,1.53-1.03,.96-1.41,1.48-.46,1.97-.81,.84-.85,1.3,.66,1.8,.68,.22,.87,.9,.91,1.67,0,.11,0,.23,0,.33,0,.1,0,.2,.01,.3,0,.42-.03,.85-.01,1.23,.61,16,1.18,32,1.76,48-.47-4.36-2.06-8.17-3.85-11.9Zm4.04-27.68c.13-1.05,.68-1.53,2.07-1.5,.32,.99,1.03,2.11,1.05,3.34,.18,11.26,1.22,22.37,1.29,33.65,0,1.36-.01,2.73-.05,4.09-.03,1.12,.13,2.41-1.36,2.56-1.45,.14-1.31-1.25-1.36-2.31-.55-13.28-1.07-26.56-1.64-39.83Zm5.17,72c-.25-.46-.6-.79-.59-1.15,.15-7.23-2.49-13.68-2.67-20.8,0,0,0-.02,0-.02,0-.08,0-.17,0-.25,0-.42,0-.84,0-1.27,0-.29-.03-.61-.07-.94,.13-.5,.49-.9,1.31-1.03,1.15-.19,1.48,.41,1.56,1.22,0,.11,0,.21,0,.31,0,.23,.01,.46,.02,.69,0,.29-.02,.57-.02,.83,.14,6.67,.28,13.35,.84,19.94,.03,.37,.09,.75,.14,1.13-.07,.43-.22,.88-.51,1.35Zm1.09-30.38c.03-.29,.07-.58,.07-.83,.03-1.59,.03-3.17,0-4.75-.05-11.31-1.3-22.41-1.3-33.72,0-.41-.06-.84-.11-1.27,.13-.63,.48-1.21,1.34-1.65-.29-.36-.43-.77-.47-1.22,.14-.11,.29-.21,.47-.3-.23-.28-.36-.6-.42-.93,.14-1.02,.42-2.09,.23-3,.15-1.14,.12-2.22-.97-2.94-.21-.14-.41-.49-.4-.77,.07-2.71-.53-5.33-.64-8,.04-.82,.14-1.65,.34-2.48,.29-1.17,2.37-2,1.35-3.37,.25-.36,.38-.75,.2-1.19,.61-.35,1.28-.5,1.95-.81,.43,3.4,.54,6.81,.56,10.22,0,1.54-.02,3.09-.03,4.62,0,.23,0,.45,0,.67,0,.28,0,.57,0,.85-.07,11.53,1.42,22.74,1.77,34.18,.15,4.89,.28,9.79,.47,14.68-.14,1.64-.96,2.54-2.68,2.79-1.13,.16-1.57-.21-1.72-.78Zm3.92,22.54c-.11,.69-.11,1.37,.14,1.99,.23,.55,.37,1.08,.44,1.6-.23,1.76-1.26,3.43-2.66,5.28-1.04-5.6-1.16-10.94-1.24-16.26,.1-1.48,1.16-1.71,2.18-2,1.16-.32,1.56,.36,1.67,1.52,.09,.9,.21,1.8,.27,2.71-.04,.67-.15,1.34-.38,2.03-.35,1.04-.64,2.15-.42,3.14Zm4.56-17.77c-1.75,.66-1.55-1.35-1.71-2.08-.95-4.45-.5-9.23-.82-13.84-.67-9.81-1.13-19.67-1.76-29.49-.75-11.69-.39-23.57-1.34-35.22,.16-.82,.6-1.56,.89-2.37,.37-1.03,1.72-2.6,.91-3.33,.44-.98,.48-1.84-1.44-1.9,1.19-.6,3.56,.1,3.73,1.35,.38,2.79,.61,5.6,.64,8.52,.04,3.93,.28,7.87,.42,11.81,.13,3.75,.35,7.48,.51,11.22-.09,.68-.37,1.29-1.25,1.69-.82,.38-1.36,1.05-.08,1.34,.11,.02,.2,.04,.29,.06-.07,.04-.12,.08-.2,.12-.52,.24-.92,.6-.83,.9-.5,.26-.87,.61-.48,1.37,.08,.15,.16,.23,.25,.29-.37,.25-.58,.6-.25,1.23,.09,.18,.2,.27,.32,.32-.47,.4-.77,.9-.7,1.72,.02,.22,.08,.36,.18,.45-.15,.29-.22,.64-.18,1.07,.05,.55,.36,.61,.77,.53-.02,.09-.05,.18-.07,.29,.39,.03,.75,.09,1.07,.2-.48,.24-.98,.44-1.07,1.32,1.57,.12,2.58,.72,2.59,3.01,.04,12.71,.29,25.39,.41,38.09,0,.17,.03,.36,.06,.56-.13,.3-.37,.57-.88,.76Zm.93-71.39c0-.51,0-1.02,.02-1.53,.02-.95,.42-1.55,1.28-1.56,.73,0,1.9-.48,1.98,.66,.34,4.49,.58,9,.62,13.42,0,1.21,0,2.41-.04,3.6-.32,1.36-1.02,1.52-1.72,1.67-.81,.18-1.37-.15-1.42-1.09-.28-5.05-.67-10.08-.71-15.17Zm1.58,69.67c.01-.19,.02-.37,.02-.53-.29-12.87-.46-25.76-.67-38.65,0,0,0-.01,0-.02,.06-.99,.33-1.92,1.37-2.7,.53-.4,.51-.68-.51-1.07,.14-.15,.31-.31,.51-.45,.4-.3,.48-.53,.08-.79,.66-.42,1.24-.91,1.66-1.9,.1,2.35,.15,4.62,.16,6.86-.02,2.33-.08,4.63-.2,6.93-.13,2.46-.16,4.91-.14,7.34-.02,6.5,.37,12.94,.38,19.43-.02,1.53-.11,3.07-.23,4.61-.11,1.55-.16,4.02-1.43,4.13-.69,.06-.98-.3-1.08-.84,.05-.49,.11-.98,.1-1.37,0-.33-.01-.66-.02-1Zm.99,31.8l-.83,.1c-.04-3.78-.09-7.56-.1-11.35,.03-2.63,.39-5.29,.32-7.9,.03-1.19,0-2.38-.15-3.55,.28-1.17,1.37-1.87,2.85-2.8-.03,.85-.03,1.7-.02,2.54-.05,3.82,.31,7.55,.36,11.26-.06,3.89-.58,7.77-2.41,11.71Zm7.15-19.2c-.04,.47-.15,.94-.38,1.22-1.51,1.83-1.84,4.01-2.25,6.25-.99-7.02-.87-14.22-1.03-21.34-.16-7.19-.54-14.34-.6-21.54,0-1.98,.02-3.97,.08-5.97,.13-3.94,.17-7.86,.15-11.78,0-11.42-.47-22.77-.5-34.19,0-.91-.15-1.83-.22-2.73,0-.1,.02-.2,.03-.3,.2-1.32-.5-3.3,2.17-3.78-.84,.03-1.43-.11-1.86-.36,.26-.53,.79-.97,1.86-1.16-3.04,.1-2.88-1.96-2.97-3.78,.25-.96,1.21-1.02,2.03-1.42,1.63-.79,1.74-.05,1.79,1.54,.56,19.44,1.35,38.83,1.76,58.29,.03,1.58,.05,3.16,.05,4.75,0,8.59-.32,17.22-.31,25.81,0,3.5,.04,7,.17,10.48Zm1.83-31c-.16-8.93-.37-17.14-.45-25.37-.13-12.49-.92-24.84-1.67-37.21-.14-2.27-.16-4.56-.2-6.84,.05-.91,.27-1.79,.97-2.45,.53-.5,1.27-1.02,1.87-1.03,.43,0,.59,.23,.65,.54,0,.25,.01,.49,.02,.74-.01,.2-.03,.39-.02,.55,.6,21.59,.99,43.22,.98,64.91-.02,1.98-.25,3.99-2.15,6.15Zm3.7-17.17c0-.99,.01-1.97,0-2.94,.02-9.27-.55-17.93-.59-26.65-.04-8.24-.31-16.43-.7-24.6,0-.13,0-.27,0-.4,0-.25,0-.5,.02-.75,.02-.63,.36-1.09,.9-1.26,.68-.22,1.22,.09,1.36,.78,.16,.76,.2,1.58,.2,2.39-.04,3.45-.05,6.89-.04,10.33,.03,11.55,.33,23.07,.88,34.54,.02,.52,.05,1.05,.06,1.57-.07,2.19-.51,4.45-2.09,7Zm-1.12-59.84c4.31-2.97,8.66-5.98,13.14-9.07-1.85,2.52-4.84,5.7-6.88,7.16-1.96,1.4-4.12,1.56-6.26,1.9Zm7.13,2.8c-.13,10.95-.31,21.91-.49,32.87-.08,4.87,.1,9.73-1.62,15.2-.96-2.77-.76-5.4-.82-7.89-.31-12.69-.5-25.4-.7-38.1,.02-.5,.09-.99,.27-1.4,.47-1.03,1.52-1.29,2.37-1.36,.63-.05,.89,.23,.98,.63,0,.02,0,.03,0,.05Zm2.09,39.08c-.35,.02-.7,.05-1.05,.07,.11-10.35,.24-20.71,.33-31.06,0-.46,0-.93,0-1.39,0-.04,0-.09,0-.13,.02-2.47,0-4.94-.09-7.39,.14-1.89,1.01-3.46,2.99-5.21-.61,15.53-.18,30.26-2.18,45.12Zm4.08-9.02c-.83-.41-1.15-.87-1.27-1.31,.17-11.35,.41-22.71,.57-34.06,.02-1.56,.49-2.56,2.41-3.24-.77,12.93-.03,25.46-1.71,38.61Zm-21.04-31.46c-1.96,1.25-4.1,1.66-6.23,2.16,12.47-8.43,25.08-16.46,37.48-25.04-.83,1.08-1.63,2.2-2.42,3.34-1.17,1.7-3.62,2.87-5.53,4.17-7.71,5.25-15.48,10.37-23.3,15.37Zm31.47,72.96c-.24,.7-.68,1.22-1.38,.81-.03-.02-.06-.04-.09-.06,1.05-3.3,1.54-6.03,1.41-8.45,.17-3.64-.9-6.56-3.38-9.55,.53,.17,.88,.1,.88-1,0-.33-.13-1.25,.26-.9,1.6,1.42,3.69-1.55,5.04,.59,.59-1.43-.31-1.7-.77-2.22,.28,.11,.54,.32,.77,.7,.09-.22,.14-.41,.17-.58,.82,.52,1.33,.93,1.55,1.41-.2,.71-.61,1.63-1.21,2.93-1.28,2.79-2.26,5.5-2.04,8.44-.05,.92-.01,1.85,.17,2.81,.02,.12,.03,.24,.04,.36-.19,1.59-.89,3.16-1.42,4.71Zm21.36-15.97c-2.26,2.04-4.28,3.86-6.3,5.68-1.71,1.54-3.4,3.11-5.13,4.62-.62,.54-1.33,.72-1.86,.29,.15-.15,.31-.28,.45-.4,4.05-3.41,7.54-7.94,12.83-10.19Zm-6-87.44c0-.67,0-1.35,0-2.02,.01-1.43,1.38-2.17,2.54-3.6,.21,6.04,.41,11.34,.54,16.66,0,.15,.04,.33,.08,.51-.13,.19-.35,.34-.73,.42-.95,.21-2.12-.22-2.17-1.55-.13-3.47-.24-6.94-.26-10.42Zm6.96,12.87c-.09,.38-.32,.68-.87,.74-.99,.11-1.08-1.03-1.11-1.9-.25-6.3-.48-12.61-.7-18.92,.08-.67,.36-1.21,1.23-1.36,.34,.16,.46,.43,.5,.74-.02,.87-.03,1.73-.02,2.59-.07,6.11,.7,12.06,.98,18.1Zm7.5,76.38c2-1.64,4.12-2.98,6.32-4.48-.33,.49-.81,.85-1.17,1.21-4.05,3.98-8.17,7.85-12.28,11.74-.47,.45-1.01,.82-1.55,1.15-.79,.48-1.47,.35-1.96-.34,.23-.26,.55-.48,.8-.72,3.14-3.09,6.5-5.8,9.85-8.55Zm-26.36-88.98c3.38-2.19,6.75-4.38,10.16-6.59-3.28,2.72-7.24,5.29-10.16,6.59Zm-.43,121.05c1.45-.13,2.89-.26,4.34-.45-.55,.15-1.1,.36-1.65,.58-.86,.35-1.7,.77-2.56,1.06-.6,.2-1.01,.01-1.22-.46,.19-.42,.55-.68,1.09-.73Zm4.54,7.6c-.13,0-.27,0-.4,.01,.57-.26,1.12-.61,1.62-1.23-1.79-.85-3.3,.22-4.83,.8-.62,.23-1.49,.84-1.95,.47,.42-.4,1.19-.51,1.72-.67,1.9-.58,3.81-1.09,6.29-1.78-.72,.92-1.55,1.75-2.46,2.41Zm2.64-2.64c-1.14-.57-2.2-.61-3.21-.46,1.04-.29,2.16-.59,3.44-.95-.77-.44-1.5-.62-2.21-.65,.89-.32,1.77-.75,2.59-1.47-.49-.31-.97-.47-1.46-.54,.5-.26,.99-.57,1.46-.98-.7-.44-1.4-.59-2.09-.58,.86-.15,1.71-.32,2.57-.55,.59-.16,1.1-.1,1.23,.75-.2,1.8-1.06,3.75-2.32,5.42Zm3.39-17.32c.1-.08,.2-.16,.3-.22,4.17-2.4,7.77-5.81,11.45-9.07,.08-.07,.18-.1,.35-.13-3.2,4.08-6.45,7.27-10.08,9.98-1.08,.8-1.51,.02-2.02-.57Zm12.31-3.53c-3.52,3.77-7.47,6.97-10.97,11.52-.04-.28-.04-.53-.06-.79,.2-2.29,1.27-3.76,3.03-5.03,2.34-1.68,4.65-3.49,6.62-5.81,.48-.57,1.17-1.29,1.82-.69,.04,.04,.06,.08,.09,.11-.16,.26-.36,.5-.54,.69Zm.71,12.05c-.05-.19-.08-.36-.1-.53,.21-.11,.32-.28,.2-.64-.05-.13-.08-.26-.11-.39,.36-1.15,1.53-1.78,2.43-2.6,4.92-4.51,9.85-9.01,14.78-13.5,.14-.13,.28-.3,.43-.44-3.46,6.53-10.97,14-17.63,18.1Zm19.37-22.71c-3.84,2.68-7.3,6.15-10.99,9.16-.65,.53-1.52,2.18-2.4,.56-.03-.05-.04-.1-.06-.15,.27-.57,.79-1.04,1.21-1.46,3.62-3.52,7.34-6.91,10.98-10.4,2.14-2.05,3.94-4.63,6.67-6.29-.92,3.55-2.33,6.42-5.42,8.58Zm5.27-11.88c-4.43,3.9-8.81,7.87-13.19,11.85-1.62,1.47-3.16,3.07-4.77,4.54-.55,.5-1.26,1.04-1.83,.23-.03-.04-.04-.09-.07-.13,.08-.15,.18-.29,.3-.44,.89-1,1.69-2.11,2.64-3.01,5.27-4.98,10.57-9.91,15.85-14.87,.49-.47,.93-.95,1.59-.78,.38,.14,.58,.45,.69,.82-.18,.67-.6,1.23-1.22,1.78Zm10.51-53.87c-.05,13.35-1.37,32.64-3.1,38.36,1.55-14.75,2.11-29.44,2.11-44.36,0-1.87,0-3.75-.02-5.63,.68,1.11,.99,5.64,1.01,11.63Zm-2.38-12.72c-.4,12.11-.8,24.22-.99,36.32-.1,6.05-1.4,12.12-1.24,18.18,.06,2.24-.76,4.75-3.17,7.36,1.41-18.03,3.66-35.63,3.5-53.24,0-4.1-.14-8.21-.44-12.32,1.6,1.06,2.22,2.19,2.33,3.71Zm-3.71-3.46c.24,3.81,.36,7.62,.39,11.44,.02,16.19-1.59,32.49-3.05,48.78-.03,.33,.02,.75,.03,1.16-.01,.12-.02,.24-.03,.37,0,.06,0,.14,0,.21-.07,.43-.27,.77-.82,.81-.53,.04-.78-.16-.89-.48,.02-.2,.04-.39,.05-.57,.55-16.01,2.43-32.1,2.48-48.06,0-.36,0-.72,0-1.08,0-.15,0-.3,0-.44,.02-5.74-.4-11.43-.68-17.61,1.81,1.57,2.38,3.23,2.53,5.48Zm-4.21-7.74c.42,6.42,.6,12.86,.62,19.33-.03,10.95-.54,21.95-1.27,32.97-.03,.41-.2,.82-.38,1.56-.32-.39-.65-.64-.8-.86,.52-7.17,.76-14.3,.8-21.43,.1-11.25-.33-22.48-.98-33.76,1.61,.16,1.94,1.04,2.02,2.18Zm-7.42-7.29c2.87,1.37,3.82,3.53,3.85,7,.11,12.82,.61,25.59,.88,38.39,.01,.65,.01,1.3,.01,1.95-.02,2.75-.12,5.51-.18,8.27-.02,.71,.2,1.74-.72,2.02-.74,.23-1.26-.53-1.61-1.1-.49-.8-.68-1.75-.73-2.73,0-.18,.02-.36,.03-.54,.21-3.65,.29-7.28,.3-10.9,.09-9.4-.41-18.71-.85-28.03-.2-4.24-.95-8.38-1.03-12.82,0-.5,.02-.99,.05-1.5Zm-1.66,.76c1.28,15.49,2.18,31.05,2.11,46.77-.02,2.29-.06,4.59-.12,6.89-3.25-.17-3.79-.29-3.84-3.14,.07-6.98,.29-13.97,.31-20.94,.02-2.33,.01-4.65-.02-6.97-.08-4.87-.99-9.61-1.39-14.44-.38-4.68-.63-9.4-.95-14.71,2.55,1.85,3.67,3.61,3.91,6.55Zm-9.28-11.81c1.55-.15,3.16,1.1,3.4,3.2,.37,3.27,.61,6.59,.74,9.91,.26,6.32,.45,12.66,1.64,18.75,.33,1.7,.45,3.45,.48,5.21-.01,1.08-.05,2.16-.08,3.24-.07,2.26-.09,4.5-.09,6.75-.04,5.52,.1,11.02,.18,16.53,0,.02,0,.04,0,.06,0,.09,0,.19,0,.27-.33,1.46-1.14,1.59-1.86,1.13-1.47-.95-2.89-1.93-2.97-4.24,.06-2.39,.09-4.77,.08-7.14,.07-17.41-1.41-34.54-2.41-51.76-.01-.23-.04-.5-.06-.77,.09-.6,.33-1.07,.94-1.13Zm-4.37,1.75c.88-.34,1.62-.14,1.92,.81,.22,.69,.31,1.49,.32,2.26,.32,15.76,2.49,31.15,2.47,46.98-.03,3.16-.1,6.36-.16,10.03-.86-.76-1.13-1.52-1.21-2.25,.02-.69,.03-1.38,.01-2.06,.07-3.34-.25-6.48-2.18-9.03-.24-.31-.37-.7-.45-1.11,.03-.19,.06-.38,.12-.56,.66-2.06,.8-4.04,.73-6,.12-3.78-.84-7.41-.88-11.15-.1-9.13-.88-18.16-1.4-27.23,.09-.29,.28-.53,.7-.7Zm-2.96,.44c1,.19,.86,1.13,.89,1.84,.43,8.49,.84,16.98,1.24,25.48-.1,.26-.34,.45-.89,.45-.45,0-.39-.34-.99-1.31-2.39-3.79-2.82-8.14-2.85-12.61,.02-1.83,.06-3.67,.05-5.49,.02-2.08-.02-4.14-.26-6.14,.27-1.44,1.45-1.99,2.81-2.22Zm-12.41-2.3c2.77-2.33,5.66-4.58,9.06-2.86-.21,.21-.43,.4-.66,.55-6.67,4.24-13.45,8.21-19.99,12.71-5.12,3.52-10.6,6.21-15.51,10.2-2.5,2.03-3.68,2.35-6.15,1.31,.78-.69,1.54-1.37,2.36-1.89,7-4.51,13.87-9.47,21.13-13.17,3.63-1.85,6.65-4.24,9.77-6.86Zm-16.79,6.39c-3.58,2.59-7.15,5.21-10.79,7.68-6.29,4.27-12.62,8.42-18.98,12.53-4.21,2.73-8.45,5.36-12.62,8.2-4.78,3.26-9.63,6.41-14.38,9.72-1.93,1.35-3.77,2.1-5.68,1.88,2.71-1.91,5.41-3.85,8.17-5.65,13.16-8.61,26.33-17.19,39.53-25.72,4.03-2.61,8.13-5.05,12.21-7.53,.85-.51,1.71-.93,2.55-1.12Zm-43.06,17.2c-3.63,2.22-7.24,4.48-10.8,6.9-.79,.53-1.55,.66-2.39,.32,4.41-2.58,8.79-4.99,13.19-7.22Zm-19.2,15.83c7.26-4.12,14.06-9.36,21.39-13.39,9.41-5.17,18.58-11.04,27.86-16.59,1.26-.75,2.55-1.39,3.87-1.9-2.16,1.51-4.26,3.11-6.46,4.51-9.8,6.23-19.53,12.65-29.29,18.98-11.28,7.31-22.27,15.39-33.96,21.65-3.61,1.93-7.24,4.42-11.24,5.05,3.32-2.17,6.66-4.32,10.1-6.17,6.26-3.36,11.58-8.65,17.74-12.15Zm-21.34,7.99c2.03-1.25,3.81-2.21,5.67-2.13-.99,1.06-1.62,2.79-2.93,3.35-2.36,1.01-4.52,2.79-6.76,4.21-4.25,2.68-8.28,6.29-13.09,7.17,6.03-3.52,11.11-8.9,17.11-12.6Z"/>
  <path class="cls-1" d="M202.5,116.66l7.25-1.46-.32-1.46,.32-.07-1.28-5.79,5.05-1.02c5.17-1.04,8.09-3.99,7.67-8.04,.09-.77,.04-1.6-.15-2.47-.98-4.41-5.29-6.21-10.67-5.12l-12.59,2.54,.32,1.46-.32,.07,4.73,21.36Zm7.76-19c2.13-.43,3.21,.29,3.57,1.54-.3,.85-1.17,1.41-2.51,1.68l-4.21,.85-.73-3.29,3.88-.78Z"/>
  <polygon class="cls-1" points="228.59 112.25 236.01 111.74 235.9 110.23 236.01 110.22 234.4 88.43 226.97 88.94 227.08 90.45 226.97 90.46 228.59 112.25"/>
  <polygon class="cls-1" points="262.41 112.55 263.59 107.57 263.24 107.55 263.59 106.05 250.06 105.24 250.19 103.12 262.39 103.85 262.72 98.81 262.62 98.8 262.72 97.29 250.63 96.56 250.73 95.04 263.57 95.81 263.9 90.77 263.8 90.76 263.9 89.25 243.74 88.04 242.31 109.83 242.41 109.84 242.31 111.35 262.41 112.55"/>
  <path class="cls-1" d="M278.62,115.93c7.12,1.72,13.3-1.45,15.04-8,.31-1.18,.42-2.36,.34-3.52,.39-4.88-2.63-9.47-9.69-11.17l-11.24-2.72-5.62,21.18,.38,.09-.38,1.43,11.17,2.7Zm.41-17.39l3.12,.76c2.66,.67,3.87,2.14,4.11,4.02-.05,.46-.14,.93-.27,1.42-1.05,3.95-3.38,5.58-6.96,4.71l-2.73-.66,2.72-10.25Z"/>
  <path class="cls-1" d="M301.73,123.54l3.6-7.27,3.14,1.42c1.28,.58,1.99,1.1,2.28,1.7-.08,.23-.18,.48-.31,.74l-.33,.67c-1.01,2.04-1.53,3.29-1.6,4.28l.32,.14c-.18,.53-.29,.98-.32,1.38l6.7,3.02c.19-1.09,.9-2.53,1.46-3.66l.53-1.07c.74-1.49,.86-2.67,.7-3.61,.16-1.01,0-1.82-.29-2.48,1.96-.08,3.78-.99,4.84-3.15,.53-1.08,.72-2.19,.56-3.28,.41-2.75-1.35-5.53-5.58-7.44l-12.52-5.64-9.78,19.76,.62,.28-.62,1.24,6.6,2.98Zm7.67-15.5l4.12,1.86c1.02,.46,1.64,1,1.92,1.61-.03,.07-.05,.14-.08,.22-.71,1.43-2.05,1.6-3.88,.78l-3.5-1.58,1.43-2.88Z"/>
  <polygon class="cls-1" points="353.19 160.21 358.83 155.37 358.04 154.53 358.83 153.85 353.99 148.71 348.35 153.55 349.14 154.39 348.35 155.07 353.19 160.21"/>
  <path class="cls-1" d="M366.39,177.49l6.68-3.77,2.8,4.51c2.9,4.67,7.14,6.28,11.33,3.92,2.59-1.46,3.69-3.82,3.42-6.5,.2-1.93-.39-4.11-1.75-6.31l-6.55-10.57-19.68,11.12,.7,1.13-.7,.4,3.77,6.08Zm15.37-8.69l2.19,3.53c.26,.41,.42,.79,.53,1.14-.19,.48-.56,.87-1.08,1.16-1.51,.85-2.8,.29-3.82-1.36l-1.49-2.4,3.67-2.08Z"/>
  <polygon class="cls-1" points="166.62 367.17 155.13 386.08 155.82 386.46 155.13 387.6 161.58 391.17 173.07 372.26 172.38 371.88 173.07 370.74 166.62 367.17"/>
  <polygon class="cls-1" points="145.3 352.35 141.39 355.83 142.32 356.52 141.39 357.35 151.41 364.78 149.84 366.71 140.18 359.55 136.94 363.54 137.71 364.12 136.94 365.06 145.82 371.65 144.64 373.1 134.47 365.56 131.22 369.55 132 370.13 131.22 371.08 147.17 382.9 161.2 365.66 160.43 365.09 161.2 364.14 145.3 352.35"/>
  <path class="cls-1" d="M116.72,356.85l7.7,8.27,17.11-14.52-.79-.85,.79-.67-7.66-8.22c-4.88-5.24-11.86-5.93-17.15-1.44-2.57,2.19-4,5.15-3.72,8.39-.23,2.85,.86,5.98,3.71,9.04Zm5.36-10.41c3.19-2.71,6.08-2.8,8.53-.17l1.34,1.44-8.64,7.33-2.14-2.3c-.85-.94-1.33-1.85-1.51-2.73,.25-1.28,1.14-2.48,2.42-3.57Z"/>
  <path class="cls-1" d="M96.19,329.43l7.05,11.36,19.68-11.12-.7-1.13,.7-.39-3.71-5.99-7.24,4.09-1.77-2.85c-.36-.58-.61-1.07-.76-1.5,.23-.49,.71-.89,1.45-1.31l.66-.38c2.04-1.15,3.2-1.91,3.84-2.68l-.58-.94c.23-.2,.42-.39,.58-.59l-3.77-6.08c-.8,.8-2.23,1.61-3.35,2.24l-1.07,.6c-3.24,1.83-3.21,4.01-3.05,5.3,0,.03-.01,.07-.01,.1-1.8-1.45-4.17-1.98-6.7-.56-2.12,1.2-3.22,3.23-2.94,5.78-.21,1.73,.3,3.78,1.7,6.04Zm5.7-4.52c1.42-.8,2.63-.23,3.67,1.43l1.62,2.61-3.41,1.93-2.32-3.74c-.26-.42-.44-.81-.56-1.18,.17-.42,.51-.77,1-1.05Z"/>
  <path class="cls-1" d="M85.68,308.43l24.47,.52-.57-1.53h.57s-2.48-6.7-2.48-6.7l-4.51,.05-2.6-7.03,3.07-2.41-.44-1.18,.44-.34-2.66-7.2-18.52,15.58,.43,1.16-.43,.36,3.23,8.73Zm10.02-11.12l1.36,3.68c-2.39,.02-4.62,.08-6.38,.16,1.32-.97,2.94-2.2,5.02-3.84Z"/>
  <path class="cls-1" d="M96.98,251.48l.45-7.06h-.1s.1-1.52,.1-1.52l-7.66-.45,.24-3.72c.04-.58,.03-1.14,0-1.68,.29-5.34-2.28-8.88-7.09-9.16-4.72-.27-7.69,3.22-8.02,8.46l-.79,12.27h.1s-.1,1.52-.1,1.52l22.86,1.33Zm-17.14-12.21c.14-2.18,1.25-2.96,2.71-2.88,1.42,.08,2.17,.87,2.34,2.19l-.23,3.57-4.98-.29,.16-2.58Z"/>
  <polygon class="cls-1" points="99.45 226.33 100.92 219.36 100.61 219.3 100.92 217.84 78.47 213.53 77.01 220.51 77.32 220.56 77.01 222.03 99.45 226.33"/>
  <polygon class="cls-1" points="102.19 213.49 108.82 195.32 108.35 195.08 108.82 193.8 104.11 191.37 99.61 203.69 96.5 202.66 100.02 192.99 99.53 192.83 100.02 191.47 95.02 189.81 91 200.83 88.48 200 92.22 189.74 91.73 189.58 92.22 188.22 87.22 186.56 80.58 204.78 81.07 204.94 80.58 206.3 102.19 213.49"/>
  <path class="cls-1" d="M110.88,190.82l5.74-9.53c1.45-2.42,2.07-4.9,1.92-7.23,.33-4.13-1.71-7.95-5.93-10.26-5.22-2.86-11.69-1.8-15.8,5.03l-5.77,9.6,.69,.38-.69,1.15,19.84,10.88Zm-10.09-17.27c2.06-3.34,5.02-3.32,8.06-1.66,2.15,1.18,3.39,2.55,3.69,4.09-.12,.66-.39,1.34-.81,2.05l-1.6,2.66-10.25-5.62,.91-1.52Z"/>
  <path class="cls-1" d="M125.71,167.4l4.77-5.28-.79-.65,.79-.87-5.59-4.6,1.48-1.64c1.88-2.08,2.92-2.09,4.53-.76l.58,.48c1.79,1.48,2.91,2.29,3.89,2.62l4.84-5.35c-.29-.13-.6-.31-.91-.51l.91-1.01c-1.05-.47-2.32-1.51-3.3-2.32l-.94-.77c-2.61-2.15-4.64-1.73-5.91-1.21,.04-.42,.03-.85-.03-1.27,.26-1.68-.26-3.39-1.98-4.81-2.87-2.36-6.92-1.95-10.63,2.16l-9.04,10.01,.79,.65-.79,.87,17.34,14.27Zm-5.85-19.76c1.39-1.53,2.72-1.75,3.87-.8,.32,.26,.54,.54,.68,.83-.17,.45-.48,.93-.93,1.42l-2.97,3.29-2.83-2.33,2.18-2.42Z"/>
  <path class="cls-1" d="M142.26,149.23l5.87-4.4-.44-1.19,.44-.33-1.06-2.86,6.73-5.04,3.86,2.29,6.29-4.71-1.17-.64,1.17-.88-21.38-11.75-7.62,5.71,.4,1.22-.4,.3,7.32,22.28Zm5.79-17.46l-3.41,2.55c-.83-2.31-1.66-4.46-2.35-6.14,1.38,.91,3.19,2.04,5.76,3.58Z"/>
  <polygon class="cls-1" points="174.73 127.66 181.21 124.58 180.58 123.36 181.21 123.06 177.83 116.58 171.36 119.66 171.99 120.88 171.36 121.18 174.73 127.66"/>
</svg>