<?xml version="1.0" encoding="UTF-8"?>
<svg id="Layer_1" data-name="Layer 1" xmlns="http://www.w3.org/2000/svg" viewBox="0 0 1139.38 644.91">
  <defs>
    <style>
      .cls-1 {
        fill: #fff;
      }
    </style>
  </defs>
  <path class="cls-1" d="M311.08,178.73c-7.37,24.57-23.03,36.85-46.99,36.85h-49.75l-115.16,429.33H53.11L226.32,0h95.82c23.95,0,32.85,12.29,26.72,36.85l-37.77,141.88Zm-48.83,9.21L305.55,27.64h-40.54l-43.3,160.31h40.54Z"/>
  <path class="cls-1" d="M395.83,0h46.06l-173.21,644.91h-46.06L395.83,0Z"/>
  <path class="cls-1" d="M478.74,0h121.61l-7.37,25.8h-75.55l-34.09,128.06h59.88l-7.37,27.64h-59.89l-117.01,435.78h84.76l-7.37,27.64h-130.83L478.74,0Z"/>
  <path class="cls-1" d="M735.79,0c23.95,0,32.85,12.29,26.72,36.85l-152.94,571.21c-7.37,24.57-23.03,36.85-46.99,36.85h-98.58L637.21,0h98.58Zm-218.35,617.27h43.3L719.2,27.64h-43.3l-158.46,589.64Z"/>
  <path class="cls-1" d="M930.17,172.28h.92l35.93-135.43c6.13-24.56,21.79-36.85,46.99-36.85h61.73c23.95,0,32.85,12.29,26.72,36.85l-163.07,608.06h-46.07l119.77-444.99h-43.3l-119.77,444.99h-46.07l119.77-444.99h-.92l7.37-27.64Zm90.29,0l38.7-144.65h-43.3l-38.69,144.65h43.3Z"/>
</svg>