<?xml version="1.0" encoding="UTF-8"?>
<svg id="Layer_1" data-name="Layer 1" xmlns="http://www.w3.org/2000/svg" viewBox="0 0 500 500">
  <defs>
    <style>
      .cls-1 {
        fill: #7a7a7a;
      }
    </style>
  </defs>
  <path class="cls-1" d="M452.01,298.23c-.89,6.79,.42,16.42-3.04,18.66-5.07,3.27-13.61,1.84-20.59,1.34-15.32-1.09-2.8-13.91-9.73-20.42h-62c-.44-.67-.87-1.34-1.31-2,31.12-38.02,62.24-76.04,93.36-114.06,.63,.15,1.27,.31,1.9,.46,.16,2.75,.47,5.5,.47,8.25,.04,22.85,.25,45.7-.11,68.54-.11,6.66,1.64,9.09,8.6,8.76,10.72-.51,10.82-.07,10.73,10.3-.05,5.95,1.74,13.73-1.29,17.32-2.76,3.28-10.9,2.05-16.99,2.84Zm-31.72-31.12v-22.71c-5.6,7.34-10.17,13.28-14.66,19.29-.57,.76-.71,1.83-1.28,3.42h15.95Z"/>
  <path class="cls-1" d="M116.84,252.94H48.76c-.96,12.14,.09,23.08,5.66,33.09,4.48,8.05,11.07,13.62,20.92,13.13,10.25-.51,15.92-7.27,19.93-15.84,.57-1.22,.86-2.58,1.24-3.88q3.85-12.99,19.21-10.52c-3.5,16.88-9.29,32.46-23.78,42.96-14.44,10.46-31.01,8.39-43.14-5.38-17.8-20.2-21.65-44.55-18.66-70.27,1.94-16.73,7.5-32.22,19.67-44.66,13.63-13.93,33.45-14,47.09-.07,13.92,14.22,22.24,39.06,19.94,61.43Zm-18.71-17.95c-.3-12.04-4.62-22.47-11.75-28.7-9.3-8.12-20.19-7.24-27.57,2.44-5.88,7.71-8.46,16.57-8.94,26.85,15.19,0,29.79,.02,44.39-.03,1.3,0,2.6-.37,3.87-.57Z"/>
  <path class="cls-1" d="M225.07,252.79h-68.32c-1.28,14.18,.44,26.77,8.84,37.62,9.95,12.85,27.13,11.72,35.1-2.49,3.27-5.82,5.01-12.5,7.72-19.48h14.27c.77,18.03-14.67,41.83-30.93,47.95-12.04,4.52-25.24,.78-35.25-10.19-9.84-10.79-15.09-23.79-17.31-38.02-3.69-23.73-1.72-46.67,11.43-67.5,16.75-26.52,46.2-26.11,62.33,.72,2.23,3.71,4.29,7.58,5.93,11.58,5.14,12.47,7.04,25.47,6.18,39.81Zm-18.64-17.62c.17-11.83-6.03-24.87-14.39-30.65-8.86-6.13-19.25-5.08-24.82,4.09-4.76,7.83-7.51,16.89-11.63,26.56h50.84Z"/>
  <path class="cls-1" d="M335.97,188.53c.27,4.81,.52,7.16,.52,9.52,.02,37.2-.12,74.39,.13,111.59,.04,6.56-1.6,9.47-8.63,8.83-6.19-.56-12.49-.39-18.72-.03-5.42,.31-7.78-1.18-7.73-7.17,.25-29.32,.03-58.64,.24-87.96,.02-2.69,1.09-6.2,2.97-7.9,9.59-8.71,19.6-16.95,31.22-26.87Z"/>
  <path class="cls-1" d="M245.2,207.68c2.77-7.09,4.45-14.39,8.24-20.34,5.41-8.51,15.52-8.2,22.02-.4,8.19,9.83,8.41,31.4,.44,41.48-6.84,8.63-17.22,8.73-22.96-.7-3.54-5.82-5.06-12.87-7.74-20.03Z"/>
  <path class="cls-1" d="M283.78,291.35c-3.33,7.56-5.42,15.6-9.99,21.8-5.44,7.37-13.15,6.51-19.43-.29-10.04-10.89-9.93-33.59,.22-44.29,5.95-6.28,15.56-6.31,20.32,1.19,3.91,6.16,5.72,13.64,8.88,21.6Z"/>
</svg>