<?xml version="1.0" encoding="UTF-8"?>
<svg id="Layer_1" data-name="Layer 1" xmlns="http://www.w3.org/2000/svg" viewBox="0 0 500 500">
  <defs>
    <style>
      .cls-1 {
        fill: #0000fd;
      }
    </style>
  </defs>
  <path class="cls-1" d="M151.12,274.81l9.01-13.96h22.5c7.98,.17,21.29-9.83,28.79-21.63,7.75-11.83,7.3-21.76-.87-21.63h-37.8l-36.93,57.22h15.3Zm26.13-40.49h18.68c.9,0,1.39,.47,1.4,1.45,.07,.94-.35,2.09-1.23,3.45-.85,1.32-1.92,2.47-3.22,3.45-1.25,.94-2.34,1.41-3.24,1.41h-18.68l6.29-9.75Z"/>
  <polygon class="cls-1" points="213.93 274.72 250.85 217.5 235.56 217.5 198.63 274.72 213.93 274.72"/>
  <polygon class="cls-1" points="273.88 274.81 283.36 260.12 252.74 260.12 257.47 252.8 288.09 252.8 296.63 239.56 266.01 239.56 270.74 232.23 301.36 232.23 310.81 217.59 264.89 217.59 227.97 274.81 273.88 274.81"/>
  <path class="cls-1" d="M322.89,274.81c10.63,.21,27.2-13.07,37.14-28.61,10.17-15.62,10.69-28.82-.22-28.61h-34.91l-36.93,57.22h34.91Zm5.61-39.08h16.75c3.97,0,3.2,4.68-.54,10.47-3.71,5.75-9.01,10.47-12.98,10.47h-16.75l13.52-20.95Z"/>
  <path class="cls-1" d="M367.39,274.77l9.01-13.96h13.66l-1.63,13.96h16.29l1.81-16.05c3.7-1.75,7.47-4.39,11.24-7.83,3.83-3.49,7.15-7.41,9.92-11.71,7.75-11.84,7.3-21.76-.87-21.63h-37.8l-36.93,57.22h15.3Zm26.13-40.49h18.65c1.87,0,1.96,2.17,.2,4.9-.85,1.32-1.92,2.47-3.22,3.45-1.25,.94-2.34,1.41-3.27,1.41h-18.65l6.29-9.75Z"/>
  <path class="cls-1" d="M411.84,274.81h17.22l9.41-9.79h19.64l-3.23,9.79h17.22l15.88-57.22h-18.18l-57.97,57.22Zm50.85-23.76h-10.77l16.31-16.9-5.54,16.9Z"/>
  <path class="cls-1" d="M93.68,237.63c2.22-1.62,3.94-1.87,6.85-.95,11.69,3.72,23.54,7.16,35.33,10.69,.67,.2,1.41,.28,2.11,.41,.13-.14,.27-.29,.4-.43-7.73-7.84-15.45-15.67-23.65-23.98,3.23-1.04,5.65-1.97,8.19-2.61,10.1-2.54,20.25-4.97,30.36-7.49,1.68-.42,3.26-1.09,4.88-1.64-.11-.23-.21-.47-.32-.7-1.59,0-3.19-.05-4.78,0-14.27,.52-28.55,.93-42.8,1.68-3.74,.2-6.22-.44-8.66-2.59-4.34-3.85-9.06-7.45-13.83-11.33-.57,.81-.91,1.27-1.21,1.74-2.85,4.47-5.59,8.99-8.61,13.39-.58,.84-2.19,1.67-3.44,1.78-15.09,1.34-30.21,2.52-45.31,3.79-6.27,.53-12.53,1.16-18.8,1.74,0,.21-.01,.43-.02,.64,20.43,3.07,40.86,6.14,62.38,9.37-7.15,9.82-15.34,18.35-22.95,27.16-7.7,8.92-15.45,17.81-23.17,26.71,.22,.13,.43,.27,.65,.4,2.28-1.59,4.59-3.15,6.84-4.77,19.87-14.33,39.76-28.63,59.54-43.03Z"/>
</svg>