<?xml version="1.0" encoding="UTF-8"?>
<svg id="Layer_1" data-name="Layer 1" xmlns="http://www.w3.org/2000/svg" viewBox="0 0 500 500">
  <defs>
    <style>
      .cls-1 {
        fill: #0000fd;
      }
    </style>
  </defs>
  <path class="cls-1" d="M428.33,199.55h.04s-2.57-1.41-2.57-1.41c-40.31-22.09-105.13-35.43-173.36-35.68-.67,0-1.35,0-2.04,0-.14,0-.28,0-.42,0-.56,0-1.11,0-1.67,0,0,0,0,0,0,0-23.69,.09-46.68,1.67-68.32,4.61-41.31,5.62-77.68,16.2-104.55,30.81,0,0-.01,0-.02,.01l-2.55,1.38h.04c-26.1,14.8-39.87,32.25-39.87,50.59,0,.15,.01,.31,.01,.46,0,.18-.01,.36-.01,.54,0,20.68,18.01,40.58,50.82,56.26h-.05s3.14,1.44,3.14,1.44c40.75,18.65,99.57,29.47,161.36,29.69,.68,0,1.38,0,2.07,0s1.38,0,2.06,0c0,0,0,0,0,0,11.59-.04,23.07-.46,34.35-1.23,11.28-.77,22.36-1.89,33.13-3.35,1.8-.24,3.58-.5,5.36-.76,2.07-.31,4.13-.63,6.17-.96,31.33-5.05,59.65-13.01,82.35-23.4,0,0,.02,0,.03-.01l3.11-1.42h-.05c32.81-15.69,50.83-35.59,50.83-56.28,0-.18,0-.36-.01-.54,0-.15,.01-.31,.01-.46,0-18.22-13.61-35.58-39.39-50.31ZM109.15,251.86c-2.38,.67-4.68,.68-6.51,.68h-10.17c-.01-.23-.02-.46-.03-.68h16.7Zm-16.68-3c.15-3.46,.65-6.9,1.57-10.3h18.38c2.69,0,6.41,0,6.79,2.63-.13,1-.62,2.27-1.6,3.9-.95,1.57-1.98,2.8-3.05,3.77h-22.09Zm7.13,15.41c10.38,0,20.6-4.7,27.24-12.41h8.95c-4.18,8.23-8.37,16.46-12.55,24.69h.51c-.17,.33-.34,.67-.51,1h15.08c3.84-8.56,7.68-17.13,11.51-25.69h9.37c-3.33,8.23-6.66,16.46-9.99,24.69h.4c-.13,.33-.27,.67-.4,1h38.76c1.69,7.05,4.07,13.79,7.08,20.11-25.2,.8-48.84,2.13-70.27,3.96-15.71-11.11-25.91-23.83-30.14-37.36h4.97Zm68.53,2.13c1.04-3.03,2.09-6.06,3.13-9.09h13.77c.17,3.06,.47,6.09,.87,9.09h-17.77Zm6.66-19.32c1.04-3.03,2.09-6.06,3.13-9.09h7.55c-.31,3.01-.51,6.04-.59,9.09h-10.09Zm-5.46-20.24l-8.92,22.03h-9.24c3.14-7.01,6.28-14.02,9.42-21.03h-.45c.15-.33,.3-.67,.45-1h-12.09c-3.73,7.34-7.46,14.69-11.2,22.03h-8.21c.61-.9,1.19-1.81,1.7-2.77,2.04-3.82,2.94-7.16,2.86-9.92,.32-5.85-3.54-9.34-10.88-9.34h-23.98c4.01-7.38,9.84-14.46,17.44-21.06,22.74,2.17,48.18,3.75,75.66,4.69-1.98,5.23-3.57,10.71-4.72,16.37h-17.84Zm-49.81-23.76c25.97-20.75,66.79-34.13,112.21-37.02-16.24,6.42-30.23,21.11-38.68,41.45-26.62-.89-51.32-2.38-73.53-4.43Zm-38-5.11c.66-.33,1.32-.66,2-.99,.65-.32,1.32-.63,1.98-.94,.68-.32,1.36-.64,2.05-.96,.68-.31,1.36-.62,2.05-.92,.7-.31,1.4-.62,2.11-.93,.7-.3,1.41-.6,2.12-.9,.72-.3,1.43-.6,2.16-.9,.72-.29,1.45-.59,2.19-.88,.74-.29,1.47-.58,2.22-.87,.75-.29,1.5-.57,2.25-.85,.75-.28,1.5-.56,2.26-.83,.77-.28,1.54-.56,2.32-.83,.77-.27,1.53-.54,2.31-.8,.79-.27,1.59-.54,2.39-.81,.78-.26,1.57-.52,2.35-.77,.81-.26,1.63-.52,2.44-.78,.8-.25,1.6-.5,2.41-.74,.83-.25,1.66-.5,2.5-.75,.81-.24,1.63-.48,2.46-.72,.85-.24,1.69-.48,2.55-.72,.83-.23,1.66-.46,2.5-.69,.87-.23,1.73-.47,2.61-.7,.84-.22,1.69-.44,2.54-.65,.88-.22,1.76-.45,2.65-.67,.86-.21,1.73-.42,2.6-.63,.89-.21,1.78-.42,2.68-.63,.88-.2,1.76-.4,2.64-.6,.91-.2,1.81-.4,2.73-.6,.89-.19,1.79-.38,2.68-.57,.92-.19,1.84-.38,2.77-.57,.91-.18,1.82-.36,2.73-.54,.93-.18,1.86-.36,2.8-.54,.92-.17,1.84-.34,2.77-.51,.94-.17,1.88-.34,2.83-.51,.94-.16,1.88-.32,2.82-.48,.95-.16,1.89-.32,2.84-.47,.96-.15,1.92-.3,2.88-.45,.95-.15,1.9-.3,2.86-.44,.97-.14,1.95-.28,2.92-.42,.96-.14,1.91-.27,2.87-.4,.99-.13,1.98-.26,2.97-.39,.97-.12,1.93-.25,2.9-.37,.74-.09,1.49-.18,2.23-.26-29.93,6.71-55.82,18.33-73.87,33.71-12.95-1.25-24.7-2.67-35.05-4.24,.33-.17,.65-.33,.98-.5Zm-5.43,2.83c10.61,1.71,22.88,3.26,36.49,4.62-7.27,6.73-12.84,13.92-16.57,21.42h-10.17c-6.02,7.34-12.04,14.69-18.06,22.03H35.12c1.01-17.35,15.11-33.93,40.98-48.07Zm14.33,48.07h-8.46c2.61-3.43,5.22-6.87,7.83-10.3h1.95c-.8,3.4-1.25,6.84-1.32,10.3Zm.01,3.68h-11.27c.17-.23,.35-.46,.52-.68h10.73c0,.23,.02,.46,.03,.68Zm-55.32-.68h30.21c-6.61,8.07-13.23,16.13-19.84,24.2-6.36-7.78-9.88-15.93-10.37-24.2Zm11.65,25.69h13.39c3.36-4.43,6.73-8.86,10.09-13.28h21.99c3.79,13.63,13.39,26.45,28.32,37.73-11.93,1.07-23.04,2.28-33.04,3.63-18.13-8.32-31.87-17.87-40.74-28.08Zm142.69,54.21c-.74-.09-1.49-.18-2.23-.27-.92-.11-1.84-.22-2.75-.34-.74-.1-1.48-.19-2.22-.29-.91-.12-1.81-.24-2.71-.37-.74-.1-1.48-.21-2.22-.32-.89-.13-1.79-.26-2.68-.39-.73-.11-1.47-.22-2.2-.34-.89-.14-1.77-.27-2.65-.42-.73-.12-1.45-.24-2.17-.36-.88-.15-1.76-.29-2.64-.44-.71-.12-1.42-.25-2.12-.37-.88-.16-1.76-.31-2.63-.47-.7-.13-1.4-.26-2.1-.39-.87-.16-1.73-.33-2.59-.5-.7-.14-1.39-.27-2.08-.41-.86-.17-1.71-.35-2.56-.52-.69-.14-1.37-.29-2.06-.43-.85-.18-1.69-.36-2.54-.55-.68-.15-1.35-.3-2.02-.45-.84-.19-1.67-.38-2.51-.57-.67-.16-1.34-.31-2-.47-.83-.2-1.65-.4-2.47-.6-.66-.16-1.32-.32-1.97-.49-.82-.21-1.63-.41-2.44-.62-.65-.17-1.29-.34-1.94-.51-.81-.21-1.61-.43-2.41-.65-.64-.17-1.27-.35-1.91-.52-.79-.22-1.58-.45-2.36-.67-.63-.18-1.26-.36-1.89-.55-.78-.23-1.55-.46-2.32-.69-.62-.19-1.24-.37-1.86-.56-.76-.24-1.52-.48-2.27-.72-.61-.19-1.23-.39-1.84-.59-.75-.24-1.48-.49-2.22-.73-.6-.2-1.21-.4-1.81-.61-.73-.25-1.45-.5-2.18-.76-.59-.21-1.19-.41-1.78-.63-.72-.26-1.42-.52-2.13-.78-.58-.21-1.17-.43-1.74-.64-.7-.26-1.39-.53-2.08-.8-.57-.22-1.15-.44-1.72-.67-.67-.27-1.33-.54-2-.81-.57-.23-1.15-.46-1.72-.7-.64-.27-1.28-.54-1.91-.81-.02-.01-.05-.02-.07-.03,9.64-1.22,20.18-2.32,31.44-3.28,17.45,12.19,40,21.43,65.39,27.1-.05,0-.11-.01-.16-.02Zm-60.71-27.45c20.79-1.7,43.53-2.95,67.75-3.7,.07,.14,.15,.27,.22,.41,.36,.68,.72,1.35,1.09,2.01,.07,.13,.14,.26,.21,.39,.05,.09,.11,.18,.16,.27,.08,.15,.17,.3,.25,.44,.48,.83,.96,1.65,1.46,2.45,.01,.02,.03,.05,.04,.07,.05,.09,.11,.17,.17,.26,0,0,0,0,0,0,.13,.21,.26,.41,.39,.62,.39,.61,.78,1.21,1.19,1.81,.09,.13,.18,.27,.27,.41,.06,.09,.12,.17,.18,.25,.08,.11,.15,.23,.23,.34,.53,.76,1.06,1.5,1.6,2.23,.03,.04,.07,.09,.1,.13,.06,.08,.13,.17,.19,.25,.13,.18,.27,.35,.41,.53,.42,.55,.85,1.09,1.28,1.62,.11,.14,.22,.28,.33,.41,.07,.08,.13,.16,.2,.24,.07,.08,.13,.16,.2,.24,.57,.68,1.15,1.35,1.73,2,.05,.06,.11,.12,.16,.18,.07,.08,.14,.15,.21,.23,.13,.15,.27,.29,.41,.43,.45,.49,.91,.97,1.38,1.44,.13,.13,.26,.27,.39,.4,.07,.07,.15,.15,.22,.22,.05,.05,.1,.11,.16,.16,.61,.6,1.23,1.19,1.85,1.77,.07,.07,.15,.14,.22,.2,.08,.07,.16,.14,.23,.21,.13,.12,.26,.23,.39,.34,.48,.43,.97,.85,1.47,1.27,.15,.12,.29,.25,.44,.37,.08,.06,.16,.13,.23,.2,.02,.01,.03,.03,.05,.04,.02,.02,.05,.04,.07,.06,.65,.52,1.3,1.03,1.96,1.53,.1,.07,.2,.15,.3,.22,.09,.06,.17,.13,.26,.19,.12,.09,.24,.17,.37,.26,.51,.37,1.03,.73,1.56,1.09,.16,.11,.31,.22,.47,.32,.03,.02,.07,.05,.1,.07,.05,.03,.1,.07,.15,.1,.03,.02,.06,.04,.09,.06,.04,.03,.08,.05,.12,.08,.64,.42,1.28,.81,1.93,1.2,.12,.07,.25,.15,.37,.22,.09,.05,.18,.11,.27,.17,.11,.06,.22,.12,.33,.18,.54,.31,1.09,.61,1.64,.9,.15,.08,.3,.16,.46,.24,.1,.05,.2,.11,.3,.16,.02,.01,.05,.02,.07,.03,.08,.04,.17,.08,.25,.12,.62,.31,1.23,.61,1.86,.89,.15,.07,.3,.14,.45,.2,.1,.04,.19,.09,.29,.14,.1,.04,.2,.08,.29,.12,.54,.23,1.08,.45,1.63,.67-40.24-2.54-76.9-13.3-103.06-30.37Zm120.58,30.94c-.3,0-.6,0-.9-.02-.21,0-.42-.03-.64-.04-.43-.02-.86-.04-1.29-.08-.26-.02-.51-.05-.77-.08-.38-.04-.77-.07-1.15-.12-.27-.03-.54-.08-.81-.11-.37-.05-.74-.1-1.1-.16-.28-.05-.55-.1-.83-.15-.36-.06-.71-.13-1.07-.2-.28-.06-.56-.13-.85-.19-.35-.08-.69-.15-1.04-.24-.29-.07-.57-.15-.85-.23-.34-.09-.68-.18-1.01-.27-.29-.08-.57-.17-.86-.26-.33-.1-.67-.2-1-.31-.28-.09-.57-.2-.85-.3-.33-.12-.66-.23-.99-.35-.28-.11-.57-.22-.85-.33-.32-.13-.65-.25-.97-.39-.28-.12-.56-.24-.85-.37-.32-.14-.64-.28-.95-.42-.28-.13-.56-.27-.84-.4-.31-.15-.63-.3-.94-.46-.28-.14-.55-.29-.83-.44-.31-.16-.62-.33-.93-.5-.28-.15-.55-.31-.82-.47-.31-.18-.61-.35-.91-.53-.27-.16-.54-.33-.81-.5-.3-.19-.6-.38-.9-.57-.27-.17-.53-.35-.8-.53-.3-.2-.59-.4-.89-.6-.27-.19-.53-.38-.79-.57-.29-.21-.58-.42-.87-.64-.26-.2-.52-.4-.78-.6-.29-.22-.57-.44-.85-.67-.26-.21-.51-.42-.77-.63-.28-.23-.56-.47-.84-.71-.25-.22-.5-.44-.76-.66-.27-.24-.55-.49-.82-.74-.25-.23-.5-.46-.74-.7-.27-.25-.53-.51-.8-.77-.25-.24-.49-.49-.73-.73-.26-.26-.52-.53-.78-.8-.24-.25-.48-.51-.72-.76-.26-.27-.51-.55-.76-.83-.24-.26-.47-.53-.71-.8-.25-.28-.49-.57-.74-.85-.23-.27-.47-.55-.7-.83-.24-.29-.48-.59-.72-.88-.23-.29-.46-.57-.68-.86-.23-.3-.46-.6-.69-.91-.22-.3-.45-.6-.67-.9-.23-.31-.45-.62-.67-.93-.22-.31-.43-.61-.65-.92-.22-.32-.44-.64-.65-.96-.21-.32-.42-.64-.63-.96-.21-.32-.42-.65-.63-.98-.21-.33-.41-.66-.62-.99-.2-.33-.4-.67-.6-1-.2-.34-.4-.68-.6-1.03-.2-.34-.39-.68-.58-1.03-.08-.14-.16-.29-.24-.43,.75-.02,1.5-.04,2.25-.06,.94-.03,1.87-.05,2.81-.08,1.25-.03,2.51-.06,3.77-.09,.91-.02,1.82-.04,2.73-.06,1.31-.03,2.62-.05,3.93-.08,.87-.02,1.74-.04,2.61-.05,1.39-.03,2.79-.05,4.18-.07,.79-.01,1.58-.03,2.38-.04,1.55-.02,3.1-.04,4.65-.06,.64,0,1.29-.02,1.93-.02,1.8-.02,3.6-.04,5.4-.05,.4,0,.8,0,1.21-.01,4.07-.03,8.15-.04,12.23-.05v35.45Zm0-38.45c-.27,0-.54,0-.81,0-3.29,0-6.58,.02-9.86,.04-1.03,0-2.07,.01-3.1,.02-3.54,.03-7.07,.07-10.59,.12-.62,0-1.25,.02-1.87,.03-3.95,.06-7.89,.13-11.81,.22-.28,0-.56,.01-.84,.02-4.13,.09-8.24,.2-12.32,.32-.14,0-.29,0-.44,.01-3.14-6.26-5.61-12.99-7.41-20.02h20.91c.53-3.39,1.07-6.77,1.6-10.16h-.16c.05-.33,.11-.67,.16-1h-24.75c-.44-2.99-.75-6.03-.95-9.09h27.29c.29-1.82,.57-3.63,.86-5.45h8.53c-.98,8.23-1.96,16.46-2.94,24.69h.12c-.04,.33-.08,.67-.12,1h28.49v19.25Zm0-30.97h-12.72c.28-4.66,.55-9.31,.83-13.97h11.89v13.97Zm0-16.97h-11.71c.2-3.43,.41-6.87,.61-10.3h11.1v10.3Zm0-22.03h-22.56l-2.63,22.03h-8.42l.12-.79h-.16c.05-.33,.11-.67,.16-1h-28.92c.1-3.05,.32-6.08,.66-9.09h29.85c.53-3.39,1.07-6.77,1.6-10.16h-.16c.05-.33,.11-.67,.16-1h-29.6c1.23-5.64,2.87-11.1,4.94-16.29,17.7,.59,36.18,.9,54.95,.92v15.37Zm0-18.37c-18.33-.02-36.38-.32-53.7-.88,11.23-25.64,31.54-41.62,53.7-42.11v42.99Zm64.45-39.18c.98,.12,1.95,.25,2.92,.37,.99,.13,1.98,.25,2.96,.39,.98,.13,1.95,.27,2.92,.41,.97,.14,1.94,.27,2.9,.42,.97,.14,1.94,.3,2.9,.45,.95,.15,1.91,.29,2.85,.45,.96,.16,1.92,.32,2.88,.48,.94,.16,1.88,.32,2.81,.48,.95,.17,1.9,.34,2.85,.51,.93,.17,1.85,.34,2.77,.51,.94,.18,1.88,.36,2.82,.55,.91,.18,1.82,.36,2.72,.54,.94,.19,1.87,.38,2.79,.58,.89,.19,1.78,.37,2.66,.57,.92,.2,1.84,.41,2.76,.61,.88,.2,1.75,.4,2.62,.6,.91,.21,1.81,.43,2.71,.64,.86,.21,1.73,.42,2.59,.63,.89,.22,1.78,.45,2.67,.67,.85,.22,1.69,.43,2.53,.66,.88,.23,1.75,.47,2.62,.7,.83,.23,1.66,.46,2.49,.69,.86,.24,1.72,.49,2.57,.73,.82,.24,1.63,.48,2.44,.72,.84,.25,1.68,.51,2.52,.76,.8,.25,1.6,.49,2.39,.75,.82,.26,1.65,.52,2.46,.79,.79,.26,1.57,.52,2.35,.78,.8,.27,1.6,.54,2.4,.81,.77,.27,1.54,.54,2.3,.81,.78,.28,1.56,.56,2.33,.84,.76,.28,1.51,.56,2.26,.84,.76,.29,1.52,.57,2.27,.86,.74,.29,1.48,.58,2.21,.87,.74,.29,1.47,.59,2.2,.89,.73,.3,1.44,.6,2.16,.9,.71,.3,1.42,.6,2.12,.91,.71,.31,1.41,.62,2.11,.93,.69,.31,1.37,.62,2.05,.93,.69,.32,1.38,.64,2.06,.97,.66,.31,1.32,.63,1.97,.95,.68,.33,1.34,.67,2,1,.33,.17,.65,.33,.98,.5-10.47,1.55-22.32,2.95-35.33,4.18-18.06-15.48-44.02-27.16-74.07-33.89,.83,.1,1.66,.19,2.49,.3Zm.07,82.58c0,.23,0,.46,0,.68h-3.54c-.06-.23-.12-.46-.18-.68h3.73Zm-4.52-3c-.9-3.43-1.8-6.87-2.7-10.3h6.58c.37,3.41,.58,6.85,.64,10.3h-4.51Zm7.27,28.69c-.09-.33-.17-.67-.26-1h.26c-.7-2.65-1.39-5.3-2.09-7.95,.22-1.44,.43-2.88,.59-4.33h21.01c4.58,4.43,9.33,8.86,14.24,13.28h17.76c-.4-.33-.79-.67-1.19-1h1.19c-5.64-4.7-11.08-9.41-16.34-14.11,3.69-1.8,5.54-4.86,5.39-8.9,.03-.54,.01-1.1-.04-1.68h19.61c.07,8.23-.32,16.46-1.24,24.69h.1c-.04,.33-.06,.67-.1,1h16.59c.06-2,.08-4,.09-6,.01-1.53,0-3.06-.03-4.58h13.04c-4.7,12.52-14.57,24.29-29.25,34.66-21.42-1.84-45.04-3.17-70.25-3.96,3.01-6.32,5.39-13.07,7.08-20.12h3.84Zm-.74-28.69c-.03-3.45-.22-6.89-.55-10.3h13.69c3.82,0,9.73,0,12.89,7.53,.45,1.08,.69,1.99,.77,2.77h-26.8Zm24.49,3c-1.69,.67-3.98,.68-5.81,.68h-18.69c0-.23,0-.46,0-.68h24.49Zm49.25-14.44c4.4,3.81,8.93,7.63,13.54,11.44h-12.08c-.38-3.81-.87-7.63-1.46-11.44Zm2.1,19.03c-.1-1.53-.23-3.06-.36-4.59h15.42c.49,.4,.98,.8,1.47,1.2-.08,1.13-.18,2.26-.34,3.39h-16.2Zm-.36-29.62h-16.32c.04,.33,.07,.67,.12,1h-.12c.91,7.01,1.44,14.02,1.63,21.03h-20.11c-.35-1.2-.82-2.46-1.45-3.77-5.42-11.08-16.15-18.25-26.68-18.25h-14.84c-1.15-5.63-2.73-11.09-4.7-16.3,27.49-.91,53-2.45,75.83-4.58,11.81,10.28,19.34,21.75,22.26,33.68-5.33-4.27-10.55-8.53-15.62-12.8Zm-9.92-23.59c-22.31,2.01-47.07,3.47-73.71,4.33-8.44-20.38-22.44-35.09-38.72-41.52,45.58,2.9,86.48,16.34,112.43,37.19Zm-130.09-37.77c22.21,.45,42.57,16.46,53.8,42.18-17.48,.54-35.54,.82-53.72,.82h-.08v-43Zm0,46h.08c18.62,0,37.11-.29,54.97-.85,2.05,5.16,3.69,10.6,4.91,16.22h-19.83c.07,.33,.13,.67,.2,1h-.2c1.42,7.01,2.84,14.02,4.26,21.03h-8.53c-3.82-14.96-15.03-22.03-26.29-22.03h-9.56v-15.37Zm0,27.09h5.29c8.45,0,14.63,1.63,16.89,10.3h-22.18v-10.3Zm0,13.3h22.78c.04,.27,.08,.55,.11,.83,.09,.78,.14,1.51,.15,2.21-.23,9.24-7.07,10.93-16.97,10.93h-6.07v-13.97Zm0,25.69h12.07c13.98,0,25.24-6.58,24.87-20.47,.02-1.63-.11-3.37-.44-5.22h8.49c1.73,8.56,3.47,17.13,5.2,25.69h8.92c-1.79,7.04-4.26,13.77-7.41,20.03-.18,0-.36,0-.54-.01-4.02-.12-8.07-.23-12.15-.32-.32,0-.64-.01-.95-.02-3.96-.09-7.95-.16-11.95-.22-.55,0-1.1-.01-1.65-.02-3.61-.05-7.23-.09-10.87-.12-.95,0-1.91-.01-2.86-.02-3.36-.02-6.73-.03-10.1-.04-.21,0-.42,0-.63,0v-19.25Zm16.06,54.58c-.32,.12-.65,.23-.98,.35-.29,.1-.57,.2-.86,.3-.33,.11-.67,.21-1,.31-.28,.09-.57,.18-.85,.26-.34,.1-.68,.18-1.01,.27-.29,.08-.57,.16-.86,.23-.34,.08-.68,.16-1.03,.24-.29,.06-.57,.13-.86,.19-.35,.07-.7,.13-1.05,.2-.28,.05-.56,.11-.85,.15-.36,.06-.73,.11-1.09,.16-.27,.04-.54,.08-.82,.12-.39,.05-.78,.08-1.17,.12-.25,.02-.5,.06-.75,.08-.44,.04-.87,.06-1.31,.08-.21,.01-.41,.03-.62,.04-.32,.01-.65,.01-.97,.02v-35.45c4.19,0,8.38,.02,12.56,.05,.15,0,.29,0,.44,0,2.06,.02,4.12,.03,6.17,.06,.4,0,.79,.01,1.19,.02,1.8,.02,3.59,.04,5.39,.07,.56,0,1.12,.02,1.69,.03,1.62,.03,3.23,.05,4.84,.08,.69,.01,1.38,.03,2.07,.04,1.47,.03,2.94,.06,4.41,.09,.8,.02,1.59,.04,2.38,.06,1.35,.03,2.7,.06,4.04,.1,.89,.02,1.77,.05,2.66,.07,.77,.02,1.54,.04,2.31,.07-.07,.13-.14,.25-.21,.38-.21,.37-.41,.74-.63,1.11-.18,.32-.37,.63-.56,.95-.21,.36-.43,.72-.65,1.08-.19,.31-.38,.62-.58,.93-.22,.35-.44,.7-.67,1.05-.2,.3-.4,.6-.59,.9-.23,.34-.46,.68-.69,1.02-.2,.29-.41,.59-.61,.88-.23,.33-.47,.66-.71,.98-.21,.29-.42,.57-.63,.85-.24,.32-.48,.64-.73,.95-.21,.28-.43,.55-.65,.82-.25,.31-.5,.62-.75,.92-.22,.27-.44,.53-.66,.79-.25,.3-.51,.59-.77,.89-.23,.26-.45,.51-.68,.77-.26,.29-.52,.57-.78,.85-.23,.25-.47,.5-.7,.74-.26,.28-.53,.55-.8,.82-.24,.24-.48,.48-.72,.71-.27,.27-.54,.53-.82,.79-.24,.23-.49,.46-.73,.68-.27,.25-.55,.5-.83,.75-.25,.22-.5,.44-.75,.66-.28,.24-.56,.48-.84,.71-.25,.21-.51,.42-.76,.63-.28,.23-.57,.45-.86,.68-.26,.2-.52,.4-.78,.6-.29,.22-.58,.43-.87,.64-.26,.19-.52,.38-.79,.56-.29,.21-.59,.41-.89,.61-.27,.18-.53,.36-.8,.53-.3,.19-.6,.38-.9,.57-.27,.17-.54,.34-.81,.5-.3,.18-.61,.36-.91,.53-.27,.16-.55,.32-.82,.47-.31,.17-.62,.33-.93,.5-.28,.15-.55,.3-.83,.44-.31,.16-.63,.31-.94,.46-.28,.14-.56,.27-.84,.4-.32,.15-.64,.29-.95,.42-.28,.12-.56,.25-.85,.37-.32,.13-.64,.26-.96,.39-.28,.11-.57,.23-.85,.34Zm1.53,2.55c.55-.21,1.09-.44,1.63-.67,.1-.04,.19-.08,.29-.12,.1-.04,.19-.09,.29-.13,.16-.07,.31-.14,.47-.21,.62-.28,1.24-.58,1.85-.89,.08-.04,.17-.08,.26-.12,.02-.01,.05-.02,.07-.04,.1-.05,.2-.1,.3-.16,.16-.08,.32-.17,.48-.26,.54-.29,1.08-.58,1.62-.89,.11-.06,.23-.12,.34-.19,.09-.05,.18-.11,.27-.16,.13-.08,.26-.15,.39-.23,.64-.38,1.28-.78,1.91-1.19,.04-.03,.09-.06,.13-.08,.03-.02,.05-.03,.08-.05,.06-.04,.11-.08,.17-.12,.03-.02,.05-.03,.08-.05,.17-.11,.33-.23,.5-.34,.51-.35,1.02-.7,1.53-1.07,.12-.09,.25-.17,.37-.26,.09-.06,.17-.13,.26-.19,.1-.08,.2-.15,.31-.23,.65-.49,1.3-.99,1.95-1.52,.03-.02,.06-.05,.09-.08,0,0,.02-.01,.02-.02,.08-.07,.16-.13,.24-.2,.15-.13,.31-.26,.46-.39,.49-.41,.97-.82,1.44-1.25,.13-.12,.27-.23,.4-.35,.08-.07,.16-.14,.24-.22,.08-.07,.16-.14,.23-.21,.62-.57,1.24-1.16,1.84-1.76,.05-.05,.1-.11,.16-.16,.08-.08,.15-.15,.23-.23,.13-.13,.26-.27,.4-.41,.46-.47,.91-.94,1.36-1.43,.13-.15,.27-.29,.41-.43,.07-.08,.14-.16,.21-.23,.05-.06,.11-.12,.16-.18,.58-.65,1.16-1.32,1.73-1.99,.07-.08,.13-.16,.2-.24,.07-.08,.14-.16,.2-.24,.11-.14,.22-.28,.34-.42,.43-.53,.85-1.07,1.27-1.61,.13-.17,.27-.35,.4-.52,.06-.09,.13-.17,.19-.25,.03-.04,.07-.09,.1-.13,.54-.73,1.08-1.47,1.6-2.23,.08-.11,.15-.22,.23-.33,.06-.09,.12-.17,.18-.26,.09-.14,.18-.28,.27-.41,.4-.59,.8-1.2,1.19-1.81,.13-.2,.26-.4,.39-.6,0,0,0,0,0,0,.06-.09,.11-.18,.17-.27,.02-.02,.03-.05,.05-.07,.5-.8,.98-1.62,1.46-2.45,.08-.14,.16-.29,.24-.43,.05-.09,.11-.18,.16-.27,.07-.13,.14-.26,.21-.39,.37-.66,.73-1.34,1.09-2.02,.07-.13,.15-.26,.22-.4,24.22,.75,46.96,1.99,67.73,3.7-26.14,17.07-62.8,27.83-103.04,30.37Zm138.92-26.68c-.63,.27-1.25,.54-1.89,.8-.59,.25-1.19,.49-1.79,.73-.63,.26-1.26,.52-1.9,.77-.62,.24-1.24,.48-1.86,.72-.64,.25-1.27,.49-1.91,.74-.64,.24-1.28,.47-1.93,.71-.64,.24-1.29,.47-1.94,.71-.65,.23-1.31,.46-1.97,.7-.65,.23-1.31,.46-1.97,.68-.67,.23-1.34,.45-2.02,.68-.67,.22-1.33,.44-2,.66-.68,.22-1.37,.44-2.06,.66-.67,.21-1.35,.43-2.03,.64-.7,.22-1.41,.43-2.11,.64-.68,.21-1.36,.41-2.05,.61-.72,.21-1.44,.42-2.16,.62-.69,.2-1.38,.4-2.08,.59-.73,.2-1.46,.4-2.19,.6-.7,.19-1.4,.38-2.11,.57-.74,.2-1.48,.39-2.23,.58-.71,.18-1.43,.37-2.14,.55-.75,.19-1.5,.37-2.25,.56-.73,.18-1.46,.36-2.19,.53-.75,.18-1.51,.36-2.27,.53-.74,.17-1.47,.34-2.22,.51-.77,.17-1.54,.34-2.31,.51-.75,.16-1.5,.33-2.25,.49-.77,.17-1.55,.33-2.33,.49-.76,.16-1.52,.31-2.28,.47-.78,.16-1.56,.31-2.35,.47-.77,.15-1.54,.3-2.32,.44-.79,.15-1.58,.3-2.38,.44-.78,.14-1.56,.28-2.35,.42-.8,.14-1.59,.28-2.4,.42-.79,.14-1.59,.27-2.39,.4-.8,.13-1.6,.26-2.4,.39-.81,.13-1.62,.26-2.44,.38-.8,.12-1.6,.25-2.4,.37-.82,.12-1.64,.24-2.46,.36-.81,.12-1.61,.23-2.42,.34-.83,.12-1.67,.23-2.5,.34-.81,.11-1.61,.22-2.43,.32-.85,.11-1.69,.21-2.54,.32-.81,.1-1.61,.2-2.42,.29-.04,0-.08,0-.12,.01,25.39-5.67,47.94-14.9,65.38-27.09,11.28,.96,21.83,2.07,31.45,3.28-.03,.01-.06,.03-.09,.04Zm5.37-2.37c-9.99-1.35-21.1-2.57-33.05-3.63,13.95-10.53,23.26-22.41,27.52-35.04h18.07c4.58,3.53,9.24,7.06,13.99,10.58h14.23c-8.88,10.21-22.62,19.76-40.76,28.08Zm-3.2-49.19c.07-.6,.15-1.19,.19-1.79,.74,.6,1.47,1.19,2.21,1.79h-2.4Zm45.41,19.4c-11.41-8-22.34-16-32.81-23.99h43.01c-.49,8.2-3.95,16.28-10.2,23.99Zm-36.72-26.99c-3.06-2.36-6.08-4.72-9.05-7.08-2.15-12.8-9.4-25.13-21.3-36.18,13.66-1.33,26.02-2.86,36.76-4.54,25.57,14.08,39.51,30.57,40.51,47.81h-46.93Z"/>
</svg>