<?xml version="1.0" encoding="UTF-8"?>
<svg id="Layer_1" data-name="Layer 1" xmlns="http://www.w3.org/2000/svg" viewBox="0 0 500 500">
  <defs>
    <style>
      .cls-1 {
        fill: #7a7a7a;
      }
    </style>
  </defs>
  <path class="cls-1" d="M170.07,240.04c-43.74,9.41-63.17,28.94-62.47,62.81,.6,28.98,21.51,52.91,50.69,58.04,31.26,5.49,53.71-11.31,69.56-52.03,.52-.18,1.06-.56,1.55-.49,13.5,1.98,13.67,2.27,9.66,15.26-10.97,35.54-46.18,58.13-82.39,52.85-36.51-5.32-64.16-37.55-64.2-74.81-.04-38.41,28.47-71.39,65.17-75.37,13.98-1.52,14.94-.45,12.43,13.75Z"/>
  <path class="cls-1" d="M109.94,245.76c-25.69-25.34-22.77-74.41,5.64-101.93,30.45-29.51,78.48-27.82,107.37,3.78,25.23,27.6,26.26,76.41,1.47,98.2-3.19-2.87-6.45-5.8-9.64-8.68,3.12-6.36,6.44-11.94,8.69-17.92,9.66-25.63,.32-55-22.08-70.41-22.84-15.72-53-13.89-73.52,4.46-20.83,18.63-26.33,48.74-13.39,73.3q5.81,11.04-4.54,19.19Z"/>
  <path class="cls-1" d="M275.08,253.62c3.64,3.3,6.88,6.24,10.42,9.44-10.16,15.32-15.66,31.24-11.85,49.19,5.22,24.57,19.81,41.08,44.11,47.32,24.75,6.35,46.08-1.2,61.69-21.3,15.59-20.07,17.07-42.36,5.8-65.19-5.5-11.15-5.76-11.02,4.4-18.81,20.89,19.17,26.45,64.53,.33,95.65-27.27,32.49-75.6,36.24-107.2,8.1-30.26-26.95-34.3-75.45-7.71-104.42Z"/>
  <path class="cls-1" d="M319.43,272.52c2.99-13.3,3.35-13.62,14.84-13.88,25.63-.57,48.66-18.38,55.66-43.02,7.46-26.26-3.25-54.37-26.07-68.46-22.51-13.89-51.01-11.52-70.71,5.9-8.69,7.69-8.86,7.69-19.9,.63,13.35-25.9,55.03-38.25,86.54-25.65,36.53,14.61,56.03,54.87,44.62,92.13-11.35,37.05-48.17,59.93-84.97,52.35Z"/>
  <path class="cls-1" d="M323.51,221.72c-4.09,.89-8.34,1.81-13.27,2.88-.87-3.24-1.6-5.88-2.29-8.54-6.68-25.93-28.75-44.66-55.49-44.73-10.82-.03-14.06-4.97-16.1-13.47,37.05-12.52,86.87,23.67,87.14,63.87Z"/>
  <path class="cls-1" d="M212.14,166.57c8.72,9.07,8.57,10.41-.16,18.06-17.2,15.06-24.65,34.09-20.58,56.63,1.48,8.18-2.49,10.13-8.41,10.95-1.78,.25-5.18-1.82-5.74-3.51-9.43-28.86,7.74-68.95,34.88-82.13Z"/>
  <path class="cls-1" d="M261.63,176.49c13.01,2.57,12.64,2.53,11.35,14.98-2.22,21.34,5.01,39.21,21.21,53.31,8.83,7.69,8.91,7.6,1.68,17.74-26.75-8.01-48.07-55.08-34.24-86.04Z"/>
  <path class="cls-1" d="M293.98,237.81c16.26-15.87,57.07-16.15,76.99-.53-5.49,9.12-9.02,10.36-18.81,7.04-13.23-4.49-26.52-4.49-39.73,.11-9.54,3.33-11.61,2.65-18.44-6.62Z"/>
  <path class="cls-1" d="M206.66,262c-20.96,15.9-57.61,15.87-77.73,.61,5.03-8.91,9.14-10.62,17.86-7.49,13.47,4.84,27.35,5.66,40.41,.02,9.48-4.1,13.87,.58,19.46,6.86Z"/>
  <path class="cls-1" d="M189.83,276.29c8.76-6.47,14.9-6.67,22.13,.8,5.01,5.18,12.53,8.46,19.5,11.09,6.67,2.52,14.07,3.1,21.84,4.68,0,2.89,.61,6.09-.21,8.87-.59,2-3.13,4.95-4.71,4.9-24.11-.83-43.49-10.93-58.55-30.34Z"/>
  <path class="cls-1" d="M194.35,231.92c20.96,4.61,43.18,30.75,45.59,53.92-7.8-.94-14.04-2.43-18.66-10.08-4.99-8.24-10.96-16.53-18.36-22.5-7.58-6.12-8.34-13-8.56-21.34Z"/>
  <path class="cls-1" d="M322.28,246.29c-.48,21.31-23.59,49.04-45.15,54.23-.29-8.1,.1-14.74,7.52-20.63,7.09-5.63,13.83-12.83,17.95-20.78,4.45-8.57,10.64-11.52,19.67-12.82Z"/>
</svg>