<?xml version="1.0" encoding="UTF-8"?>
<svg id="Layer_1" data-name="Layer 1" xmlns="http://www.w3.org/2000/svg" viewBox="0 0 500 500">
  <defs>
    <style>
      .cls-1 {
        fill: #0000fd;
      }
    </style>
  </defs>
  <path class="cls-1" d="M457.46,366.56l-.97-1.93c-4.23-8.42-8.5-16.82-12.76-25.22-10.51-20.72-21.38-42.15-31.63-63.45-4.16-8.66-6.93-18.07-9.6-27.18-2.72-9.26-5.53-18.83-9.8-27.6-2.15-4.4-3.74-5.36-5.76-6.58-.67-.4-1.4-.85-2.24-1.48l.07-.58c-.3-.04-.6-.06-.91-.09-.08-.07-.15-.12-.22-.18-3.54-3.11-5.45-6.76-7.67-10.98l-1.78-3.35c-3.26-6.1-6.08-11.36-7.2-18.45-1.27-8.04-1.43-16.29-1.42-24.37,0-1.08,0-2.16,.01-3.23,0-1.6,.01-3.21,.01-4.82,.01-9.83-.19-19.89-2.3-29.74l-.3-1.41-1.21,.78c-5.05,3.23-10.12,6.83-15.02,10.31-9.87,7.01-20.08,14.26-30.95,19.13-8.42,3.77-16.91,3.71-25.9,3.64-1.29,0-2.58-.02-3.89-.02-5.5,0-11.16,.17-16.64,.32-11,.32-22.37,.64-33.28-.27-11.6-.97-20.54-6.87-30.01-13.12-5.96-3.93-12.12-8-19-10.72-5.65-2.23-11.7-3.03-17.55-3.8-4.42-.58-8.98-1.18-13.31-2.4-9.04-2.54-18-5.96-26.67-9.28-4.86-1.86-9.89-3.78-14.88-5.52l-1.02-.36-.28,1.04c-5.26,19.81-6.98,40.29-7.23,59.9-.02,0-.04,0-.07-.01l-.31,1.98c.05,0,.1,.02,.15,.03l-.15,.97c.12,.02,.24,.04,.36,.06-.08,10.84,.25,21.4,.67,31.4,.02,.42,.03,.83,.03,1.23-.07,6.89-1.93,11.12-4.87,14.23h-1.47v1.39c-2.34,2.01-5.18,3.57-8.26,5.26-4.94,2.72-10.55,5.8-15,11.62-5.81,7.59-9.15,17.91-12.39,27.89-2.1,6.47-4.08,12.58-6.67,17.96-7.88,16.39-18.04,30.07-28.8,44.55-4.36,5.87-8.86,11.93-13.2,18.18l-1.24,1.79,.75-.08-.75,1.08,2.17-.23c13.14-1.39,26.1-4.89,38.64-8.28,3.24-.88,6.5-1.76,9.79-2.61l.43,.24c.08-.14,.16-.28,.23-.42,10.3-2.65,20.8-4.96,31.38-5.74,11.62-.85,18.48,3.58,27.16,9.21,2.14,1.39,4.35,2.82,6.75,4.24,19.7,11.69,42.57,3.69,64.68-4.05,13.99-4.9,27.21-9.52,39.63-9.52h.12c10.53,.02,19.77,3.74,29.55,7.68,3.96,1.6,8.06,3.25,12.22,4.61,14.2,4.65,27.77,4.41,45.37-.81,3.79-1.12,7.66-2.48,11.76-3.92,13.13-4.61,26.71-9.38,39.52-7.12,11.04,1.95,21.24,7.04,31.04,12.85,.03,.07,.06,.15,.1,.22l.76,1.7,1.34-.6c2.88,1.75,5.73,3.54,8.55,5.32,12.29,7.75,25,15.76,39.23,19.21l2.1,.51-.57-1.14,.57,.14Zm-36.36-66.66c-10.48-.23-20.96-.44-31.43-.62-2.82-6.69-5.55-13.42-8.18-20.17h29.43c3.34,6.93,6.74,13.86,10.17,20.78Zm-296.8-18.39c.24-.79,.48-1.6,.71-2.4h29.79c-.25,1.26-.5,2.51-.73,3.75-1,5.25-2.03,10.66-3.7,15.64-10.51,.07-21.08,.15-31.72,.23,1.91-5.64,3.89-11.47,5.65-17.23Zm-7.55,15.6c-.19,.55-.37,1.1-.56,1.65-10.52,.09-21.11,.18-31.78,.27,2.98-6.33,5.89-12.96,8.65-19.92h29.57c-.08,.27-.16,.55-.24,.81-1.76,5.74-3.73,11.56-5.64,17.18Zm2.68-69.32c4.34,.12,8.69,.18,13.04,.18,1.91,0,3.83-.02,5.74-.03,.31,.65,.52,1.45,.58,2.42-.03,.67-.12,1.27-.27,1.79-.43,.67-.85,1.37-1.26,2.09-1.75,1.63-4.61,1.64-6.72,1.64h-19.22c2.51-3.29,5.32-5.77,8.13-8.09Zm-8.13,3.93v-4.24c1.35,.06,2.7,.12,4.05,.17-1.37,1.23-2.74,2.56-4.05,4.07Zm17.63-6.77h1.6c.08,0,.16,0,.24,0-.61,0-1.22,0-1.83,0Zm185.05,10.93h-6.14c-.82-3.68-1.62-7.32-2.42-10.93h8.99c3.16,0,8.01,.02,8.27,5.54-.05,.93-.24,1.7-.53,2.33-2.67,1.18-5.38,2.23-8.16,3.06Zm4.7,19c-2.18,.26-4.36,.48-6.54,.63-.72-3.34-1.45-6.71-2.19-10.09h2.66l6.07,9.46Zm-41.13-33.4c-.54-4.03-1.07-8.07-1.61-12.1,7.94-.02,15.87-.02,23.78,0,.44,2.01,.88,4.02,1.33,6.04h-16.67v6.07c-2.28,0-4.55,0-6.82,0Zm.19,17.55c-.15,0-.31,0-.46,0,.08-.73,.14-1.48,.16-2.27,.1,.76,.2,1.52,.3,2.28Zm-84.76,7.88c.33-2.09,.68-4.16,1.08-6.22h27.17c-.28,5.08-.59,10.16-.92,15.23-.23,0-.46,0-.69,0v-9.02h-26.64Zm-43.37-16.37c0-.2,.02-.39,.02-.6,0-.77-.07-1.5-.17-2.22,2.36-.06,4.72-.13,7.07-.22v10.23c-2.86,.03-5.72,.09-8.56,.14,1.06-1.99,1.66-4.32,1.66-6.93,0-.14-.02-.27-.02-.4Zm-.86-5.8c-.12-.34-.28-.65-.42-.98,2.38-2.99,4.53-6.1,5.91-9.94,7.5-.39,14.95-.84,22.34-1.31-.32,1-.66,1.97-1.06,2.91h-.36v.83c-1.21,2.66-2.7,5.15-4.24,7.67-1.19,.06-2.38,.11-3.57,.16v-8.66h-10.81v9.09c-2.59,.09-5.19,.17-7.79,.23Zm-15.7-25.06c-.13-1.37-.27-2.71-.4-4.02-.08-.82-.16-1.6-.24-2.4,3.03,.4,6.04,.81,9.02,1.23,3.94,.55,7.94,1.1,11.96,1.6,.16,2.05,.32,4.16,.42,6.35,.02,.37,.03,.73,.03,1.09-.04,2.78-.42,5.2-1.07,7.37-6.78,.34-13.6,.6-20.41,.77,.6-2.24,.92-4.8,.87-7.79,.01-1.31-.04-2.7-.18-4.19Zm69.65,1.92c-.05-.86-.07-1.71-.1-2.56,.2,.01,.39,.02,.59,.03,6.55,.36,13.24,.71,19.94,.92-.09,2.32-.18,4.65-.28,6.97-6.74,.23-13.49,.56-20.21,.93,.09-1.24,.14-2.51,.11-3.82,0-.82,0-1.64-.05-2.48Zm20.59,39.09h3.23v15.19c-1.39,0-2.76,0-4.15,.02,.33-5.07,.64-10.14,.92-15.21Zm-.05-43.68c-6.7-.22-13.39-.58-19.95-.94-.26-.01-.52-.03-.78-.04-.02-1.21-.02-2.42-.02-3.63,.01-1.42,.04-2.83,.09-4.25,6.86,1.19,13.84,2.36,20.87,3.09-.07,1.92-.14,3.85-.21,5.77Zm-.52,12.96c-.16,3.88-.34,7.76-.52,11.64-.86,.02-1.72,.05-2.59,.08v-6.28h-18.19c.35-1.47,.66-2.97,.88-4.5,6.79-.38,13.6-.71,20.42-.95Zm-26.33,21.56c.57-1.8,1.16-3.58,1.75-5.32,.07-.22,.15-.43,.22-.65,7.86-.38,15.79-.72,23.69-.94-.21,4.35-.43,8.71-.66,13.07h-1.78v-6.16h-23.22Zm-16.43-27.52c0-.19,.01-.38,.01-.57,0-1.85-.1-3.64-.23-5.4,6.95,.17,13.95,.51,20.8,.88,.04,1.26,.08,2.51,.15,3.78,.03,.47,.04,.93,.04,1.39-.01,1.34-.09,2.64-.22,3.92-6.57,.38-13.11,.79-19.57,1.21-.44,.03-.89,.06-1.34,.09,.23-1.53,.36-3.14,.36-4.87,0-.15-.01-.29-.01-.43Zm20.7-19.22c-7.14-1.25-14.48-2.51-21.8-3.27,.06-1.12,.15-2.25,.31-3.41,.45-3.38,.99-6.78,1.57-10.17,7.06,.99,14.01,2.84,20.79,4.72-.38,4.04-.68,8.08-.86,12.13Zm-.1,3.01c-.04,1.47-.07,2.94-.07,4.41-.01,1.23,0,2.47,0,3.71-6.91-.37-13.97-.72-20.98-.88-.05-.62-.11-1.25-.17-1.86-.27-2.92-.51-5.76-.56-8.65,7.29,.77,14.64,2.04,21.77,3.28Zm-21.55,24.55c.69-.04,1.38-.09,2.06-.13,6.27-.4,12.61-.81,18.98-1.17-.26,1.48-.57,2.93-.95,4.37h-21.06c.36-.99,.69-2,.96-3.06Zm16.85,13.33c-.65,1.91-1.29,3.85-1.89,5.85h-8.02v-5.35c.16,0,.31-.02,.47-.02,3.13-.16,6.28-.32,9.44-.47Zm-18.69-48.84c-.2,1.52-.32,3.01-.37,4.47-.17-.02-.34-.04-.52-.05-7.1-.62-14.02-1.92-20.8-3.51,.04-.25,.07-.49,.11-.75,.74-4.13,1.57-8.36,2.48-12.74,6.28,1.44,12.68,2.6,19.42,3.28,.36,.04,.72,.09,1.07,.13-.51,3.06-.99,6.12-1.4,9.17Zm-21.38,24.51c-.08-1.72-.2-3.38-.32-5,7.12,.85,14.33,1.51,21.56,1.62,.21,0,.42,.01,.63,.02,.15,1.96,.27,3.96,.29,6.01-.03,1.95-.23,3.76-.57,5.45-7.37,.47-14.8,.93-22.28,1.32,.46-1.99,.71-4.19,.71-6.64,.03-.89,.02-1.82-.02-2.79Zm20.32-17.09c.22,.02,.43,.04,.65,.06,0,3.46,.3,6.78,.59,10.03,.02,.21,.04,.42,.06,.63-.12,0-.23,0-.35,0-7.29-.12-14.6-.79-21.82-1.66-.2-2.62-.36-5.19-.38-7.8,.01-1.57,.08-3.16,.24-4.78,6.83,1.6,13.81,2.9,21,3.53Zm-4.05,42.6c1.03-.05,2.06-.1,3.09-.15v10.97h-7.81v-2.31c1.42-3.08,3.08-5.84,4.72-8.52Zm-4.72,3.09v-2.88c.57-.03,1.13-.05,1.7-.08-.57,.96-1.15,1.94-1.7,2.95Zm6.58-6.18c.42-.7,.84-1.4,1.23-2.1v2.05c-.41,.02-.82,.04-1.23,.06Zm-13.18,36c9.52-.09,18.99-.24,28.4-.4-.28,2.42-.56,4.84-.83,7.22-.35,3.13-.72,6.33-1.1,9.52h-29.55c.81-3.8,1.52-7.72,2.21-11.54,.29-1.59,.58-3.2,.88-4.8Zm.57-3c.05-.26,.1-.52,.15-.78h5.88v-15.3h7.81v15.3h14.39c-.02,.12-.03,.25-.05,.37-9.33,.16-18.74,.31-28.18,.41Zm24.65-9.86v-6.22h5.87c-.38,2.06-.73,4.13-1.05,6.22h-4.82Zm5.72,9.08h22.54c-7.58,.09-15.13,.21-22.58,.34,.01-.11,.03-.22,.04-.34Zm30.49,2.91c4.62-.04,9.24-.07,13.82-.07s9.42,.05,14.13,.11c.22,5.72,.43,11.44,.63,17.17h-29.82c.45-5.73,.86-11.47,1.24-17.21Zm76.26-65.65c-.66-3.03-1.32-6.03-1.97-9.03,7.81-.42,15.65-.02,23.45,.77,.92,2.94,1.83,5.89,2.73,8.84-8.03-.47-16.14-.75-24.2-.59Zm25.13,3.65c.96,3.18,1.9,6.37,2.84,9.55-8.32-.03-16.69-.06-25.09-.08-.75-3.4-1.49-6.78-2.23-10.14,8.15-.14,16.35,.16,24.48,.66Zm-24.52,9.48c-7.82-.01-15.67-.01-23.52,0-.39-2.87-.77-5.76-1.16-8.65,6.86-.6,13.85-1.15,20.77-1.4,.57-.02,1.13-.02,1.7-.04,.73,3.34,1.47,6.7,2.22,10.09Zm-3.24-25.12c-.6-2.75-1.2-5.49-1.79-8.21,7.16-.51,14.38-.94,21.62-1.3,1.11,3.38,2.2,6.76,3.28,10.15-7.67-.74-15.4-1.1-23.11-.64Zm-1.59,3.12c.65,2.96,1.3,5.94,1.95,8.93-.37,0-.75,.01-1.12,.03-7.04,.26-14.13,.82-21.09,1.42-.33-2.46-.66-4.93-.98-7.4,6.47-1.16,13.09-2.27,19.65-2.86,.53-.05,1.06-.08,1.59-.12Zm-20.85,22.01c-7.82,.02-15.65,.06-23.45,.12-.1-2.26-.21-4.52-.31-6.78,6.56-.39,13.09-.97,19.49-1.54,1.04-.09,2.09-.18,3.13-.28,.38,2.84,.76,5.66,1.14,8.47Zm-23.75,40.07h-12.3v-5.75c3.96,.02,7.97,.13,12.07,.28,.08,1.82,.15,3.64,.23,5.47Zm1.12-21.5h2.2c8.06,0,13.54,1.61,13.68,10.88-.03,1.05-.13,2-.3,2.86-2.57-.1-5.14-.21-7.7-.33-2.49-.11-4.91-.21-7.32-.31-.19-4.38-.37-8.74-.57-13.1Zm6.28-9.54h-6.71c-.09-1.97-.18-3.94-.27-5.91,7.9-.06,15.81-.1,23.72-.12,.04,.26,.07,.53,.11,.8,.51,3.76,1,7.53,1.51,11.29-.95,0-1.9,0-2.84-.01-3.81-4.07-9.46-6.05-15.52-6.05Zm18.76,9.06c.14,1.03,.27,2.05,.41,3.08-.39-1.1-.87-2.13-1.42-3.08,.34,0,.68,0,1.01,0Zm19.38,.48h7.97c.8,3.61,1.61,7.25,2.42,10.93h-10.39v-10.93Zm22.23-9.54h-14.1c-.45-2.03-.89-4.03-1.33-6.04,8.48,.02,16.92,.04,25.31,.08,.82,2.83,1.64,5.65,2.45,8.47-.69,.13-1.37,.26-2.06,.39-2.7-1.86-6.21-2.9-10.26-2.9Zm16.09,15.81c1.85,6.6,3.67,13.17,5.48,19.7,.07,.25,.14,.49,.2,.74-1.19,.2-2.37,.41-3.54,.61-1.58,.27-3.17,.55-4.77,.81l-5.97-9.07c5.26-2.15,8.51-6.7,8.6-12.8Zm-3.08-10.39s.09-.02,.14-.03c.03,.11,.06,.22,.1,.34-.08-.1-.15-.21-.23-.31Zm4.92,8.57s.03-.02,.05-.03c2.91-1.56,5.91-3.17,8.88-4.62,4.31-2.09,8.33-3.63,12.25-4.65l-15.76,28.77c-1.79-6.45-3.59-12.95-5.42-19.47Zm13.96,26.59l1.67-3.12c.24-.03,.48-.07,.73-.1,6.39-.81,12.71-1.05,18.87-.92,.26,1.54,.53,2.98,.84,4.27,1.82,7.54,4.3,14.53,6.37,19.99h-29.42c-1.91-6.74-3.78-13.45-5.63-20.12h6.57Zm22.78-8.42h6.9l.93,1.74c-2.51-.19-5.05-.34-7.64-.42-.07-.43-.13-.88-.19-1.33Zm-1.18-8.58c-.46-3.28-.99-6.6-1.66-9.76l5.19,9.76h-3.52Zm-.98,8.58c.06,.44,.12,.85,.19,1.28-5.68-.1-11.51,.13-17.41,.81l1.12-2.09h16.11Zm-11.55-8.58l7.47-13.97c1.32,4.19,2.18,9.09,2.89,13.97h-10.36Zm.07-22.38c-4.85,1-9.77,2.79-15.05,5.35-2.97,1.44-5.96,3.05-8.85,4.6-.58-2.06-1.16-4.12-1.75-6.18,1.41-.27,2.82-.55,4.22-.82,7.16-1.4,14.43-2.82,21.84-3.72l-.42,.77Zm-21.8-.01c-1.54,.3-3.1,.61-4.66,.91-.76-2.68-1.54-5.36-2.32-8.04,3.43,.01,6.85,.03,10.26,.04,3.87,.02,7.74,.02,11.6,.04,.65,1.43,1.44,2.77,2.45,3.94-5.86,.88-11.64,2-17.34,3.11Zm3.29-10.09c-3.7-.02-7.41-.03-11.14-.04-.92-3.14-1.85-6.27-2.79-9.41,4.48,.29,8.94,.62,13.34,.95,2.56,.19,5.13,.39,7.72,.57,.67,1.53,1.33,3.06,1.95,4.56,.33,.8,.64,1.63,.95,2.48,.11,.3,.23,.61,.35,.92-3.46-.01-6.92-.02-10.38-.04Zm-.44-11.49c-4.76-.36-9.57-.71-14.41-1.02-.88-2.91-1.78-5.82-2.68-8.72,6.2,.69,12.36,1.6,18.45,2.49,.63,.09,1.27,.19,1.91,.28,.89,2.5,1.92,4.98,2.97,7.43-2.09-.15-4.17-.31-6.23-.46Zm1.64-10.23c-6.49-.96-13.08-1.92-19.71-2.63-1.11-3.52-2.24-7.02-3.39-10.53,7.01-.33,14.04-.61,21.04-.86,.42,3.81,.99,7.63,1.91,11.42,.22,.9,.47,1.79,.74,2.68-.2-.03-.39-.06-.59-.09Zm-24.07-16.12c-1.09-3.29-2.22-6.57-3.35-9.85,8.03-2.15,15.72-5.04,23.41-8.24,.51,3.83,.84,7.66,1.14,11.44,.15,1.9,.32,3.83,.5,5.76-7.22,.26-14.47,.54-21.7,.89Zm-2.41,.12c-7.13,.36-14.24,.78-21.28,1.29-.56-2.57-1.11-5.14-1.67-7.69,6.92-.37,13.45-1.43,19.75-2.99,1.09,3.12,2.15,6.25,3.2,9.39Zm-22.87,4.4c.59,2.73,1.19,5.47,1.79,8.22-.38,.03-.75,.05-1.13,.09-6.65,.6-13.33,1.73-19.86,2.89-.38-2.9-.76-5.82-1.14-8.73,6.7-.99,13.56-1.96,20.34-2.47Zm-19.95,21.74c-.97,.09-1.95,.17-2.91,.26-6.39,.57-12.91,1.15-19.45,1.54-.03-.58-.05-1.16-.08-1.74-.06-1.26-.12-2.54-.17-3.82,6.87-.77,13.67-2,20.33-3.2,.44-.08,.88-.16,1.33-.24,.32,2.41,.64,4.81,.96,7.21Zm-2.64-9.93c-6.6,1.19-13.33,2.41-20.11,3.17-.14-3.17-.29-6.36-.43-9.56,6.94-.61,13.84-1.63,20.59-2.63,.03,0,.06,0,.09-.01,.38,2.94,.77,5.87,1.15,8.8-.43,.08-.86,.16-1.29,.23Zm-20.5,39.95c.19,4.33,.38,8.68,.56,13.03-4.05-.15-8.02-.26-11.94-.28v-12.75h11.37Zm-22.19-9.54v6.09c-.76,.02-1.51,.03-2.27,.05,.18-3.89,.35-7.77,.52-11.65,3.77-.12,7.53-.21,11.28-.26,3.98-.05,7.97-.09,11.97-.12,.09,1.96,.18,3.93,.26,5.89h-21.76Zm0,9.09v13.18h-3.08c.24-4.38,.46-8.75,.67-13.13,.8-.02,1.61-.04,2.41-.05Zm-2.96-36.27c-7.02-.72-14-1.9-20.85-3.1,.19-3.98,.48-7.95,.85-11.92,6.63,1.84,13.4,3.71,20.35,4.86-.11,3.38-.23,6.77-.35,10.16Zm-21.76-18.58c-6.68-1.85-13.54-3.66-20.55-4.67,1.15-6.48,2.46-12.94,3.78-19.31,6.51,1.98,12.68,4.99,18.67,7.97-.7,5.39-1.36,10.72-1.9,16.01Zm-22.72-4.94c-.46-.05-.91-.12-1.37-.17-6.58-.66-12.84-1.79-18.99-3.2,1.33-6.16,2.84-12.62,4.58-19.52,1.75,.26,3.49,.49,5.22,.72,4.33,.57,8.81,1.16,13.17,2.21,.41,.1,.81,.22,1.22,.33-1.34,6.48-2.66,13.05-3.82,19.63Zm-22.52-3.87c-7.38-1.78-14.63-3.93-22.07-6.16,1.02-6.58,2.07-13.25,3.41-19.9,4.69,1.68,9.45,3.31,14.23,4.72,2.97,.88,5.96,1.49,8.94,1.98-1.7,6.83-3.2,13.26-4.51,19.37Zm-.61,2.91c-.85,4.07-1.62,8.04-2.31,11.9-.1,.54-.17,1.07-.24,1.6-5.43-1.33-10.77-2.83-16.03-4.3-1.8-.5-3.61-1.01-5.42-1.51,.15-1.39,.33-2.79,.57-4.25,.53-3.18,1.03-6.4,1.52-9.55,7.39,2.22,14.59,4.35,21.92,6.12Zm-19.13,12.12c5.33,1.5,10.73,3.01,16.24,4.36-.15,1.74-.2,3.44-.19,5.11-.03,2.6,.1,5.14,.28,7.7-3.85-.48-7.68-1.01-11.46-1.54-3.17-.44-6.36-.88-9.58-1.3-.36-3.99-.61-7.75-.61-11.56,.02-1.39,.07-2.79,.17-4.21,1.73,.48,3.45,.96,5.16,1.44Zm14.76,38.08c-1.22,2.68-2.83,5.04-4.67,7.36-2.78-3.72-7.51-5.9-13.4-5.9h-2.58c.12-.24,.25-.47,.36-.72,6.78-.15,13.55-.41,20.29-.74Zm-5.86,26.97c3.57-.07,7.19-.14,10.8-.19v15.25h2.7c-.05,.27-.11,.53-.16,.8-9.27,.08-18.58,.1-27.88,0,1.13-3.88,2.36-7.71,3.74-11.43,4.48-.27,8.21-1.85,10.79-4.44Zm-1.54,18.94c4.79,0,9.56-.03,14.34-.07-.21,1.14-.42,2.29-.63,3.43-.75,4.14-1.52,8.42-2.41,12.48-.03,.14-.06,.28-.08,.41h-29.54c.77-2.73,1.52-5.48,2.24-8.18,.73-2.7,1.46-5.43,2.23-8.15,4.62,.05,9.24,.09,13.85,.09Zm11.84,24.37c.32-1.69,.66-3.42,1.01-5.13h29.81c-.04,.33-.08,.65-.12,.98-.85,6.44-2.29,12.45-4.14,18.23-9.88,.05-19.82,.11-29.81,.17,1.41-4.63,2.36-9.5,3.26-14.25Zm32.68-2.89c.1-.74,.18-1.49,.27-2.24h29.63c-.52,6.37-1.08,12.73-1.7,19.08-10.59,.03-21.24,.07-31.94,.12,1.64-5.38,2.95-10.97,3.73-16.96Zm.64-5.24c.33-2.78,.65-5.57,.96-8.3,.31-2.8,.63-5.64,.97-8.48,9.49-.16,19.17-.31,28.83-.41-.38,5.73-.79,11.46-1.24,17.19h-29.51Zm31.35,3h30.17c.22,6.35,.41,12.7,.58,19.04-10.77,0-21.58,0-32.43,.03,.61-6.35,1.17-12.71,1.68-19.08Zm30.74-38.05c2.34,.09,4.7,.19,7.11,.3,2.25,.1,4.51,.2,6.77,.29-2.09,3.95-6.56,4.8-12.38,4.8h-1.28c-.07-1.8-.15-3.59-.23-5.39Zm5.59,14.93c9.16,0,17.36-4.51,19.72-13.98,.46,0,.92,0,1.38,.01l1.87,14.28c-6.9-.02-13.78-.13-20.56-.23-1.92-.03-3.86-.06-5.8-.08h3.39Zm22.86-16.93l-.12-.91c-.6-4.56-1.21-9.11-1.82-13.66,2.14,0,4.27,0,6.42,0v14.57c-1.49,.01-2.98,0-4.47,0Zm2.54,3.02c.65,0,1.29,0,1.93-.01v13.93h10.81v-10.57h12.5c.75,3.42,1.49,6.84,2.22,10.23-9.17,.51-18.47,.67-27.75,.66l-1.87-14.26c.72,0,1.43,.02,2.15,.02Zm28.11,16.55c.16,.76,.33,1.52,.49,2.28,1.09,5.07,2.19,10.15,3.3,15.22h-29.59c-.03-.25-.06-.51-.09-.76l-2.1-16.05c9.35,0,18.73-.15,27.99-.69Zm2.45,.86c-.07-.33-.15-.67-.22-1.01,6.33-.47,12.65-1.43,18.83-2.47h.53l-.05-.08c1.31-.22,2.61-.45,3.91-.67,.48-.08,.98-.17,1.47-.25h.51l-.55,1h2.97c1.85,6.67,3.72,13.38,5.62,20.12h-29.42c-.06-.28-.11-.56-.17-.84-1.15-5.26-2.29-10.53-3.42-15.79Zm33.86,19.64c1.85,6.53,3.75,13.09,5.68,19.63-10.77-.13-21.55-.23-32.36-.32-.75-6.41-1.7-12.81-2.99-19.32h29.67Zm2.37,0h29.73c2.6,6.73,5.33,13.45,8.12,20.13-10.71-.18-21.42-.34-32.14-.47-1.95-6.55-3.85-13.11-5.71-19.66Zm52.37-25.35c2.22,7.51,4.64,15.13,7.93,22.35h-29.21c-.07-.19-.15-.37-.22-.56-2.13-5.55-4.81-12.94-6.74-20.9-.2-.84-.39-1.77-.57-2.74,2.98,.1,5.92,.29,8.81,.53l1.89,3.54h11.95l-.55-1h.55l-.54-.98c2.21,.32,4.38,.65,6.48,.99l.2-1.24Zm-10.27-29.79c3.96,8.37,6.66,17.51,9.26,26.37,.15,.53,.31,1.06,.47,1.59-2.57-.42-5.22-.82-7.95-1.2l-17.26-31.41c4.79,.83,9.85,2.37,15.48,4.65Zm-8.27-8.61c1.09,.88,2.02,1.45,2.85,1.95,1.21,.73,2.15,1.31,3.17,2.66-5.36-1.98-10.3-3.29-15.02-3.9l-.36-.65h-9.74s-.05-.07-.08-.11c6.29-.54,12.68-.63,19.18,.06Zm-3.31-3.28c-6.42-.42-12.71-.16-18.9,.51-.9-.35-1.7-.24-2.51-.03-.75,.19-1.12,.29-1.93-.42-.83-.73-1.51-1.61-2.1-2.59,7.86,.03,15.71,.06,23.57,.08,.57,.84,1.2,1.65,1.87,2.45Zm-7.32-12.21l1.77,3.33c.63,1.19,1.23,2.32,1.86,3.43-7.74-.02-15.47-.05-23.21-.08-.35-.86-.68-1.74-1-2.62-.32-.87-.64-1.73-.98-2.55-.36-.87-.74-1.74-1.11-2.62,7.51,.52,15.1,.94,22.64,1.04,.01,.02,.02,.04,.03,.06Zm-4.38-8.78c.82,1.91,1.76,3.79,2.75,5.69-7.45-.14-14.96-.58-22.38-1.1-1.04-2.38-2.07-4.8-3-7.24,7.47,1.08,15.09,2.11,22.63,2.65Zm-3.03-10.3c.41,2.61,1.05,4.96,1.84,7.19-7.53-.6-15.15-1.64-22.6-2.74-.51-1.51-.96-3.02-1.33-4.52-.8-3.31-1.32-6.67-1.72-10.03,6.77-.23,13.5-.45,20.17-.65l2.51-.08c.21,3.62,.56,7.24,1.13,10.83Zm-1.43-35.24c0,1.78,0,3.55,0,5.31,0,1.46-.01,2.93,0,4.4,0,3.87,.03,7.78,.19,11.69l-2.44,.08c-6.76,.21-13.59,.42-20.45,.66-.23-2.3-.42-4.59-.6-6.85-.3-3.67-.62-7.39-1.1-11.13,3.03-1.28,6.07-2.6,9.14-3.93,4.92-2.14,10-4.34,15.2-6.44,.05,2.07,.08,4.14,.09,6.2Zm-15.68-15.94c4.49-3.19,9.12-6.47,13.72-9.47,1.04,5.31,1.53,10.7,1.76,16.09-5.45,2.19-10.75,4.49-15.88,6.72-2.94,1.28-5.86,2.54-8.77,3.78-.5-3.1-1.17-6.2-2.1-9.27,3.82-2.56,7.57-5.22,11.27-7.85Zm-31.29,19.32c6.23-2.79,12.21-6.34,18.03-10.17,.89,2.91,1.53,5.87,2.02,8.83-7.87,3.28-15.72,6.25-23.92,8.41-.59-1.69-1.2-3.38-1.8-5.06,1.89-.52,3.78-1.17,5.67-2.02Zm-26.74,3.82c6.44,.05,12.63,.09,18.79-1.24,.61,1.68,1.21,3.37,1.81,5.06-6.2,1.5-12.61,2.52-19.4,2.85-.48-2.23-.96-4.45-1.44-6.67,.08,0,.17,0,.25,0Zm1.27,17.49c-6.73,.53-13.49,1.48-20.09,2.45-.39-3-.77-6-1.15-9,.22-.02,.44-.03,.67-.05,6.21-.46,12.64-.94,18.89-1.15,.56,2.57,1.12,5.15,1.68,7.74Zm-21.73-17.19c5.46-.16,11.11-.32,16.58-.32,.46,0,.91,0,1.36,0,.49,2.26,.98,4.52,1.47,6.79-6.11,.22-12.35,.68-18.4,1.13-.3,.02-.6,.04-.89,.07-.32-2.55-.63-5.1-.94-7.64,.28,0,.55-.02,.83-.02Zm-.46,19.95s0,0,0,0c-6.71,1-13.55,2.01-20.43,2.62-.16-3.57-.32-7.15-.48-10.73,6.61-.11,13.23-.55,19.74-1.03,.38,3.05,.77,6.1,1.17,9.15Zm-2.5-19.87c.31,2.57,.63,5.16,.96,7.74-6.45,.47-12.99,.9-19.51,1.01-.12-2.86-.25-5.7-.37-8.55,6.31,.11,12.66-.02,18.92-.19Zm-39.72,.42l.08-2.59c2.88,.9,5.9,1.55,9.09,1.81,3.17,.26,6.37,.42,9.58,.51,.12,2.87,.25,5.74,.37,8.62-3.25,.02-6.49-.05-9.7-.25-3.35-.21-6.53-.78-9.63-1.6,.07-2.17,.14-4.34,.21-6.5Zm-.3,9.52c3.09,.8,6.28,1.36,9.6,1.57,2.97,.19,5.96,.26,8.95,.26,.34,0,.67,0,1.01,0,.16,3.63,.32,7.25,.48,10.87-3.42,.26-6.84,.42-10.25,.4-3.43-.02-6.83-.32-10.2-.8,.14-4.11,.27-8.21,.4-12.3Zm-.5,15.3c3.39,.48,6.81,.78,10.29,.8,.19,0,.38,0,.57,0,3.28,0,6.55-.16,9.82-.41,.15,3.22,.29,6.41,.43,9.6-3.57,.35-7.15,.58-10.73,.58h-.03c-3.56,0-7.14-.21-10.7-.53,.12-3.35,.24-6.7,.35-10.04Zm-.46,13.04c3.6,.32,7.2,.53,10.81,.53h.03c3.63,0,7.26-.23,10.87-.58,.07,1.57,.14,3.15,.21,4.71,.01,.25,.02,.51,.03,.76-3.77,.2-7.54,.34-11.3,.36-3.61,.02-7.24-.03-10.87-.14,.07-1.88,.14-3.76,.21-5.64Zm-.32,8.63c3.15,.09,6.29,.15,9.43,.15,.52,0,1.04,0,1.56,0,3.8-.02,7.62-.16,11.43-.36,.1,2.22,.2,4.45,.3,6.68-3.96,.03-7.91,.07-11.86,.12-3.7,.05-7.42,.14-11.14,.26,.09-2.28,.18-4.56,.27-6.84Zm-18.91-49.57c.41-3.16,.82-6.33,1.21-9.51,5.46,3.57,11.1,7.04,17.35,9.31l-.07,2.21c-.07,2.32-.15,4.66-.22,6.99-6.31-1.91-12.27-4.82-18.42-7.88,.05-.37,.1-.75,.15-1.12Zm18.17,12.04c-.13,4.17-.27,8.35-.41,12.54-6.85-1.14-13.57-3.01-20.14-4.83,0,0,0,0-.01,0,.53-5.15,1.17-10.33,1.85-15.58,6,2.98,12.15,5.94,18.71,7.88Zm-36.12-32.89c5.92,2.61,11.37,6.2,16.67,9.7,.17,.11,.34,.23,.52,.34-.4,3.2-.81,6.38-1.22,9.56-.06,.46-.12,.92-.18,1.38-5.91-2.93-11.99-5.87-18.46-7.84,0-.03,.01-.05,.02-.08,.89-4.29,1.8-8.7,2.66-13.06Zm-19.05-4.51c5.7,.75,11.58,1.53,16.98,3.64-.83,4.18-1.7,8.41-2.55,12.52-.06,.29-.12,.59-.18,.89-.45-.12-.9-.25-1.35-.36-4.46-1.07-8.99-1.67-13.38-2.24-1.57-.21-3.15-.42-4.74-.65,1.14-4.47,2.37-9.12,3.7-14,.51,.07,1.02,.14,1.52,.2Zm-13.59-2.46c3.22,.9,6.53,1.47,9.81,1.94-1.32,4.86-2.54,9.51-3.68,13.97-3.05-.49-6.1-1.1-9.11-1.99-4.76-1.41-9.51-3.04-14.19-4.71,.98-4.58,2.11-9.14,3.47-13.63,4.52,1.61,9.09,3.13,13.7,4.42Zm-40.65-14.48c4.63,1.64,9.29,3.42,13.8,5.14,3.62,1.38,7.29,2.78,11,4.13-1.34,4.51-2.47,9.08-3.43,13.66-1.86-.67-3.71-1.35-5.54-2.02-6.16-2.26-12.52-4.58-18.91-6.59,.85-4.8,1.85-9.59,3.08-14.33Zm-3.6,17.26c6.32,1.98,12.63,4.29,18.75,6.53,1.87,.68,3.75,1.37,5.65,2.06-1.32,6.7-2.39,13.41-3.41,20.02-7.41-2.22-15.05-4.49-22.96-6.37l-.46,1.95c.08,.02,.15,.04,.22,.06l-.22,.94c7.9,1.88,15.54,4.15,22.96,6.38-.45,2.93-.92,5.9-1.41,8.84-.29,1.72-.5,3.38-.66,5.01-7.07-1.93-14.31-3.73-21.73-5,.19-13.25,1.07-26.88,3.27-40.42Zm-3.3,43.44c7.34,1.27,14.52,3.07,21.53,4.99-.11,1.93-.16,3.81-.14,5.68,0,3.48,.19,6.89,.49,10.38-7.14-.89-14.37-1.62-21.61-1.84-.15-4.89-.25-9.88-.28-14.94,0-1.42,0-2.83,0-4.26Zm.7,32.39c.01-.78,0-1.57-.03-2.41-.11-2.55-.2-5.15-.3-7.77,7.29,.24,14.58,.98,21.78,1.89,.12,1.27,.25,2.56,.38,3.87,.13,1.3,.26,2.64,.4,4.01,.11,1.12,.16,2.17,.18,3.17-.04,3.01-.48,5.52-1.24,7.68-7.6,.15-15.21,.17-22.78-.05,1.06-2.76,1.65-6.14,1.61-10.38Zm-2.05,11.44l-.03,.93s.02,0,.03,0l-.03,1c4.28,.13,8.57,.18,12.86,.18,2.98,0,5.97-.04,8.95-.09-.13,.22-.24,.45-.38,.67h-22.91c.56-.82,1.07-1.72,1.51-2.69Zm4.53,43.26v-10.57h21.13c-1.32,3.71-2.5,7.52-3.6,11.35-9.12-.12-18.24-.36-27.32-.78h9.79Zm16.69,3.76c-.62,2.23-1.22,4.46-1.82,6.66-.86,3.21-1.74,6.49-2.67,9.7h-29.31c1.25-3.32,2.45-6.74,3.62-10.09,.82-2.35,1.65-4.73,2.5-7.09,9.2,.43,18.44,.69,27.67,.82Zm-27.51-39.41v3.45c-1.57-.12-3.14-.27-4.7-.42,1.64-.94,3.23-1.92,4.7-3.03Zm-7.53,4.61l-.02,.17s.07,0,.1,0l-.1,.99c2.51,.26,5.03,.48,7.55,.68v10.43c-6.81-.61-13.56-1.59-20.19-3.08,3.83-4.28,8.3-6.8,12.66-9.2Zm-14.75,11.79c7.31,1.74,14.76,2.83,22.28,3.5v11.56c-.53,1.35-1.04,2.71-1.54,4.08-9.73-.48-19.42-1.17-29.02-2.13,2.23-6.23,4.8-12.17,8.29-17.01Zm-11.46,26.46c.91-2.81,1.83-5.64,2.81-8.43l-.09,.94s.07,0,.1,0l-.1,.99c9.41,.95,18.9,1.62,28.42,2.11-.66,1.85-1.31,3.71-1.95,5.55-1.36,3.91-2.77,7.94-4.25,11.75h-29.42c1.63-4.15,3.08-8.58,4.49-12.91Zm-6.77,18.21c.36-.75,.71-1.52,1.05-2.3h29.46c-2.81,6.97-5.76,13.62-8.77,19.95-10.51,.1-21.1,.2-31.77,.3,3.61-5.71,6.99-11.62,10.04-17.95Zm4.9,49.65c-3.24,.84-6.46,1.71-9.65,2.57-11.51,3.11-23.37,6.31-35.35,7.86,3.67-5.2,7.44-10.27,11.1-15.2,6.31-8.49,12.41-16.71,17.98-25.38v1.45c10.52-.1,20.94-.2,31.29-.29-5.19,10.64-10.48,20.32-15.38,28.98Zm32.55-6.02c-9.87,.73-19.63,2.77-29.22,5.17,4.76-8.48,9.82-17.88,14.77-28.16,10.81-.1,21.53-.19,32.19-.28-2.65,7.87-5.26,15.92-7.28,23.99-3.13-.71-6.55-1.01-10.46-.72Zm34.05,13.11c-1.98-1.2-3.85-2.41-5.66-3.58-5.24-3.39-10.05-6.49-15.76-8.22,2.11-8.27,4.83-16.53,7.56-24.6,10.61-.09,21.16-.16,31.64-.23-2.53,6.54-5.88,12.86-9.14,18.99-3.03,5.69-6.16,11.56-8.64,17.64Zm32.22,5.44c-10.54,1.59-20.75,.94-30.13-4.24,2.41-5.79,5.4-11.43,8.32-16.9,3.58-6.72,7.28-13.67,9.91-20.95,9.98-.07,19.9-.12,29.77-.17-2.94,8.48-6.67,16.55-10.52,24.86-2.5,5.38-5.08,10.94-7.5,16.75l.36,.15c-.07,.17-.14,.33-.21,.5Zm31.81-9.04c-9.8,3.43-19.75,6.9-29.46,8.65,2.22-5.23,4.55-10.28,6.82-15.17,4.14-8.91,8.13-17.54,11.18-26.72,10.92-.05,21.77-.09,32.58-.12-.92,9.18-1.94,18.33-3.12,27.44-5.99,1.72-12.04,3.83-17.99,5.92Zm40.41-9.63h-.11c-6.46,0-13.23,1.26-20.09,3.11,1.13-8.91,2.13-17.86,3.02-26.83,10.98-.03,21.92-.04,32.81-.03,.24,8.82,.44,17.63,.58,26.41-5.19-1.56-10.55-2.64-16.2-2.65Zm16.25-65.95c2.43,.03,4.86,.07,7.25,.11,6.92,.11,13.94,.21,20.98,.23l2.2,16.81h-29.81c-.2-5.72-.41-11.44-.63-17.15Zm.73,20.15h30.08c.77,6.45,1.23,12.79,1.51,19.11-10.3-.04-20.63-.06-31-.07-.18-6.35-.37-12.7-.58-19.05Zm31.86,51.11c-.03,2.92-.05,5.87-.07,8.83-2.13-.47-4.26-1.04-6.4-1.75-4.09-1.34-8.16-2.98-12.1-4.56-3.94-1.59-7.95-3.19-12.05-4.54-.14-8.99-.35-18.01-.59-27.04,10.38,0,20.73,.03,31.05,.07,.17,4.87,.23,9.73,.24,14.63,0,4.74-.04,9.52-.08,14.36Zm.33-51.11h29.85c1.34,6.5,2.31,12.89,3.08,19.3-10.48-.08-20.97-.14-31.5-.18-.25-6.32-.7-12.67-1.43-19.12Zm1.6,60.35c.02-2.76,.04-5.5,.06-8.22,.05-5.19,.09-10.29,.08-15.37,0-4.9-.06-9.77-.21-14.64,10.61,.04,21.19,.1,31.75,.18,.72,6.49,1.29,13.01,1.86,19.69,.43,5.09,.88,10.33,1.41,15.6-13.3,3.85-24.24,4.75-34.95,2.75Zm47.45-6.88c-3.64,1.28-7.09,2.48-10.45,3.52-.56-5.46-1.02-10.89-1.47-16.16-.53-6.28-1.07-12.41-1.73-18.51,10.99,.09,21.96,.19,32.93,.33,2.35,7.87,4.77,15.72,7.29,23.51-9.06,1.18-18.18,4.37-26.57,7.32Zm40.53-7.2c-2.33-.41-4.7-.6-7.09-.6-1.51,0-3.02,.08-4.54,.21-2.5-7.69-4.89-15.44-7.22-23.22,10.84,.13,21.66,.29,32.49,.47,4.91,11.63,10.01,23.14,15.06,34.47-9.05-5.16-18.48-9.54-28.7-11.35Zm42.51,19.76c-3.38-2.13-6.79-4.28-10.25-6.35-5.34-11.97-10.77-24.17-16-36.5,10.55,.18,21.09,.39,31.65,.62,6.43,12.93,12.96,25.79,19.35,38.38,3.73,7.35,7.46,14.7,11.17,22.06-12.84-3.69-24.56-11.07-35.92-18.23Z"/>
</svg>