<?xml version="1.0" encoding="UTF-8"?>
<svg id="Layer_1" data-name="Layer 1" xmlns="http://www.w3.org/2000/svg" viewBox="0 0 495.9 309.11">
  <defs>
    <style>
      .cls-1 {
        fill: #5f6d9a;
      }
    </style>
  </defs>
  <path class="cls-1" d="M109.07,0h17.66l-44.6,205.78L152.35,0h22.08L69.77,309.11h-22.08L83.9,126.29,22.08,309.11H0L61.38,0h22.08L43.28,205.78,109.07,0Z"/>
  <path class="cls-1" d="M187.23,17.66c2.94-11.77,10.45-17.66,22.52-17.66h29.59c11.48,0,15.75,5.89,12.81,17.66l-73.3,273.78c-3.53,11.78-11.04,17.66-22.52,17.66h-29.59c-12.07,0-16.34-5.89-12.81-17.66L187.23,17.66Zm-52.55,278.2h20.76L231.39,13.25h-20.75l-75.95,282.61Z"/>
  <path class="cls-1" d="M246.4,104.21h.44L274.66,0h40.63c11.48,0,15.75,5.89,12.81,17.66l-20.75,76.83c-2.06,8.83-6.18,14.13-12.36,15.9-2.36,.59-3.53,1.04-3.53,1.32s.88,.74,2.65,1.33c7.65,2.95,10,9.87,7.07,20.75l-46.81,175.31h-22.08l51.22-191.65h-18.1l-51.67,191.65h-22.08l51.67-191.65h-.44l3.53-13.25Zm36.21,0l24.73-91.85h-14.13l-24.29,91.85h13.69Z"/>
  <path class="cls-1" d="M355.02,0h22.08l-19.87,74.63L400.07,0h22.08l-52.99,92.29h6.18c11.48,0,15.75,5.89,12.81,17.66l-53.43,199.15h-22.08l54.76-203.57h-18.55l-54.76,203.57h-22.08L355.02,0Z"/>
  <path class="cls-1" d="M453.49,105.98c11.77,0,16.19,5.89,13.25,17.66l-45.04,167.8c-3.53,11.78-11.04,17.66-22.52,17.66h-24.73c-12.07,0-16.34-5.89-12.81-17.66l34-127.62h22.08l-35.33,132.03h15.9l47.25-176.63h-20.31c-11.48,0-15.75-5.89-12.81-17.66l22.52-83.9c2.94-11.77,10.45-17.66,22.52-17.66h24.73c11.48,0,15.75,5.89,12.81,17.66l-16.78,63.15h-22.08l18.1-67.56h-15.9l-25.17,92.73h20.31Z"/>
</svg>