<?xml version="1.0" encoding="UTF-8"?>
<svg id="Layer_1" data-name="Layer 1" xmlns="http://www.w3.org/2000/svg" viewBox="0 0 684.31 684.32">
  <defs>
    <style>
      .cls-1 {
        fill: #5f6d9a;
      }
    </style>
  </defs>
  <path class="cls-1" d="M133.93,182.81h.98L173.03,39.11C179.54,13.05,196.16,0,222.89,0h65.5c25.42,0,34.86,13.05,28.35,39.11L143.71,684.32h-48.88L221.91,212.14h-45.95L48.88,684.32H0L127.09,212.14h-.98l7.82-29.33Zm95.8,0L270.79,29.33h-45.95l-41.06,153.48h45.95Z"/>
  <path class="cls-1" d="M304.03,230.71h.98L366.59,0h89.94c25.42,0,34.86,13.05,28.35,39.11l-45.95,170.1c-4.57,19.55-13.69,31.28-27.37,35.19-5.22,1.31-7.82,2.29-7.82,2.93s1.95,1.63,5.87,2.93c16.94,6.52,22.15,21.84,15.64,45.95l-103.62,388.1h-48.88l113.4-424.27h-40.08l-114.38,424.27h-48.88l114.38-424.27h-.98l7.82-29.33Zm80.16,0L438.94,27.37h-31.28l-53.77,203.34h30.31Z"/>
  <path class="cls-1" d="M523.98,0h160.33l-7.82,27.37h-55.72l-175.97,656.94h-48.88L571.88,27.37h-55.72l7.82-27.37Z"/>
</svg>