<?xml version="1.0" encoding="UTF-8"?>
<svg id="Layer_1" data-name="Layer 1" xmlns="http://www.w3.org/2000/svg" viewBox="0 0 500 500">
  <defs>
    <style>
      .cls-1 {
        fill: #7a7a7a;
      }
    </style>
  </defs>
  <path class="cls-1" d="M23.77,207.34c15.34,.21,30.69,.71,46.03,.49,5.32-.08,7.88,1.75,10.11,6.38,7.75,16.12,15.96,32.02,24.39,48.81,1.22-1.96,2.14-3.23,2.84-4.6,7.6-15.04,15.37-30.01,22.62-45.23,2-4.2,4.4-5.39,8.79-5.3,13.24,.26,26.48,.08,39.72,.11,2.09,0,4.18,.18,6.5,.29v84.55h-39.1v-50.8c-.46-.09-.91-.18-1.37-.27-6.43,13.36-13.56,26.44-19.04,40.18-3.67,9.19-8.87,11.19-18.42,11.81-13.77,.89-21.33-3.06-25.88-16.37-4.11-12.03-10.75-23.19-17.45-34.68v50.52H23.77v-85.88Z"/>
  <path class="cls-1" d="M476.23,271.43c-4.82,13.06-15.86,17.88-28.12,20.23-23.48,4.51-47.15,4.79-70.6,0-6.93-1.41-14.03-4.28-19.88-8.22-13.13-8.85-11.45-24.22,2.87-30.86,3.79-1.76,7.89-2.83,12.41-4.41-4.23-1.71-8.02-2.87-11.46-4.7-10.75-5.71-12.7-17.2-2.85-24.27,7.34-5.27,16.55-8.97,25.45-10.82,20.63-4.29,41.63-4.16,62.28,.45,6.31,1.41,12.76,3.99,18.11,7.58,12.33,8.27,10.85,21.71-2.61,28.01-2.87,1.35-5.96,2.25-10.4,3.9,11.04,2.69,20.81,5.79,24.79,16.7v6.41Zm-63.06-15.73c-5.5,.77-10.85,.67-15.47,2.45-3.22,1.24-7,4.69-7.74,7.82-1.12,4.77,3.25,8.29,7.61,8.49,10.28,.45,20.65,.29,30.88-.7,2.44-.24,6.36-4.83,6.21-7.2-.18-2.91-3.39-6.92-6.26-8.07-4.78-1.93-10.32-1.98-15.24-2.77Zm-.45-14.36c4.64-.81,9.81-1.13,14.52-2.78,2.26-.79,4.98-4.08,5.02-6.27,.04-2.14-2.98-6.09-4.85-6.2-9.81-.62-19.7-.65-29.5,.06-2.02,.15-5.28,4.37-5.18,6.6,.1,2.27,3.24,5.48,5.73,6.35,4.3,1.51,9.13,1.54,14.26,2.26Z"/>
  <path class="cls-1" d="M331.41,229.29c-14.35,0-27.31,.07-40.27-.09-1.54-.02-3.09-1.19-4.6-1.9-10.54-4.95-21.12-4.85-31.45,.33-7.35,3.69-10.17,10.35-10.98,19.01,20.14-12.24,41.19-12.55,62.59-8.34,5.72,1.13,11.55,3.5,16.47,6.64,13.92,8.89,14.74,26.23,2.05,36.86-9.57,8.01-21.23,10.69-33.26,11.91-19.68,2-39.33,2.05-58.32-4.4-27.81-9.45-37.64-40.68-20.4-63.94,6.71-9.06,16.16-13.89,26.72-16.46,21.94-5.34,44.03-5.46,65.98-.09,10.59,2.59,19.81,7.5,25.46,20.46Zm-60.46,47.11c5.51-.92,10.85-1.38,15.93-2.79,4.3-1.19,8.41-4.38,7.17-9.15-.85-3.28-4.17-7.18-7.31-8.39-10.73-4.13-21.92-3.42-32.53,.69-2.76,1.07-6.16,5.17-6.04,7.72,.14,2.98,3.24,7.18,6.09,8.36,5.17,2.16,11.1,2.48,16.68,3.56Z"/>
</svg>