<?xml version="1.0" encoding="UTF-8"?>
<svg id="Layer_1" data-name="Layer 1" xmlns="http://www.w3.org/2000/svg" viewBox="0 0 500 500">
  <defs>
    <style>
      .cls-1 {
        fill: #0000fd;
      }
    </style>
  </defs>
  <path class="cls-1" d="M118.68,141.18c0-.18-.02-.33-.03-.5,0-.17,.03-.32,.03-.5,0-7.55-6.54-7.55-10.06-7.55h-22v16.03h22c3.52,0,10.06,0,10.06-7.49Zm-30.06-5.55h20c4.26,0,7.79,.4,8.04,5.04-.24,4.59-3.78,4.99-8.04,4.99h-20v-10.03Z"/>
  <path class="cls-1" d="M258.37,146.93c0-.17,0-.33-.01-.5,0-.17,.01-.33,.01-.5,0-12.26-8.24-13.29-15.97-13.29h-18.07v27.58h18.07c7.73,0,15.97-1.03,15.97-13.29Zm-15.97,10.29h-16.07v-21.58h16.07c8.89,0,13.77,1.75,13.95,10.79-.18,9.04-5.06,10.79-13.95,10.79Z"/>
  <path class="cls-1" d="M319.61,141.18c0-.18-.02-.33-.03-.5,0-.17,.03-.32,.03-.5,0-7.55-6.54-7.55-10.06-7.55h-22v16.03h22c3.52,0,10.06,0,10.06-7.49Zm-30.06-5.55h20c4.26,0,7.79,.4,8.04,5.04-.24,4.59-3.78,4.99-8.04,4.99h-20v-10.03Z"/>
  <path class="cls-1" d="M377.38,152.06l-.53-1h.53l-10.98-20.67-11.06,20.67h.54l-.54,1h22.04Zm-10.99-16.42l7.13,13.42h-14.31l7.18-13.42Z"/>
  <path class="cls-1" d="M399.24,168.54h.55l-24.86-45.24h-17.13l-24.79,45.24h.55l-.47,.87h-2.39l-.57-.87h.66l-8.32-12.62c5.72-2.77,8.97-8.04,8.97-14.74,0-.14-.02-.27-.02-.4,0-.2,.02-.4,.02-.6,0-10.09-7.47-16.87-18.59-16.87h-37.1v46.1h-25.84c14.9-1.35,20.29-12.69,20.29-22.48,0-.17,0-.33,0-.5,0-.17,0-.33,0-.5,0-10.43-6.11-22.62-23.32-22.62h-34.35v46.1h-5.55v-11.7h-36.76v-5.77h36.76v-11.03h-36.76v-5.77h36.76v-11.83h-50.57v46.1h-6.53v-46.1h-13.82v46.1h-47.43v-11.42h23.29c11.12,0,18.59-6.76,18.59-16.81,0-.17-.02-.33-.02-.5,0-.17,.02-.33,.02-.5,0-10.09-7.47-16.87-18.59-16.87h-37.1v46.1h-2.65v122.95H400.51v-122.95h-.79l-.48-.87Zm-40.26-42.24h14.77l22.11,40.24h-10.22l-4.92-9.2h-28.7l-4.92,9.2h-10.16l22.05-40.24Zm25.39,43.1h-36.01l4.85-9.07h26.31l4.85,9.07Zm-169.85-43.1h32.35c9.72,0,21.05,5.29,21.31,20.12-.25,14.83-11.58,20.12-21.31,20.12h-32.35v-40.24Zm-56.12,0h46.57v5.83h-36.76v11.77h36.76v5.03h-36.76v11.77h36.76v5.83h-46.57v-40.24Zm-20.35,0h9.82v40.24h-9.82v-40.24Zm-61.24,0h35.1c9.89,0,16.33,5.63,16.57,14.37-.24,8.71-6.68,14.31-16.57,14.31h-25.29v11.55h-9.82v-40.24Zm15.75,163.05h-18.4v-4.5h18.4v4.5Zm0-7.5h-18.4v-4.5h18.4v4.5Zm0-7.5h-18.4v-4.5h18.4v4.5Zm0-7.5h-18.4v-4.5h18.4v4.5Zm0-7.5h-18.4v-4.5h18.4v4.5Zm0-7.5h-18.4v-4.5h18.4v4.5Zm0-7.5h-18.4v-4.5h18.4v4.5Zm0-7.5h-18.4v-4.5h18.4v4.5Zm0-7.5h-18.4v-4.5h18.4v4.5Zm0-7.5h-18.4v-4.5h18.4v4.5Zm0-7.5h-18.4v-4.5h18.4v4.5Zm0-7.5h-18.4v-4.5h18.4v4.5Zm0-7.5h-18.4v-4.5h18.4v4.5Zm0-7.5h-18.4v-4.5h18.4v4.5Zm0-7.5h-18.4v-4.5h18.4v4.5Zm0-7.5h-18.4v-4.5h18.4v4.5Zm20.4,112.46h-18.4v-4.5h18.4v4.5Zm0-7.5h-18.4v-4.5h18.4v4.5Zm0-7.5h-18.4v-4.5h18.4v4.5Zm0-7.5h-18.4v-4.5h18.4v4.5Zm0-7.5h-18.4v-4.5h18.4v4.5Zm0-7.5h-18.4v-4.5h18.4v4.5Zm0-7.5h-18.4v-4.5h18.4v4.5Zm0-7.5h-18.4v-4.5h18.4v4.5Zm0-7.5h-18.4v-4.5h18.4v4.5Zm0-7.5h-18.4v-4.5h18.4v4.5Zm0-7.5h-18.4v-4.5h18.4v4.5Zm0-7.5h-18.4v-4.5h18.4v4.5Zm0-7.5h-18.4v-4.5h18.4v4.5Zm0-7.5h-18.4v-4.5h18.4v4.5Zm0-7.5h-18.4v-4.5h18.4v4.5Zm0-7.5h-18.4v-4.5h18.4v4.5Zm20.4,112.46h-18.4v-4.5h18.4v4.5Zm0-7.5h-18.4v-4.5h18.4v4.5Zm0-7.5h-18.4v-4.5h18.4v4.5Zm0-7.5h-18.4v-4.5h18.4v4.5Zm0-7.5h-18.4v-4.5h18.4v4.5Zm0-7.5h-18.4v-4.5h18.4v4.5Zm0-7.5h-18.4v-4.5h18.4v4.5Zm0-7.5h-18.4v-4.5h18.4v4.5Zm0-7.5h-18.4v-4.5h18.4v4.5Zm0-7.5h-18.4v-4.5h18.4v4.5Zm0-7.5h-18.4v-4.5h18.4v4.5Zm0-7.5h-18.4v-4.5h18.4v4.5Zm0-7.5h-18.4v-4.5h18.4v4.5Zm0-7.5h-18.4v-4.5h18.4v4.5Zm0-7.5h-18.4v-4.5h18.4v4.5Zm0-7.5h-18.4v-4.5h18.4v4.5Zm20.4,112.46h-18.4v-4.5h18.4v4.5Zm0-7.5h-18.4v-4.5h18.4v4.5Zm0-7.5h-18.4v-4.5h18.4v4.5Zm0-7.5h-18.4v-4.5h18.4v4.5Zm0-7.5h-18.4v-4.5h18.4v4.5Zm0-7.5h-18.4v-4.5h18.4v4.5Zm0-7.5h-18.4v-4.5h18.4v4.5Zm0-7.5h-18.4v-4.5h18.4v4.5Zm0-7.5h-18.4v-4.5h18.4v4.5Zm0-7.5h-18.4v-4.5h18.4v4.5Zm0-7.5h-18.4v-4.5h18.4v4.5Zm0-7.5h-18.4v-4.5h18.4v4.5Zm0-7.5h-18.4v-4.5h18.4v4.5Zm0-7.5h-18.4v-4.5h18.4v4.5Zm0-7.5h-18.4v-4.5h18.4v4.5Zm0-7.5h-18.4v-4.5h18.4v4.5Zm20.4,112.46h-18.4v-4.5h18.4v4.5Zm0-7.5h-18.4v-4.5h18.4v4.5Zm0-7.5h-18.4v-4.5h18.4v4.5Zm0-7.5h-18.4v-4.5h18.4v4.5Zm0-7.5h-18.4v-4.5h18.4v4.5Zm0-7.5h-18.4v-4.5h18.4v4.5Zm0-7.5h-18.4v-4.5h18.4v4.5Zm0-7.5h-18.4v-4.5h18.4v4.5Zm0-7.5h-18.4v-4.5h18.4v4.5Zm0-7.5h-18.4v-4.5h18.4v4.5Zm0-7.5h-18.4v-4.5h18.4v4.5Zm0-7.5h-18.4v-4.5h18.4v4.5Zm0-7.5h-18.4v-4.5h18.4v4.5Zm0-7.5h-18.4v-4.5h18.4v4.5Zm0-7.5h-18.4v-4.5h18.4v4.5Zm0-7.5h-18.4v-4.5h18.4v4.5Zm20.4,112.46h-18.4v-4.5h18.4v4.5Zm0-7.5h-18.4v-4.5h18.4v4.5Zm0-7.5h-18.4v-4.5h18.4v4.5Zm0-7.5h-18.4v-4.5h18.4v4.5Zm0-7.5h-18.4v-4.5h18.4v4.5Zm0-7.5h-18.4v-4.5h18.4v4.5Zm0-7.5h-18.4v-4.5h18.4v4.5Zm0-7.5h-18.4v-4.5h18.4v4.5Zm0-7.5h-18.4v-4.5h18.4v4.5Zm0-7.5h-18.4v-4.5h18.4v4.5Zm0-7.5h-18.4v-4.5h18.4v4.5Zm0-7.5h-18.4v-4.5h18.4v4.5Zm0-7.5h-18.4v-4.5h18.4v4.5Zm0-7.5h-18.4v-4.5h18.4v4.5Zm0-7.5h-18.4v-4.5h18.4v4.5Zm0-7.5h-18.4v-4.5h18.4v4.5Zm20.4,112.46h-18.4v-4.5h18.4v4.5Zm0-7.5h-18.4v-4.5h18.4v4.5Zm0-7.5h-18.4v-4.5h18.4v4.5Zm0-7.5h-18.4v-4.5h18.4v4.5Zm0-7.5h-18.4v-4.5h18.4v4.5Zm0-7.5h-18.4v-4.5h18.4v4.5Zm0-7.5h-18.4v-4.5h18.4v4.5Zm0-7.5h-18.4v-4.5h18.4v4.5Zm0-7.5h-18.4v-4.5h18.4v4.5Zm0-7.5h-18.4v-4.5h18.4v4.5Zm0-7.5h-18.4v-4.5h18.4v4.5Zm0-7.5h-18.4v-4.5h18.4v4.5Zm0-7.5h-18.4v-4.5h18.4v4.5Zm0-7.5h-18.4v-4.5h18.4v4.5Zm0-7.5h-18.4v-4.5h18.4v4.5Zm0-7.5h-18.4v-4.5h18.4v4.5Zm20.4,112.46h-18.4v-4.5h18.4v4.5Zm0-7.5h-18.4v-4.5h18.4v4.5Zm0-7.5h-18.4v-4.5h18.4v4.5Zm0-7.5h-18.4v-4.5h18.4v4.5Zm0-7.5h-18.4v-4.5h18.4v4.5Zm0-7.5h-18.4v-4.5h18.4v4.5Zm0-7.5h-18.4v-4.5h18.4v4.5Zm0-7.5h-18.4v-4.5h18.4v4.5Zm0-7.5h-18.4v-4.5h18.4v4.5Zm0-7.5h-18.4v-4.5h18.4v4.5Zm0-7.5h-18.4v-4.5h18.4v4.5Zm0-7.5h-18.4v-4.5h18.4v4.5Zm0-7.5h-18.4v-4.5h18.4v4.5Zm0-7.5h-18.4v-4.5h18.4v4.5Zm0-7.5h-18.4v-4.5h18.4v4.5Zm0-7.5h-18.4v-4.5h18.4v4.5Zm20.4,112.46h-18.4v-4.5h18.4v4.5Zm0-7.5h-18.4v-4.5h18.4v4.5Zm0-7.5h-18.4v-4.5h18.4v4.5Zm0-7.5h-18.4v-4.5h18.4v4.5Zm0-7.5h-18.4v-4.5h18.4v4.5Zm0-7.5h-18.4v-4.5h18.4v4.5Zm0-7.5h-18.4v-4.5h18.4v4.5Zm0-7.5h-18.4v-4.5h18.4v4.5Zm0-7.5h-18.4v-4.5h18.4v4.5Zm0-7.5h-18.4v-4.5h18.4v4.5Zm0-7.5h-18.4v-4.5h18.4v4.5Zm0-7.5h-18.4v-4.5h18.4v4.5Zm0-7.5h-18.4v-4.5h18.4v4.5Zm0-7.5h-18.4v-4.5h18.4v4.5Zm0-7.5h-18.4v-4.5h18.4v4.5Zm0-7.5h-18.4v-4.5h18.4v4.5Zm20.4,112.46h-18.4v-4.5h18.4v4.5Zm0-7.5h-18.4v-4.5h18.4v4.5Zm0-7.5h-18.4v-4.5h18.4v4.5Zm0-7.5h-18.4v-4.5h18.4v4.5Zm0-7.5h-18.4v-4.5h18.4v4.5Zm0-7.5h-18.4v-4.5h18.4v4.5Zm0-7.5h-18.4v-4.5h18.4v4.5Zm0-7.5h-18.4v-4.5h18.4v4.5Zm0-7.5h-18.4v-4.5h18.4v4.5Zm0-7.5h-18.4v-4.5h18.4v4.5Zm0-7.5h-18.4v-4.5h18.4v4.5Zm0-7.5h-18.4v-4.5h18.4v4.5Zm0-7.5h-18.4v-4.5h18.4v4.5Zm0-7.5h-18.4v-4.5h18.4v4.5Zm0-7.5h-18.4v-4.5h18.4v4.5Zm0-7.5h-18.4v-4.5h18.4v4.5Zm1.61-50.6h35.1c9.92,0,16.37,5.66,16.57,14.45-.2,6.15-3.56,10.87-9.31,13l-1.18,.44,.53,.8-.53,.2,7.48,11.35h-10.85l-7.42-11.55h-20.58v11.55h-9.82v-40.24Zm36.64,43.1h-24.82v-11.42h17.49l7.33,11.42Zm-17.85,119.95h-18.4v-4.5h18.4v4.5Zm0-7.5h-18.4v-4.5h18.4v4.5Zm0-7.5h-18.4v-4.5h18.4v4.5Zm0-7.5h-18.4v-4.5h18.4v4.5Zm0-7.5h-18.4v-4.5h18.4v4.5Zm0-7.5h-18.4v-4.5h18.4v4.5Zm0-7.5h-18.4v-4.5h18.4v4.5Zm0-7.5h-18.4v-4.5h18.4v4.5Zm0-7.5h-18.4v-4.5h18.4v4.5Zm0-7.5h-18.4v-4.5h18.4v4.5Zm0-7.5h-18.4v-4.5h18.4v4.5Zm0-7.5h-18.4v-4.5h18.4v4.5Zm0-7.5h-18.4v-4.5h18.4v4.5Zm0-7.5h-18.4v-4.5h18.4v4.5Zm0-7.5h-18.4v-4.5h18.4v4.5Zm0-7.5h-18.4v-4.5h18.4v4.5Zm20.4,112.46h-18.4v-4.5h18.4v4.5Zm0-7.5h-18.4v-4.5h18.4v4.5Zm0-7.5h-18.4v-4.5h18.4v4.5Zm0-7.5h-18.4v-4.5h18.4v4.5Zm0-7.5h-18.4v-4.5h18.4v4.5Zm0-7.5h-18.4v-4.5h18.4v4.5Zm0-7.5h-18.4v-4.5h18.4v4.5Zm0-7.5h-18.4v-4.5h18.4v4.5Zm0-7.5h-18.4v-4.5h18.4v4.5Zm0-7.5h-18.4v-4.5h18.4v4.5Zm0-7.5h-18.4v-4.5h18.4v4.5Zm0-7.5h-18.4v-4.5h18.4v4.5Zm0-7.5h-18.4v-4.5h18.4v4.5Zm0-7.5h-18.4v-4.5h18.4v4.5Zm0-7.5h-18.4v-4.5h18.4v4.5Zm0-7.5h-18.4v-4.5h18.4v4.5Zm20.4,112.46h-18.4v-4.5h18.4v4.5Zm0-7.5h-18.4v-4.5h18.4v4.5Zm0-7.5h-18.4v-4.5h18.4v4.5Zm0-7.5h-18.4v-4.5h18.4v4.5Zm0-7.5h-18.4v-4.5h18.4v4.5Zm0-7.5h-18.4v-4.5h18.4v4.5Zm0-7.5h-18.4v-4.5h18.4v4.5Zm0-7.5h-18.4v-4.5h18.4v4.5Zm0-7.5h-18.4v-4.5h18.4v4.5Zm0-7.5h-18.4v-4.5h18.4v4.5Zm0-7.5h-18.4v-4.5h18.4v4.5Zm0-7.5h-18.4v-4.5h18.4v4.5Zm0-7.5h-18.4v-4.5h18.4v4.5Zm0-7.5h-18.4v-4.5h18.4v4.5Zm0-7.5h-18.4v-4.5h18.4v4.5Zm0-7.5h-18.4v-4.5h18.4v4.5Zm20.4,112.46h-18.4v-4.5h18.4v4.5Zm0-7.5h-18.4v-4.5h18.4v4.5Zm0-7.5h-18.4v-4.5h18.4v4.5Zm0-7.5h-18.4v-4.5h18.4v4.5Zm0-7.5h-18.4v-4.5h18.4v4.5Zm0-7.5h-18.4v-4.5h18.4v4.5Zm0-7.5h-18.4v-4.5h18.4v4.5Zm0-7.5h-18.4v-4.5h18.4v4.5Zm0-7.5h-18.4v-4.5h18.4v4.5Zm0-7.5h-18.4v-4.5h18.4v4.5Zm0-7.5h-18.4v-4.5h18.4v4.5Zm0-7.5h-18.4v-4.5h18.4v4.5Zm0-7.5h-18.4v-4.5h18.4v4.5Zm0-7.5h-18.4v-4.5h18.4v4.5Zm0-7.5h-18.4v-4.5h18.4v4.5Zm0-7.5h-18.4v-4.5h18.4v4.5Zm20.4,112.46h-18.4v-4.5h18.4v4.5Zm0-7.5h-18.4v-4.5h18.4v4.5Zm0-7.5h-18.4v-4.5h18.4v4.5Zm0-7.5h-18.4v-4.5h18.4v4.5Zm0-7.5h-18.4v-4.5h18.4v4.5Zm0-7.5h-18.4v-4.5h18.4v4.5Zm0-7.5h-18.4v-4.5h18.4v4.5Zm0-7.5h-18.4v-4.5h18.4v4.5Zm0-7.5h-18.4v-4.5h18.4v4.5Zm0-7.5h-18.4v-4.5h18.4v4.5Zm0-7.5h-18.4v-4.5h18.4v4.5Zm0-7.5h-18.4v-4.5h18.4v4.5Zm0-7.5h-18.4v-4.5h18.4v4.5Zm0-7.5h-18.4v-4.5h18.4v4.5Zm0-7.5h-18.4v-4.5h18.4v4.5Zm0-7.5h-18.4v-4.5h18.4v4.5Zm20.4,112.46h-18.4v-4.5h18.4v4.5Zm0-7.5h-18.4v-4.5h18.4v4.5Zm0-7.5h-18.4v-4.5h18.4v4.5Zm0-7.5h-18.4v-4.5h18.4v4.5Zm0-7.5h-18.4v-4.5h18.4v4.5Zm0-7.5h-18.4v-4.5h18.4v4.5Zm0-7.5h-18.4v-4.5h18.4v4.5Zm0-7.5h-18.4v-4.5h18.4v4.5Zm0-7.5h-18.4v-4.5h18.4v4.5Zm0-7.5h-18.4v-4.5h18.4v4.5Zm0-7.5h-18.4v-4.5h18.4v4.5Zm0-7.5h-18.4v-4.5h18.4v4.5Zm0-7.5h-18.4v-4.5h18.4v4.5Zm0-7.5h-18.4v-4.5h18.4v4.5Zm0-7.5h-18.4v-4.5h18.4v4.5Zm0-7.5h-18.4v-4.5h18.4v4.5Z"/>
</svg>