<?xml version="1.0" encoding="UTF-8"?>
<svg id="Layer_1" data-name="Layer 1" xmlns="http://www.w3.org/2000/svg" viewBox="0 0 500 500">
  <defs>
    <style>
      .cls-1 {
        fill: #0000fd;
      }
    </style>
  </defs>
  <path class="cls-1" d="M116.22,266.36c0-.17-.02-.33-.02-.5,0-.17,.02-.33,.02-.5,.13-8.26-7.38-15.18-16.23-15.09H58.6v40.91h16.74v-9.74h24.64c8.85,.12,16.36-6.86,16.23-15.09Zm-17.86,1.41c-.7,.65-1.57,.98-2.56,.98h-20.45v-5.8h20.45c.99,0,1.85,.33,2.56,1.01,.6,.53,.93,1.17,1.04,1.9-.11,.71-.44,1.35-1.04,1.91Z"/>
  <polygon class="cls-1" points="124.03 251.21 124.03 290.13 124.03 291.13 140.77 291.13 140.77 290.13 140.77 251.21 140.77 250.21 124.03 250.21 124.03 251.21"/>
  <polygon class="cls-1" points="200.79 261.49 200.79 260.49 200.79 251.27 200.79 250.27 150.52 250.27 150.52 251.27 150.52 290.19 150.52 291.19 200.79 291.19 200.79 290.19 200.79 280.94 200.79 279.94 167.27 279.94 167.27 275.83 200.79 275.83 200.79 274.83 200.79 266.6 200.79 265.6 167.27 265.6 167.27 261.49 200.79 261.49"/>
  <path class="cls-1" d="M209.43,251.27v39.91h53.31c16.45,.15,28.66-9.12,28.53-19.96,0-.17,0-.33-.01-.5,0-.17,.01-.33,.01-.5,.13-10.9-12.08-20.1-28.53-19.96h-53.31v1Zm23.36,12.65h25.58c5.81,0,9.19,3,9.47,6.8-.27,3.78-3.66,6.81-9.47,6.81h-25.58v-13.61Z"/>
  <path class="cls-1" d="M338.07,250.24h-41.38v40.91h16.74v-9.74h14.96l8.08,9.74h17.83l-.84-1h.84l-8.76-10.48c2.53-1.21,4.6-2.95,6.18-5.18,1.73-2.44,2.59-5.17,2.59-8.17,0-.16-.02-.31-.02-.47,0-.18,.02-.35,.02-.53,.13-8.26-7.38-15.18-16.23-15.09Zm-1.63,17.49c-.7,.65-1.57,.98-2.59,.98h-20.42v-5.8h20.42c1.87,0,3.37,1.27,3.62,2.93-.11,.71-.44,1.34-1.03,1.89Z"/>
  <path class="cls-1" d="M401.81,250.27h-19.91l-23.04,39.91h.58l-.58,1h18.85l3.39-6.83h21.51l3.39,6.83h18.85l-.58-1h.58l-23.04-39.91Zm-15.35,23.34l5.41-10.79,5.38,10.79h-10.79Z"/>
</svg>