<?xml version="1.0" encoding="UTF-8"?>
<svg id="Layer_1" data-name="Layer 1" xmlns="http://www.w3.org/2000/svg" viewBox="0 0 1904.07 309.11">
  <defs>
    <style>
      .cls-1 {
        fill: #ff1e56;
      }
    </style>
  </defs>
  <path class="cls-1" d="M83.02,0h58.29l-3.53,12.37h-36.21l-16.34,61.38h28.7l-3.53,13.25h-28.7L25.61,295.86h40.63l-3.53,13.25H0L83.02,0Z"/>
  <path class="cls-1" d="M138.66,82.58h.44l17.22-64.91c2.94-11.77,10.45-17.66,22.52-17.66h29.59c11.48,0,15.75,5.89,12.81,17.66l-78.16,291.45h-22.08l57.41-213.29h-20.75l-57.41,213.29h-22.08l57.41-213.29h-.44l3.53-13.25Zm43.28,0L200.48,13.25h-20.75l-18.55,69.33h20.75Z"/>
  <path class="cls-1" d="M207.1,295.86l38.86-144.4h22.08l-37.53,139.98c-3.53,11.78-11.04,17.66-22.52,17.66h-29.59c-12.07,0-16.34-5.89-12.81-17.66L238.9,17.66c2.94-11.77,10.45-17.66,22.52-17.66h29.59c11.48,0,15.75,5.89,12.81,17.66l-16.34,60.5h-22.08l17.66-64.91h-20.75l-75.95,282.61h20.75Z"/>
  <path class="cls-1" d="M326.33,0h22.08l-22.08,82.58h15.9L364.3,0h22.08l-83.02,309.11h-22.08l57.41-213.29h-15.9l-57.41,213.29h-22.08l57.41-213.29h-.44l3.53-13.25h.44L326.33,0Z"/>
  <path class="cls-1" d="M483.97,105.98c11.77,0,16.19,5.89,13.25,17.66l-45.04,167.8c-3.53,11.78-11.04,17.66-22.52,17.66h-24.73c-12.07,0-16.34-5.89-12.81-17.66l34-127.62h22.08l-35.33,132.03h15.9l47.25-176.63h-20.31c-11.48,0-15.75-5.89-12.81-17.66l22.52-83.9c2.94-11.77,10.45-17.66,22.52-17.66h24.73c11.48,0,15.75,5.89,12.81,17.66l-16.78,63.15h-22.08l18.1-67.56h-15.9l-25.17,92.73h20.31Z"/>
  <path class="cls-1" d="M540.49,0h72.42l-3.53,12.37h-25.17l-79.49,296.74h-22.08L562.13,12.37h-25.17l3.53-12.37Z"/>
  <path class="cls-1" d="M619.54,17.66c2.94-11.77,10.45-17.66,22.52-17.66h29.59c11.48,0,15.75,5.89,12.81,17.66l-73.3,273.78c-3.53,11.78-11.04,17.66-22.52,17.66h-29.59c-12.07,0-16.34-5.89-12.81-17.66L619.54,17.66Zm-52.55,278.2h20.75L663.69,13.25h-20.75l-75.95,282.61Z"/>
  <path class="cls-1" d="M706.97,0h22.08l-19.87,201.8L763.49,0h22.08l-83.02,309.11h-22.08l19.43-200.48-53.87,200.48h-22.08L706.97,0Z"/>
  <path class="cls-1" d="M803.23,0h58.29l-3.53,12.37h-36.21l-16.34,61.38h28.7l-3.53,13.25h-28.7l-56.08,208.87h40.63l-3.53,13.25h-62.71L803.23,0Z"/>
  <path class="cls-1" d="M913.18,295.86L992.66,0h22.08l-78.16,291.45c-3.53,11.78-11.04,17.66-22.52,17.66h-29.59c-12.08,0-16.34-5.89-12.81-17.66L949.83,0h22.08l-79.49,295.86h20.75Z"/>
  <path class="cls-1" d="M1032.4,0h22.08l-19.87,201.8L1088.92,0h22.08l-83.02,309.11h-22.08l19.43-200.48-53.87,200.48h-22.08L1032.4,0Z"/>
  <path class="cls-1" d="M1100.4,104.21h.44L1128.66,0h40.63c11.48,0,15.75,5.89,12.81,17.66l-20.75,76.83c-2.06,8.83-6.18,14.13-12.36,15.9-2.36,.59-3.53,1.04-3.53,1.32s.88,.74,2.65,1.33c7.65,2.95,10,9.87,7.07,20.75l-46.81,175.31h-22.08l51.22-191.65h-18.11l-51.67,191.65h-22.08l51.67-191.65h-.44l3.53-13.25Zm36.21,0l24.73-91.85h-14.13l-24.29,91.85h13.69Z"/>
  <path class="cls-1" d="M1209.03,0h58.29l-3.53,12.37h-36.21l-16.34,61.38h28.7l-3.53,13.25h-28.7l-56.08,208.87h40.63l-3.53,13.25h-62.71L1209.03,0Z"/>
  <path class="cls-1" d="M1326.93,85.67c-3.53,11.78-11.04,17.66-22.52,17.66h-23.84l-55.2,205.78h-22.08L1286.3,0h45.92c11.48,0,15.75,5.89,12.81,17.66l-18.1,68Zm-23.4,4.42l20.75-76.84h-19.43l-20.75,76.84h19.43Z"/>
  <path class="cls-1" d="M1367.55,0h58.29l-3.53,12.37h-36.21l-16.34,61.38h28.7l-3.53,13.25h-28.7l-56.08,208.87h40.63l-3.53,13.25h-62.71L1367.55,0Z"/>
  <path class="cls-1" d="M1423.19,82.58h.44l17.22-64.91c2.94-11.77,10.45-17.66,22.52-17.66h29.59c11.48,0,15.75,5.89,12.81,17.66l-78.16,291.45h-22.08l57.41-213.29h-20.75l-57.41,213.29h-22.08l57.41-213.29h-.44l3.53-13.25Zm43.27,0l18.55-69.33h-20.75l-18.55,69.33h20.75Z"/>
  <path class="cls-1" d="M1523.88,0h72.42l-3.53,12.37h-25.17l-79.49,296.74h-22.08L1545.51,12.37h-25.17l3.53-12.37Z"/>
  <path class="cls-1" d="M1587.02,82.58h.44l17.22-64.91c2.94-11.77,10.45-17.66,22.52-17.66h29.59c11.48,0,15.75,5.89,12.81,17.66l-78.16,291.45h-22.08l57.41-213.29h-20.75l-57.41,213.29h-22.08l57.41-213.29h-.44l3.53-13.25Zm43.27,0l18.55-69.33h-20.75l-18.55,69.33h20.75Z"/>
  <path class="cls-1" d="M1692.12,0h40.63c11.48,0,15.75,5.89,12.81,17.66l-12.81,46.81c-2.06,8.83-6.18,14.13-12.36,15.9-2.36,.59-3.53,1.03-3.53,1.32s.88,.74,2.65,1.33c7.95,2.95,10.45,9.87,7.51,20.75l-50.34,187.67c-3.53,11.78-11.04,17.66-22.52,17.66h-45.04L1692.12,0Zm-57.41,295.86h18.55l56.08-208.87h-18.55l-56.08,208.87Zm73.75-222.12l16.34-61.38h-14.13l-16.34,61.38h14.13Z"/>
  <path class="cls-1" d="M1772.48,0h22.08l-79.49,295.86h33.56l-3.53,13.25h-55.64L1772.48,0Z"/>
  <path class="cls-1" d="M1845.78,0h58.29l-3.53,12.37h-36.21l-16.34,61.38h28.7l-3.53,13.25h-28.7l-56.08,208.87h40.63l-3.53,13.25h-62.71L1845.78,0Z"/>
</svg>